<?xml version="1.0" encoding="UTF-8" standalone="no"?>
<!DOCTYPE svg PUBLIC "-//W3C//DTD SVG 1.1//EN" "http://www.w3.org/Graphics/SVG/1.1/DTD/svg11.dtd">
<svg width="100%" height="100%" viewBox="0 0 640 640" version="1.1" xmlns="http://www.w3.org/2000/svg" xmlns:xlink="http://www.w3.org/1999/xlink" xml:space="preserve" xmlns:serif="http://www.serif.com/" style="fill-rule:evenodd;clip-rule:evenodd;stroke-linejoin:round;stroke-miterlimit:2;">
    <g>
        <clipPath id="_clip1">
            <rect x="0" y="0" width="640" height="640"/>
        </clipPath>
        <g clip-path="url(#_clip1)">
            <g opacity="0.1">
                <path d="M616.5,7.5L640,7.5L640,8.5L616.5,8.5L616.5,39.5L640,39.5L640,40.5L616.5,40.5L616.5,71.5L640,71.5L640,72.5L616.5,72.5L616.5,103.5L640,103.5L640,104.5L616.5,104.5L616.5,135.5L640,135.5L640,136.5L616.5,136.5L616.5,167.5L640,167.5L640,168.5L616.5,168.5L616.5,199.5L640,199.5L640,200.5L616.5,200.5L616.5,231.5L640,231.5L640,232.5L616.5,232.5L616.5,263.5L640,263.5L640,264.5L520.5,264.5L520.5,359.5L640,359.5L640,360.5L616.5,360.5L616.5,391.5L640,391.5L640,392.5L616.5,392.5L616.5,423.5L640,423.5L640,424.5L616.5,424.5L616.5,455.5L640,455.5L640,456.5L616.5,456.5L616.5,487.5L640,487.5L640,488.5L616.5,488.5L616.5,519.5L640,519.5L640,520.5L616.5,520.5L616.5,551.5L640,551.5L640,552.5L616.5,552.5L616.5,583.5L640,583.5L640,584.5L616.5,584.5L616.5,615.5L640,615.5L640,616.5L616.5,616.5L616.5,640L615.5,640L615.5,488.5L520.5,488.5L520.5,640L519.5,640L519.5,616.5L488.5,616.5L488.5,640L487.5,640L487.5,584.5L328.5,584.5L328.5,640L327.5,640L327.5,616.5L296.5,616.5L296.5,640L295.5,640L295.5,616.5L264.5,616.5L264.5,640L263.5,640L263.5,616.5L232.5,616.5L232.5,640L231.5,640L231.5,616.5L8.5,616.5L8.5,640L7.5,640L7.5,616.5L0,616.5L0,615.5L7.5,615.5L7.5,584.5L0,584.5L0,583.5L7.5,583.5L7.5,552.5L0,552.5L0,551.5L7.5,551.5L7.5,520.5L0,520.5L0,519.5L7.5,519.5L7.5,488.5L0,488.5L0,487.5L7.5,487.5L7.5,456.5L0,456.5L0,455.5L7.5,455.5L7.5,424.5L0,424.5L0,423.5L7.5,423.5L7.5,392.5L0,392.5L0,391.5L7.5,391.5L7.5,360.5L0,360.5L0,359.5L71.5,359.5L71.5,264.5L0,264.5L0,263.5L7.5,263.5L7.5,232.5L0,232.5L0,231.5L7.5,231.5L7.5,200.5L0,200.5L0,199.5L7.5,199.5L7.5,168.5L0,168.5L0,167.5L7.5,167.5L7.5,136.5L0,136.5L0,135.5L7.5,135.5L7.5,104.5L0,104.5L0,103.5L7.5,103.5L7.5,72.5L0,72.5L0,71.5L7.5,71.5L7.5,40.5L0,40.5L0,39.5L7.5,39.5L7.5,8.5L0,8.5L0,7.5L7.5,7.5L7.5,0L8.5,0L8.5,71.5L231.5,71.5L231.5,0L232.5,0L232.5,7.5L263.5,7.5L263.5,0L264.5,0L264.5,7.5L295.5,7.5L295.5,0L296.5,0L296.5,7.5L327.5,7.5L327.5,0L328.5,0L328.5,7.5L487.5,7.5L487.5,0L488.5,0L488.5,7.5L519.5,7.5L519.5,0L520.5,0L520.5,39.5L615.5,39.5L615.5,0L616.5,0L616.5,7.5ZM8.5,615.5L39.5,615.5L39.5,584.5L8.5,584.5L8.5,615.5ZM40.5,615.5L71.5,615.5L71.5,584.5L40.5,584.5L40.5,615.5ZM72.5,615.5L103.5,615.5L103.5,584.5L72.5,584.5L72.5,615.5ZM104.5,615.5L135.5,615.5L135.5,584.5L104.5,584.5L104.5,615.5ZM136.5,615.5L167.5,615.5L167.5,584.5L136.5,584.5L136.5,615.5ZM168.5,615.5L199.5,615.5L199.5,584.5L168.5,584.5L168.5,615.5ZM200.5,615.5L231.5,615.5L231.5,584.5L200.5,584.5L200.5,615.5ZM232.5,615.5L263.5,615.5L263.5,584.5L232.5,584.5L232.5,615.5ZM264.5,615.5L295.5,615.5L295.5,584.5L264.5,584.5L264.5,615.5ZM296.5,615.5L327.5,615.5L327.5,584.5L296.5,584.5L296.5,615.5ZM488.5,615.5L519.5,615.5L519.5,584.5L488.5,584.5L488.5,615.5ZM8.5,583.5L71.5,583.5L71.5,552.5L8.5,552.5L8.5,583.5ZM72.5,583.5L103.5,583.5L103.5,552.5L72.5,552.5L72.5,583.5ZM104.5,583.5L135.5,583.5L135.5,552.5L104.5,552.5L104.5,583.5ZM136.5,583.5L167.5,583.5L167.5,552.5L136.5,552.5L136.5,583.5ZM168.5,583.5L199.5,583.5L199.5,552.5L168.5,552.5L168.5,583.5ZM200.5,583.5L231.5,583.5L231.5,552.5L200.5,552.5L200.5,583.5ZM232.5,583.5L263.5,583.5L263.5,552.5L232.5,552.5L232.5,583.5ZM264.5,583.5L295.5,583.5L295.5,552.5L264.5,552.5L264.5,583.5ZM296.5,583.5L327.5,583.5L327.5,552.5L296.5,552.5L296.5,583.5ZM328.5,583.5L359.5,583.5L359.5,552.5L328.5,552.5L328.5,583.5ZM360.5,583.5L391.5,583.5L391.5,552.5L360.5,552.5L360.5,583.5ZM392.5,583.5L423.5,583.5L423.5,552.5L392.5,552.5L392.5,583.5ZM424.5,583.5L455.5,583.5L455.5,552.5L424.5,552.5L424.5,583.5ZM456.5,583.5L487.5,583.5L487.5,552.5L456.5,552.5L456.5,583.5ZM488.5,583.5L519.5,583.5L519.5,552.5L488.5,552.5L488.5,583.5ZM8.5,551.5L39.5,551.5L39.5,520.5L8.5,520.5L8.5,551.5ZM40.5,551.5L71.5,551.5L71.5,520.5L40.5,520.5L40.5,551.5ZM72.5,551.5L103.5,551.5L103.5,520.5L72.5,520.5L72.5,551.5ZM104.5,551.5L135.5,551.5L135.5,520.5L104.5,520.5L104.5,551.5ZM136.5,551.5L167.5,551.5L167.5,520.5L136.5,520.5L136.5,551.5ZM168.5,519.5L176,519.5L176,520.5L168.5,520.5L168.5,551.5L199.5,551.5L199.5,544L200.5,544L200.5,551.5L231.5,551.5L231.5,520.5L224,520.5L224,519.5L231.5,519.5L231.5,488.5L200.5,488.5L200.5,496L199.5,496L199.5,488.5L168.5,488.5L168.5,519.5ZM232.5,551.5L263.5,551.5L263.5,520.5L232.5,520.5L232.5,551.5ZM264.5,551.5L295.5,551.5L295.5,520.5L264.5,520.5L264.5,551.5ZM296.5,551.5L327.5,551.5L327.5,520.5L296.5,520.5L296.5,551.5ZM328.5,551.5L359.5,551.5L359.5,520.5L328.5,520.5L328.5,551.5ZM360.5,551.5L391.5,551.5L391.5,520.5L360.5,520.5L360.5,551.5ZM392.5,551.5L423.5,551.5L423.5,520.5L392.5,520.5L392.5,551.5ZM424.5,551.5L455.5,551.5L455.5,520.5L424.5,520.5L424.5,551.5ZM456.5,551.5L487.5,551.5L487.5,520.5L456.5,520.5L456.5,551.5ZM488.5,551.5L519.5,551.5L519.5,520.5L488.5,520.5L488.5,551.5ZM8.5,519.5L39.5,519.5L39.5,488.5L8.5,488.5L8.5,519.5ZM40.5,519.5L71.5,519.5L71.5,488.5L40.5,488.5L40.5,519.5ZM72.5,519.5L103.5,519.5L103.5,488.5L72.5,488.5L72.5,519.5ZM104.5,519.5L135.5,519.5L135.5,488.5L104.5,488.5L104.5,519.5ZM136.5,519.5L167.5,519.5L167.5,488.5L136.5,488.5L136.5,519.5ZM232.5,519.5L263.5,519.5L263.5,488.5L232.5,488.5L232.5,519.5ZM264.5,519.5L295.5,519.5L295.5,488.5L264.5,488.5L264.5,519.5ZM296.5,519.5L327.5,519.5L327.5,488.5L296.5,488.5L296.5,519.5ZM328.5,519.5L359.5,519.5L359.5,488.5L328.5,488.5L328.5,519.5ZM360.5,519.5L391.5,519.5L391.5,488.5L360.5,488.5L360.5,519.5ZM392.5,519.5L423.5,519.5L423.5,488.5L392.5,488.5L392.5,519.5ZM424.5,519.5L455.5,519.5L455.5,488.5L424.5,488.5L424.5,519.5ZM456.5,519.5L487.5,519.5L487.5,488.5L456.5,488.5L456.5,519.5ZM488.5,519.5L519.5,519.5L519.5,488.5L488.5,488.5L488.5,519.5ZM8.5,487.5L39.5,487.5L39.5,456.5L8.5,456.5L8.5,487.5ZM40.5,487.5L71.5,487.5L71.5,456.5L40.5,456.5L40.5,487.5ZM72.5,487.5L167.5,487.5L167.5,392.5L72.5,392.5L72.5,487.5ZM168.5,487.5L199.5,487.5L199.5,456.5L168.5,456.5L168.5,487.5ZM200.5,487.5L231.5,487.5L231.5,456.5L200.5,456.5L200.5,487.5ZM232.5,487.5L263.5,487.5L263.5,456.5L232.5,456.5L232.5,487.5ZM264.5,487.5L295.5,487.5L295.5,456.5L264.5,456.5L264.5,487.5ZM296.5,487.5L487.5,487.5L487.5,360.5L296.5,360.5L296.5,487.5ZM488.5,487.5L519.5,487.5L519.5,456.5L488.5,456.5L488.5,487.5ZM520.5,487.5L551.5,487.5L551.5,456.5L520.5,456.5L520.5,487.5ZM552.5,487.5L583.5,487.5L583.5,456.5L552.5,456.5L552.5,487.5ZM584.5,487.5L615.5,487.5L615.5,456.5L584.5,456.5L584.5,487.5ZM8.5,455.5L39.5,455.5L39.5,424.5L8.5,424.5L8.5,455.5ZM40.5,455.5L71.5,455.5L71.5,424.5L40.5,424.5L40.5,455.5ZM168.5,455.5L199.5,455.5L199.5,424.5L168.5,424.5L168.5,455.5ZM200.5,455.5L231.5,455.5L231.5,424.5L200.5,424.5L200.5,455.5ZM232.5,455.5L263.5,455.5L263.5,424.5L232.5,424.5L232.5,455.5ZM264.5,455.5L295.5,455.5L295.5,424.5L264.5,424.5L264.5,455.5ZM488.5,455.5L519.5,455.5L519.5,424.5L488.5,424.5L488.5,455.5ZM520.5,455.5L551.5,455.5L551.5,424.5L520.5,424.5L520.5,455.5ZM552.5,455.5L583.5,455.5L583.5,424.5L552.5,424.5L552.5,455.5ZM584.5,455.5L615.5,455.5L615.5,424.5L584.5,424.5L584.5,455.5ZM8.5,423.5L39.5,423.5L39.5,392.5L8.5,392.5L8.5,423.5ZM40.5,423.5L71.5,423.5L71.5,392.5L40.5,392.5L40.5,423.5ZM168.5,423.5L199.5,423.5L199.5,392.5L168.5,392.5L168.5,423.5ZM200.5,423.5L231.5,423.5L231.5,392.5L200.5,392.5L200.5,423.5ZM232.5,423.5L263.5,423.5L263.5,392.5L232.5,392.5L232.5,423.5ZM264.5,423.5L295.5,423.5L295.5,392.5L264.5,392.5L264.5,423.5ZM488.5,423.5L519.5,423.5L519.5,392.5L488.5,392.5L488.5,423.5ZM520.5,423.5L551.5,423.5L551.5,392.5L520.5,392.5L520.5,423.5ZM552.5,423.5L583.5,423.5L583.5,392.5L552.5,392.5L552.5,423.5ZM584.5,423.5L615.5,423.5L615.5,392.5L584.5,392.5L584.5,423.5ZM8.5,391.5L39.5,391.5L39.5,360.5L8.5,360.5L8.5,391.5ZM40.5,391.5L71.5,391.5L71.5,360.5L40.5,360.5L40.5,391.5ZM72.5,391.5L103.5,391.5L103.5,360.5L72.5,360.5L72.5,391.5ZM104.5,391.5L135.5,391.5L135.5,360.5L104.5,360.5L104.5,391.5ZM136.5,391.5L167.5,391.5L167.5,360.5L136.5,360.5L136.5,391.5ZM168.5,391.5L199.5,391.5L199.5,360.5L168.5,360.5L168.5,391.5ZM200.5,391.5L231.5,391.5L231.5,360.5L200.5,360.5L200.5,391.5ZM232.5,391.5L263.5,391.5L263.5,360.5L232.5,360.5L232.5,391.5ZM264.5,391.5L295.5,391.5L295.5,360.5L264.5,360.5L264.5,391.5ZM488.5,391.5L519.5,391.5L519.5,360.5L488.5,360.5L488.5,391.5ZM520.5,391.5L551.5,391.5L551.5,360.5L520.5,360.5L520.5,391.5ZM552.5,391.5L583.5,391.5L583.5,360.5L552.5,360.5L552.5,391.5ZM584.5,391.5L615.5,391.5L615.5,360.5L584.5,360.5L584.5,391.5ZM72.5,359.5L103.5,359.5L103.5,328.5L72.5,328.5L72.5,359.5ZM104.5,359.5L135.5,359.5L135.5,328.5L104.5,328.5L104.5,359.5ZM136.5,359.5L167.5,359.5L167.5,328.5L136.5,328.5L136.5,359.5ZM168.5,359.5L199.5,359.5L199.5,328.5L168.5,328.5L168.5,359.5ZM200.5,359.5L231.5,359.5L231.5,328.5L200.5,328.5L200.5,359.5ZM232.5,359.5L263.5,359.5L263.5,328.5L232.5,328.5L232.5,359.5ZM264.5,359.5L295.5,359.5L295.5,328.5L264.5,328.5L264.5,359.5ZM296.5,359.5L327.5,359.5L327.5,328.5L296.5,328.5L296.5,359.5ZM328.5,359.5L359.5,359.5L359.5,328.5L328.5,328.5L328.5,359.5ZM360.5,359.5L391.5,359.5L391.5,328.5L360.5,328.5L360.5,359.5ZM392.5,359.5L423.5,359.5L423.5,328.5L392.5,328.5L392.5,359.5ZM424.5,359.5L455.5,359.5L455.5,328.5L424.5,328.5L424.5,359.5ZM456.5,359.5L487.5,359.5L487.5,328.5L456.5,328.5L456.5,359.5ZM488.5,359.5L519.5,359.5L519.5,328.5L488.5,328.5L488.5,359.5ZM72.5,327.5L103.5,327.5L103.5,296.5L72.5,296.5L72.5,327.5ZM104.5,327.5L135.5,327.5L135.5,296.5L104.5,296.5L104.5,327.5ZM136.5,327.5L167.5,327.5L167.5,296.5L136.5,296.5L136.5,327.5ZM168.5,327.5L199.5,327.5L199.5,296.5L168.5,296.5L168.5,327.5ZM200.5,327.5L231.5,327.5L231.5,296.5L200.5,296.5L200.5,327.5ZM232.5,327.5L263.5,327.5L263.5,296.5L232.5,296.5L232.5,327.5ZM264.5,327.5L295.5,327.5L295.5,296.5L264.5,296.5L264.5,327.5ZM296.5,327.5L327.5,327.5L327.5,296.5L296.5,296.5L296.5,327.5ZM328.5,327.5L359.5,327.5L359.5,296.5L328.5,296.5L328.5,327.5ZM360.5,327.5L391.5,327.5L391.5,296.5L360.5,296.5L360.5,327.5ZM392.5,327.5L423.5,327.5L423.5,296.5L392.5,296.5L392.5,327.5ZM424.5,327.5L487.5,327.5L487.5,296.5L424.5,296.5L424.5,327.5ZM488.5,327.5L519.5,327.5L519.5,296.5L488.5,296.5L488.5,327.5ZM72.5,295.5L103.5,295.5L103.5,264.5L72.5,264.5L72.5,295.5ZM104.5,295.5L231.5,295.5L231.5,168.5L104.5,168.5L104.5,295.5ZM232.5,295.5L263.5,295.5L263.5,264.5L232.5,264.5L232.5,295.5ZM264.5,295.5L295.5,295.5L295.5,264.5L264.5,264.5L264.5,295.5ZM296.5,295.5L327.5,295.5L327.5,264.5L296.5,264.5L296.5,295.5ZM328.5,295.5L359.5,295.5L359.5,264.5L328.5,264.5L328.5,295.5ZM360.5,295.5L391.5,295.5L391.5,264.5L360.5,264.5L360.5,295.5ZM392.5,295.5L423.5,295.5L423.5,264.5L392.5,264.5L392.5,295.5ZM424.5,295.5L455.5,295.5L455.5,264.5L424.5,264.5L424.5,295.5ZM456.5,295.5L487.5,295.5L487.5,264.5L456.5,264.5L456.5,295.5ZM488.5,295.5L519.5,295.5L519.5,264.5L488.5,264.5L488.5,295.5ZM8.5,263.5L39.5,263.5L39.5,232.5L8.5,232.5L8.5,263.5ZM40.5,263.5L71.5,263.5L71.5,232.5L40.5,232.5L40.5,263.5ZM72.5,263.5L103.5,263.5L103.5,232.5L72.5,232.5L72.5,263.5ZM232.5,263.5L263.5,263.5L263.5,232.5L232.5,232.5L232.5,263.5ZM264.5,263.5L295.5,263.5L295.5,232.5L264.5,232.5L264.5,263.5ZM296.5,263.5L327.5,263.5L327.5,232.5L296.5,232.5L296.5,263.5ZM328.5,263.5L487.5,263.5L487.5,200.5L328.5,200.5L328.5,263.5ZM488.5,263.5L519.5,263.5L519.5,232.5L488.5,232.5L488.5,263.5ZM520.5,263.5L551.5,263.5L551.5,232.5L520.5,232.5L520.5,263.5ZM552.5,263.5L583.5,263.5L583.5,232.5L552.5,232.5L552.5,263.5ZM584.5,263.5L615.5,263.5L615.5,232.5L584.5,232.5L584.5,263.5ZM8.5,231.5L39.5,231.5L39.5,200.5L8.5,200.5L8.5,231.5ZM40.5,231.5L71.5,231.5L71.5,200.5L40.5,200.5L40.5,231.5ZM72.5,231.5L103.5,231.5L103.5,200.5L72.5,200.5L72.5,231.5ZM232.5,231.5L263.5,231.5L263.5,200.5L232.5,200.5L232.5,231.5ZM264.5,231.5L295.5,231.5L295.5,200.5L264.5,200.5L264.5,231.5ZM296.5,231.5L327.5,231.5L327.5,200.5L296.5,200.5L296.5,231.5ZM488.5,231.5L519.5,231.5L519.5,200.5L488.5,200.5L488.5,231.5ZM520.5,231.5L551.5,231.5L551.5,200.5L520.5,200.5L520.5,231.5ZM552.5,231.5L583.5,231.5L583.5,200.5L552.5,200.5L552.5,231.5ZM584.5,231.5L615.5,231.5L615.5,200.5L584.5,200.5L584.5,231.5ZM8.5,199.5L39.5,199.5L39.5,168.5L8.5,168.5L8.5,199.5ZM40.5,199.5L71.5,199.5L71.5,168.5L40.5,168.5L40.5,199.5ZM72.5,199.5L103.5,199.5L103.5,168.5L72.5,168.5L72.5,199.5ZM232.5,199.5L263.5,199.5L263.5,168.5L232.5,168.5L232.5,199.5ZM264.5,199.5L295.5,199.5L295.5,168.5L264.5,168.5L264.5,199.5ZM296.5,199.5L327.5,199.5L327.5,168.5L296.5,168.5L296.5,199.5ZM328.5,199.5L359.5,199.5L359.5,168.5L328.5,168.5L328.5,199.5ZM360.5,199.5L391.5,199.5L391.5,168.5L360.5,168.5L360.5,199.5ZM392.5,199.5L423.5,199.5L423.5,168.5L392.5,168.5L392.5,199.5ZM424.5,199.5L455.5,199.5L455.5,168.5L424.5,168.5L424.5,199.5ZM456.5,199.5L487.5,199.5L487.5,168.5L456.5,168.5L456.5,199.5ZM488.5,199.5L519.5,199.5L519.5,168.5L488.5,168.5L488.5,199.5ZM520.5,199.5L551.5,199.5L551.5,168.5L520.5,168.5L520.5,199.5ZM552.5,199.5L583.5,199.5L583.5,168.5L552.5,168.5L552.5,199.5ZM584.5,199.5L615.5,199.5L615.5,168.5L584.5,168.5L584.5,199.5ZM8.5,167.5L39.5,167.5L39.5,136.5L8.5,136.5L8.5,167.5ZM40.5,167.5L71.5,167.5L71.5,136.5L40.5,136.5L40.5,167.5ZM72.5,167.5L103.5,167.5L103.5,136.5L72.5,136.5L72.5,167.5ZM104.5,167.5L135.5,167.5L135.5,136.5L104.5,136.5L104.5,167.5ZM136.5,167.5L167.5,167.5L167.5,136.5L136.5,136.5L136.5,167.5ZM168.5,167.5L199.5,167.5L199.5,136.5L168.5,136.5L168.5,167.5ZM200.5,167.5L231.5,167.5L231.5,136.5L200.5,136.5L200.5,167.5ZM232.5,167.5L263.5,167.5L263.5,136.5L232.5,136.5L232.5,167.5ZM264.5,167.5L359.5,167.5L359.5,40.5L264.5,40.5L264.5,167.5ZM360.5,167.5L391.5,167.5L391.5,136.5L360.5,136.5L360.5,167.5ZM392.5,167.5L423.5,167.5L423.5,136.5L392.5,136.5L392.5,167.5ZM424.5,167.5L455.5,167.5L455.5,136.5L424.5,136.5L424.5,167.5ZM456.5,167.5L487.5,167.5L487.5,136.5L456.5,136.5L456.5,167.5ZM488.5,167.5L519.5,167.5L519.5,136.5L488.5,136.5L488.5,167.5ZM520.5,167.5L551.5,167.5L551.5,136.5L520.5,136.5L520.5,167.5ZM552.5,167.5L583.5,167.5L583.5,136.5L552.5,136.5L552.5,167.5ZM584.5,167.5L615.5,167.5L615.5,136.5L584.5,136.5L584.5,167.5ZM8.5,135.5L39.5,135.5L39.5,104.5L8.5,104.5L8.5,135.5ZM40.5,135.5L71.5,135.5L71.5,104.5L40.5,104.5L40.5,135.5ZM72.5,135.5L103.5,135.5L103.5,104.5L72.5,104.5L72.5,135.5ZM104.5,135.5L135.5,135.5L135.5,104.5L104.5,104.5L104.5,135.5ZM136.5,135.5L167.5,135.5L167.5,104.5L136.5,104.5L136.5,135.5ZM168.5,135.5L199.5,135.5L199.5,131L200.5,131L200.5,135.5L231.5,135.5L231.5,104.5L200.5,104.5L200.5,109L199.5,109L199.5,104.5L168.5,104.5L168.5,135.5ZM232.5,135.5L263.5,135.5L263.5,104.5L232.5,104.5L232.5,135.5ZM360.5,135.5L391.5,135.5L391.5,104.5L360.5,104.5L360.5,135.5ZM392.5,135.5L423.5,135.5L423.5,104.5L392.5,104.5L392.5,135.5ZM424.5,135.5L455.5,135.5L455.5,104.5L424.5,104.5L424.5,135.5ZM456.5,135.5L487.5,135.5L487.5,104.5L456.5,104.5L456.5,135.5ZM488.5,135.5L519.5,135.5L519.5,104.5L488.5,104.5L488.5,135.5ZM520.5,135.5L551.5,135.5L551.5,104.5L520.5,104.5L520.5,135.5ZM552.5,135.5L583.5,135.5L583.5,104.5L552.5,104.5L552.5,135.5ZM584.5,135.5L615.5,135.5L615.5,104.5L584.5,104.5L584.5,135.5ZM8.5,103.5L39.5,103.5L39.5,72.5L8.5,72.5L8.5,103.5ZM40.5,103.5L71.5,103.5L71.5,72.5L40.5,72.5L40.5,103.5ZM72.5,103.5L103.5,103.5L103.5,72.5L72.5,72.5L72.5,103.5ZM104.5,103.5L135.5,103.5L135.5,72.5L104.5,72.5L104.5,103.5ZM136.5,103.5L167.5,103.5L167.5,72.5L136.5,72.5L136.5,103.5ZM168.5,103.5L199.5,103.5L199.5,72.5L168.5,72.5L168.5,103.5ZM200.5,103.5L231.5,103.5L231.5,72.5L200.5,72.5L200.5,103.5ZM232.5,103.5L263.5,103.5L263.5,72.5L232.5,72.5L232.5,103.5ZM360.5,103.5L391.5,103.5L391.5,72.5L360.5,72.5L360.5,103.5ZM392.5,103.5L487.5,103.5L487.5,40.5L392.5,40.5L392.5,103.5ZM488.5,103.5L519.5,103.5L519.5,72.5L488.5,72.5L488.5,103.5ZM520.5,103.5L551.5,103.5L551.5,72.5L520.5,72.5L520.5,103.5ZM552.5,103.5L583.5,103.5L583.5,72.5L552.5,72.5L552.5,103.5ZM584.5,103.5L615.5,103.5L615.5,72.5L584.5,72.5L584.5,103.5ZM232.5,71.5L263.5,71.5L263.5,40.5L232.5,40.5L232.5,71.5ZM360.5,71.5L391.5,71.5L391.5,40.5L360.5,40.5L360.5,71.5ZM488.5,71.5L519.5,71.5L519.5,40.5L488.5,40.5L488.5,71.5ZM520.5,71.5L551.5,71.5L551.5,40.5L520.5,40.5L520.5,71.5ZM552.5,71.5L583.5,71.5L583.5,40.5L552.5,40.5L552.5,71.5ZM584.5,71.5L615.5,71.5L615.5,40.5L584.5,40.5L584.5,71.5ZM232.5,39.5L263.5,39.5L263.5,8.5L232.5,8.5L232.5,39.5ZM264.5,39.5L295.5,39.5L295.5,8.5L264.5,8.5L264.5,39.5ZM296.5,39.5L327.5,39.5L327.5,8.5L296.5,8.5L296.5,39.5ZM328.5,39.5L359.5,39.5L359.5,8.5L328.5,8.5L328.5,39.5ZM360.5,39.5L391.5,39.5L391.5,8.5L360.5,8.5L360.5,39.5ZM392.5,39.5L423.5,39.5L423.5,8.5L392.5,8.5L392.5,39.5ZM424.5,39.5L455.5,39.5L455.5,8.5L424.5,8.5L424.5,39.5ZM456.5,39.5L487.5,39.5L487.5,8.5L456.5,8.5L456.5,39.5ZM488.5,39.5L519.5,39.5L519.5,8.5L488.5,8.5L488.5,39.5Z" style="fill:rgb(79,61,54);"/>
                <path d="M220,616C226.627,616 232,621.373 232,628L232,640L8,640L8,628C8,621.373 13.373,616 20,616L220,616ZM476,584C482.627,584 488,589.373 488,596L488,636C488,637.403 487.757,638.749 487.314,640L328.686,640C328.243,638.749 328,637.403 328,636L328,596C328,589.373 333.373,584 340,584L476,584ZM604,488C610.627,488 616,493.373 616,500L616,640L520,640L520,500C520,493.373 525.373,488 532,488L604,488ZM56,552C64.837,552 72,559.163 72,568C72,576.837 64.837,584 56,584L24,584C15.163,584 8,576.837 8,568C8,559.163 15.163,552 24,552L56,552ZM216,496C220.418,496 224,499.582 224,504L224,536C224,540.418 220.418,544 216,544L184,544C179.582,544 176,540.418 176,536L176,504C176,499.582 179.582,496 184,496L216,496ZM160,392C164.418,392 168,395.582 168,400L168,464C168,468.418 164.418,472 160,472L136.059,472L121.592,487.371C121.214,487.772 120.687,488 120.136,488L119.864,488C119.313,488 118.786,487.772 118.408,487.371L103.941,472L80,472C75.582,472 72,468.418 72,464L72,400C72,395.582 75.582,392 80,392L160,392ZM476,360C482.627,360 488,365.373 488,372L488,476C488,482.627 482.627,488 476,488L308,488C301.373,488 296,482.627 296,476L296,372C296,365.373 301.373,360 308,360L476,360ZM60,264C66.627,264 72,269.373 72,276L72,348C72,354.627 66.627,360 60,360L0,360L0,264L60,264ZM208,328C212.418,328 216,331.582 216,336L216,352C216,356.418 212.418,360 208,360L112,360C107.582,360 104,356.418 104,352L104,336C104,331.582 107.582,328 112,328L208,328ZM640,360L532,360C525.373,360 520,354.627 520,348L520,276C520,269.373 525.373,264 532,264L640,264L640,360ZM472,296C480.837,296 488,303.163 488,312C488,320.837 480.837,328 472,328L440,328C431.163,328 424,320.837 424,312C424,303.163 431.163,296 440,296L472,296ZM220,168C226.627,168 232,173.373 232,180L232,284C232,290.627 226.627,296 220,296L116,296C109.373,296 104,290.627 104,284L104,180C104,173.373 109.373,168 116,168L220,168ZM476,200C482.627,200 488,205.373 488,212L488,252C488,258.627 482.627,264 476,264L340,264C333.373,264 328,258.627 328,252L328,212C328,205.373 333.373,200 340,200L476,200ZM56,200C64.837,200 72,207.163 72,216C72,224.837 64.837,232 56,232C47.163,232 40,224.837 40,216C40,207.163 47.163,200 56,200ZM280,200.5C288.56,200.5 295.5,207.44 295.5,216C295.5,224.56 288.56,231.5 280,231.5C271.44,231.5 264.5,224.56 264.5,216C264.5,207.44 271.44,200.5 280,200.5ZM0,136C4.418,136 8,139.582 8,144L8,160C8,164.418 4.418,168 0,168L0,136ZM348,40C354.627,40 360,45.373 360,52L360,156C360,162.627 354.627,168 348,168L276,168C269.373,168 264,162.627 264,156L264,52C264,45.373 269.373,40 276,40L348,40ZM416,136C420.418,136 424,139.582 424,144L424,160C424,164.418 420.418,168 416,168L400,168C395.582,168 392,164.418 392,160L392,144C392,139.582 395.582,136 400,136L416,136ZM640,168L464,168C459.582,168 456,164.418 456,160L456,144C456,139.582 459.582,136 464,136L640,136L640,168ZM56,104C64.837,104 72,111.163 72,120C72,128.837 64.837,136 56,136C47.163,136 40,128.837 40,120C40,111.163 47.163,104 56,104ZM200,109C206.075,109 211,113.925 211,120C211,126.075 206.075,131 200,131C193.925,131 189,126.075 189,120C189,113.925 193.925,109 200,109ZM480,40C484.418,40 488,43.582 488,48L488,96C488,100.418 484.418,104 480,104L400,104C395.582,104 392,100.418 392,96L392,48C392,43.582 395.582,40 400,40L480,40ZM597,72.5C603.904,72.5 609.5,78.096 609.5,85C609.5,91.904 603.904,97.5 597,97.5C590.096,97.5 584.5,91.904 584.5,85C584.5,78.096 590.096,72.5 597,72.5ZM548,73C549.688,73 551,74.375 551,76L551,90C551,91.688 549.688,93 548,93L534,93C532.375,93 531,91.688 531,90L531,76C531,74.375 532.375,73 534,73L548,73ZM232,60C232,66.627 226.627,72 220,72L20,72C13.373,72 8,66.627 8,60L8,0L232,0L232,60ZM616,28C616,34.627 610.627,40 604,40L532,40C525.373,40 520,34.627 520,28L520,0L616,0L616,28ZM487.314,0C485.667,4.66 481.225,8 476,8L340,8C334.775,8 330.333,4.66 328.686,0L487.314,0Z" style="fill:none;fill-rule:nonzero;"/>
                <path d="M220,615.5C226.904,615.5 232.5,621.096 232.5,628L232.5,640L231.5,640L231.5,628C231.5,621.649 226.351,616.5 220,616.5L120.5,616.5L120.5,640L119.5,640L119.5,616.5L20,616.5C13.649,616.5 8.5,621.649 8.5,628L8.5,640L7.5,640L7.5,628C7.5,621.096 13.096,615.5 20,615.5L220,615.5ZM108,639.5C108.276,639.5 108.5,639.724 108.5,640L19.5,640C19.5,639.724 19.724,639.5 20,639.5L108,639.5ZM167.646,627.646C167.842,627.451 168.158,627.451 168.354,627.646C168.549,627.842 168.549,628.158 168.354,628.354L156.707,640L155.293,640L167.646,627.646ZM199.646,627.646C199.842,627.451 200.158,627.451 200.354,627.646C200.549,627.842 200.549,628.158 200.354,628.354L188.707,640L187.293,640L199.646,627.646ZM219.646,639.646C219.842,639.451 220.158,639.451 220.354,639.646C220.451,639.744 220.5,639.872 220.5,640L219.293,640L219.646,639.646ZM119.646,519.646C119.842,519.451 120.158,519.451 120.354,519.646L134.354,533.646C134.549,533.842 134.549,534.158 134.354,534.354C134.158,534.549 133.842,534.549 133.646,534.354L120.507,521.215L120.702,552.198C120.811,569.517 134.882,583.5 152.201,583.5L248.5,583.5C266.449,583.5 281,598.051 281,616L281,640L280,640L280,616C280,598.603 265.897,584.5 248.5,584.5L152.201,584.5C134.332,584.5 119.814,570.073 119.702,552.204L119.507,521.2L106.354,534.354C106.158,534.549 105.842,534.549 105.646,534.354C105.451,534.158 105.451,533.842 105.646,533.646L119.646,519.646ZM476,583.5C482.904,583.5 488.5,589.096 488.5,596L488.5,636C488.5,637.399 488.27,638.744 487.846,640L486.784,640C487.246,638.754 487.5,637.407 487.5,636L487.5,596C487.5,589.649 482.351,584.5 476,584.5L340,584.5C333.649,584.5 328.5,589.649 328.5,596L328.5,636C328.5,637.407 328.754,638.754 329.216,640L328.154,640C327.73,638.744 327.5,637.399 327.5,636L327.5,596C327.5,589.096 333.096,583.5 340,583.5L476,583.5ZM604,487.5C610.904,487.5 616.5,493.096 616.5,500L616.5,640L615.5,640L615.5,536.5L520.5,536.5L520.5,640L519.5,640L519.5,500C519.5,493.096 525.096,487.5 532,487.5L604,487.5ZM436,631.5C436.276,631.5 436.5,631.724 436.5,632C436.5,632.276 436.276,632.5 436,632.5L376,632.5C375.724,632.5 375.5,632.276 375.5,632C375.5,631.724 375.724,631.5 376,631.5L436,631.5ZM544,615.5C548.694,615.5 552.5,619.306 552.5,624C552.5,628.694 548.694,632.5 544,632.5C539.306,632.5 535.5,628.694 535.5,624C535.5,619.306 539.306,615.5 544,615.5ZM544,616.5C539.858,616.5 536.5,619.858 536.5,624C536.5,628.142 539.858,631.5 544,631.5C548.142,631.5 551.5,628.142 551.5,624C551.5,619.858 548.142,616.5 544,616.5ZM544,621C545.657,621 547,622.343 547,624C547,625.657 545.657,627 544,627C542.343,627 541,625.657 541,624C541,622.343 542.343,621 544,621ZM600,623.5C600.276,623.5 600.5,623.724 600.5,624C600.5,624.276 600.276,624.5 600,624.5L568,624.5C567.724,624.5 567.5,624.276 567.5,624C567.5,623.724 567.724,623.5 568,623.5L600,623.5ZM352,599.5C352.798,599.5 353.535,599.927 353.931,600.62L361.226,613.388C361.405,613.702 361.5,614.058 361.5,614.42C361.5,615.569 360.569,616.5 359.42,616.5L344.58,616.5C343.431,616.5 342.5,615.569 342.5,614.42C342.5,614.058 342.595,613.702 342.774,613.388L350.069,600.62C350.465,599.927 351.202,599.5 352,599.5ZM472,615.5C472.276,615.5 472.5,615.724 472.5,616C472.5,616.276 472.276,616.5 472,616.5L376,616.5C375.724,616.5 375.5,616.276 375.5,616C375.5,615.724 375.724,615.5 376,615.5L472,615.5ZM352,600.5C351.561,600.5 351.155,600.735 350.938,601.116L343.643,613.884C343.549,614.047 343.5,614.232 343.5,614.42C343.5,615.016 343.984,615.5 344.58,615.5L359.42,615.5C360.016,615.5 360.5,615.016 360.5,614.42C360.5,614.232 360.451,614.047 360.357,613.884L353.062,601.116C352.845,600.735 352.439,600.5 352,600.5ZM460,599.5C460.276,599.5 460.5,599.724 460.5,600C460.5,600.276 460.276,600.5 460,600.5L376,600.5C375.724,600.5 375.5,600.276 375.5,600C375.5,599.724 375.724,599.5 376,599.5L460,599.5ZM544,583.5C548.694,583.5 552.5,587.306 552.5,592C552.5,596.694 548.694,600.5 544,600.5C539.306,600.5 535.5,596.694 535.5,592C535.5,587.306 539.306,583.5 544,583.5ZM544,584.5C539.858,584.5 536.5,587.858 536.5,592C536.5,596.142 539.858,599.5 544,599.5C548.142,599.5 551.5,596.142 551.5,592C551.5,587.858 548.142,584.5 544,584.5ZM600,591.5C600.276,591.5 600.5,591.724 600.5,592C600.5,592.276 600.276,592.5 600,592.5L568,592.5C567.724,592.5 567.5,592.276 567.5,592C567.5,591.724 567.724,591.5 568,591.5L600,591.5ZM56,551.5C65.113,551.5 72.5,558.887 72.5,568C72.5,577.113 65.113,584.5 56,584.5L24,584.5C14.887,584.5 7.5,577.113 7.5,568C7.5,558.887 14.887,551.5 24,551.5L56,551.5ZM24,552.5C15.44,552.5 8.5,559.44 8.5,568C8.5,576.56 15.44,583.5 24,583.5L56,583.5C64.56,583.5 71.5,576.56 71.5,568C71.5,559.44 64.56,552.5 56,552.5L24,552.5ZM24,559.5C28.694,559.5 32.5,563.306 32.5,568C32.5,572.694 28.694,576.5 24,576.5C19.306,576.5 15.5,572.694 15.5,568C15.5,563.306 19.306,559.5 24,559.5ZM24,560.5C19.858,560.5 16.5,563.858 16.5,568C16.5,572.142 19.858,575.5 24,575.5C28.142,575.5 31.5,572.142 31.5,568C31.5,563.858 28.142,560.5 24,560.5ZM544,551.5C548.694,551.5 552.5,555.306 552.5,560C552.5,564.694 548.694,568.5 544,568.5C539.306,568.5 535.5,564.694 535.5,560C535.5,555.306 539.306,551.5 544,551.5ZM544,552.5C539.858,552.5 536.5,555.858 536.5,560C536.5,564.142 539.858,567.5 544,567.5C548.142,567.5 551.5,564.142 551.5,560C551.5,555.858 548.142,552.5 544,552.5ZM600,559.5C600.276,559.5 600.5,559.724 600.5,560C600.5,560.276 600.276,560.5 600,560.5L568,560.5C567.724,560.5 567.5,560.276 567.5,560C567.5,559.724 567.724,559.5 568,559.5L600,559.5ZM279.646,263.646C279.842,263.451 280.158,263.451 280.354,263.646L294.354,277.646C294.549,277.842 294.549,278.158 294.354,278.354C294.158,278.549 293.842,278.549 293.646,278.354L280.5,265.207L280.5,296C280.5,304.56 287.44,311.5 296,311.5L392,311.5C392.276,311.5 392.5,311.724 392.5,312C392.5,312.276 392.276,312.5 392,312.5L280,312.5C262.603,312.5 248.5,326.603 248.5,344L248.5,504C248.5,521.397 262.603,535.5 280,535.5L486.793,535.5L473.646,522.354C473.451,522.158 473.451,521.842 473.646,521.646C473.842,521.451 474.158,521.451 474.354,521.646L488.354,535.646C488.549,535.842 488.549,536.158 488.354,536.354L474.354,550.354C474.158,550.549 473.842,550.549 473.646,550.354C473.451,550.158 473.451,549.842 473.646,549.646L486.793,536.5L280,536.5C262.051,536.5 247.5,521.949 247.5,504L247.5,413.67C245.188,419.99 239.121,424.5 232,424.5L201.207,424.5L214.354,437.646C214.549,437.842 214.549,438.158 214.354,438.354C214.158,438.549 213.842,438.549 213.646,438.354L199.646,424.354C199.451,424.158 199.451,423.842 199.646,423.646L213.646,409.646C213.842,409.451 214.158,409.451 214.354,409.646C214.549,409.842 214.549,410.158 214.354,410.354L201.207,423.5L232,423.5C240.56,423.5 247.5,416.56 247.5,408L247.5,344C247.5,326.051 262.051,311.5 280,311.5L290.33,311.5C284.01,309.188 279.5,303.12 279.5,296L279.5,265.207L266.354,278.354C266.158,278.549 265.842,278.549 265.646,278.354C265.451,278.158 265.451,277.842 265.646,277.646L279.646,263.646ZM216.438,495.511C220.929,495.738 224.5,499.452 224.5,504L224.5,536C224.5,540.694 220.694,544.5 216,544.5L184,544.5C179.452,544.5 175.738,540.929 175.511,536.438L175.5,536L175.5,504C175.5,499.306 179.306,495.5 184,495.5L216,495.5L216.438,495.511ZM184,496.5C179.858,496.5 176.5,499.858 176.5,504L176.5,536L176.51,536.386C176.711,540.349 179.987,543.5 184,543.5L216,543.5C220.142,543.5 223.5,540.142 223.5,536L223.5,504C223.5,499.987 220.349,496.711 216.386,496.51L216,496.5L184,496.5ZM532,488.5C525.649,488.5 520.5,493.649 520.5,500L520.5,535.5L615.5,535.5L615.5,500C615.5,493.649 610.351,488.5 604,488.5L532,488.5ZM200,508.5C206.351,508.5 211.5,513.649 211.5,520C211.5,526.351 206.351,531.5 200,531.5C193.649,531.5 188.5,526.351 188.5,520C188.5,513.649 193.649,508.5 200,508.5ZM200,509.5C194.201,509.5 189.5,514.201 189.5,520C189.5,525.799 194.201,530.5 200,530.5C205.799,530.5 210.5,525.799 210.5,520C210.5,514.201 205.799,509.5 200,509.5ZM8,423.5C25.949,423.5 40.5,438.051 40.5,456L40.5,520C40.5,520.276 40.276,520.5 40,520.5C39.724,520.5 39.5,520.276 39.5,520L39.5,456C39.5,438.603 25.397,424.5 8,424.5L0,424.5L0,423.5L8,423.5ZM548,503.5C550.485,503.5 552.5,505.515 552.5,508L552.5,516C552.5,518.485 550.485,520.5 548,520.5L540,520.5C537.515,520.5 535.5,518.485 535.5,516L535.5,508C535.5,505.515 537.515,503.5 540,503.5L548,503.5ZM540,504.5C538.067,504.5 536.5,506.067 536.5,508L536.5,516C536.5,517.933 538.067,519.5 540,519.5L548,519.5C549.933,519.5 551.5,517.933 551.5,516L551.5,508C551.5,506.067 549.933,504.5 548,504.5L540,504.5ZM600,511.5C600.276,511.5 600.5,511.724 600.5,512C600.5,512.276 600.276,512.5 600,512.5L568,512.5C567.724,512.5 567.5,512.276 567.5,512C567.5,511.724 567.724,511.5 568,511.5L600,511.5ZM160,391.5C164.694,391.5 168.5,395.306 168.5,400L168.5,464C168.5,468.694 164.694,472.5 160,472.5L136.274,472.5L121.956,487.714C121.484,488.216 120.825,488.5 120.136,488.5L119.864,488.5C119.175,488.5 118.516,488.216 118.044,487.714L103.726,472.5L80,472.5C75.306,472.5 71.5,468.694 71.5,464L71.5,400C71.5,395.306 75.306,391.5 80,391.5L160,391.5ZM476,359.5C482.904,359.5 488.5,365.096 488.5,372L488.5,476C488.5,482.904 482.904,488.5 476,488.5L308,488.5C301.096,488.5 295.5,482.904 295.5,476L295.5,372C295.5,365.096 301.096,359.5 308,359.5L476,359.5ZM80,392.5C75.858,392.5 72.5,395.858 72.5,400L72.5,464C72.5,468.142 75.858,471.5 80,471.5L104.157,471.5L104.306,471.657L118.771,487.028C119.055,487.329 119.451,487.5 119.864,487.5L120.136,487.5C120.549,487.5 120.945,487.329 121.229,487.028L135.694,471.657L135.843,471.5L160,471.5C164.142,471.5 167.5,468.142 167.5,464L167.5,400C167.5,395.858 164.142,392.5 160,392.5L80,392.5ZM296.5,476C296.5,482.351 301.649,487.5 308,487.5L391.5,487.5L391.5,408.5L296.5,408.5L296.5,476ZM392.5,487.5L476,487.5C482.351,487.5 487.5,482.351 487.5,476L487.5,408.5L392.5,408.5L392.5,487.5ZM376,459.5C376.276,459.5 376.5,459.724 376.5,460C376.5,460.276 376.276,460.5 376,460.5L312,460.5C311.724,460.5 311.5,460.276 311.5,460C311.5,459.724 311.724,459.5 312,459.5L376,459.5ZM472,459.5C472.276,459.5 472.5,459.724 472.5,460C472.5,460.276 472.276,460.5 472,460.5L408,460.5C407.724,460.5 407.5,460.276 407.5,460C407.5,459.724 407.724,459.5 408,459.5L472,459.5ZM144,447.5C144.276,447.5 144.5,447.724 144.5,448C144.5,448.276 144.276,448.5 144,448.5L96,448.5C95.724,448.5 95.5,448.276 95.5,448C95.5,447.724 95.724,447.5 96,447.5L144,447.5ZM533.646,409.646C533.842,409.451 534.158,409.451 534.354,409.646C534.549,409.842 534.549,410.158 534.354,410.354L521.207,423.5L640,423.5L640,424.5L521.207,424.5L534.354,437.646C534.549,437.842 534.549,438.158 534.354,438.354C534.158,438.549 533.842,438.549 533.646,438.354L519.646,424.354C519.451,424.158 519.451,423.842 519.646,423.646L533.646,409.646ZM376,435.5C376.276,435.5 376.5,435.724 376.5,436C376.5,436.276 376.276,436.5 376,436.5L312,436.5C311.724,436.5 311.5,436.276 311.5,436C311.5,435.724 311.724,435.5 312,435.5L376,435.5ZM472,435.5C472.276,435.5 472.5,435.724 472.5,436C472.5,436.276 472.276,436.5 472,436.5L408,436.5C407.724,436.5 407.5,436.276 407.5,436C407.5,435.724 407.724,435.5 408,435.5L472,435.5ZM152,431.5C152.276,431.5 152.5,431.724 152.5,432C152.5,432.276 152.276,432.5 152,432.5L88,432.5C87.724,432.5 87.5,432.276 87.5,432C87.5,431.724 87.724,431.5 88,431.5L152,431.5ZM152,415.5C152.276,415.5 152.5,415.724 152.5,416C152.5,416.276 152.276,416.5 152,416.5L88,416.5C87.724,416.5 87.5,416.276 87.5,416C87.5,415.724 87.724,415.5 88,415.5L152,415.5ZM308,360.5C301.649,360.5 296.5,365.649 296.5,372L296.5,407.5L487.5,407.5L487.5,372C487.5,365.649 482.351,360.5 476,360.5L308,360.5ZM355.646,375.646C355.842,375.451 356.158,375.451 356.354,375.646L364.354,383.646C364.549,383.842 364.549,384.158 364.354,384.354L356.354,392.354C356.158,392.549 355.842,392.549 355.646,392.354C355.451,392.158 355.451,391.842 355.646,391.646L363.293,384L355.646,376.354C355.451,376.158 355.451,375.842 355.646,375.646ZM419.646,375.646C419.842,375.451 420.158,375.451 420.354,375.646L428.354,383.646C428.549,383.842 428.549,384.158 428.354,384.354L420.354,392.354C420.158,392.549 419.842,392.549 419.646,392.354C419.451,392.158 419.451,391.842 419.646,391.646L427.293,384L419.646,376.354C419.451,376.158 419.451,375.842 419.646,375.646ZM344,383.5C344.276,383.5 344.5,383.724 344.5,384C344.5,384.276 344.276,384.5 344,384.5L312,384.5C311.724,384.5 311.5,384.276 311.5,384C311.5,383.724 311.724,383.5 312,383.5L344,383.5ZM408,383.5C408.276,383.5 408.5,383.724 408.5,384C408.5,384.276 408.276,384.5 408,384.5L376,384.5C375.724,384.5 375.5,384.276 375.5,384C375.5,383.724 375.724,383.5 376,383.5L408,383.5ZM472,383.5C472.276,383.5 472.5,383.724 472.5,384C472.5,384.276 472.276,384.5 472,384.5L440,384.5C439.724,384.5 439.5,384.276 439.5,384C439.5,383.724 439.724,383.5 440,383.5L472,383.5ZM60,263.5C66.904,263.5 72.5,269.096 72.5,276L72.5,348C72.5,354.904 66.904,360.5 60,360.5L0,360.5L0,359.5L60,359.5C66.351,359.5 71.5,354.351 71.5,348L71.5,276C71.5,269.649 66.351,264.5 60,264.5L0,264.5L0,263.5L60,263.5ZM208,327.5C212.694,327.5 216.5,331.306 216.5,336L216.5,352C216.5,356.694 212.694,360.5 208,360.5L112,360.5C107.306,360.5 103.5,356.694 103.5,352L103.5,336C103.5,331.306 107.306,327.5 112,327.5L208,327.5ZM640,264.5L584.5,264.5L584.5,359.5L640,359.5L640,360.5L532,360.5C525.096,360.5 519.5,354.904 519.5,348L519.5,276C519.5,269.096 525.096,263.5 532,263.5L640,263.5L640,264.5ZM112,328.5C107.858,328.5 104.5,331.858 104.5,336L104.5,352C104.5,356.142 107.858,359.5 112,359.5L208,359.5C212.142,359.5 215.5,356.142 215.5,352L215.5,336C215.5,331.858 212.142,328.5 208,328.5L112,328.5ZM555.682,326.525C553.924,328.282 551.076,328.282 549.318,326.525L543.975,321.182C542.608,319.815 540.392,319.815 539.025,321.182L520.5,339.707L520.5,348C520.5,354.351 525.649,359.5 532,359.5L583.5,359.5L583.5,298.707L555.682,326.525ZM199.646,339.646C199.842,339.451 200.158,339.451 200.354,339.646C200.549,339.842 200.549,340.158 200.354,340.354L192.354,348.354C192.158,348.549 191.842,348.549 191.646,348.354L183.646,340.354C183.451,340.158 183.451,339.842 183.646,339.646C183.842,339.451 184.158,339.451 184.354,339.646L192,347.293L199.646,339.646ZM48.5,328.5C52.918,328.5 56.5,332.082 56.5,336.5C56.5,340.918 52.918,344.5 48.5,344.5L15.5,344.5C11.082,344.5 7.5,340.918 7.5,336.5C7.5,332.082 11.082,328.5 15.5,328.5L48.5,328.5ZM162.667,343.5C162.943,343.5 163.167,343.724 163.167,344C163.167,344.276 162.943,344.5 162.667,344.5L120,344.5C119.724,344.5 119.5,344.276 119.5,344C119.5,343.724 119.724,343.5 120,343.5L162.667,343.5ZM15.5,329.5C11.634,329.5 8.5,332.634 8.5,336.5C8.5,340.366 11.634,343.5 15.5,343.5L48.5,343.5C52.366,343.5 55.5,340.366 55.5,336.5C55.5,332.634 52.366,329.5 48.5,329.5L15.5,329.5ZM532,264.5C525.649,264.5 520.5,269.649 520.5,276L520.5,338.293L538.318,320.475C540.076,318.718 542.924,318.718 544.682,320.475L550.025,325.818C551.392,327.185 553.608,327.185 554.975,325.818L583.5,297.293L583.5,264.5L532,264.5ZM472,295.5C481.113,295.5 488.5,302.887 488.5,312C488.5,321.113 481.113,328.5 472,328.5L440,328.5C430.887,328.5 423.5,321.113 423.5,312C423.5,302.887 430.887,295.5 440,295.5L472,295.5ZM440,296.5C431.44,296.5 424.5,303.44 424.5,312C424.5,320.56 431.44,327.5 440,327.5L472,327.5C480.56,327.5 487.5,320.56 487.5,312C487.5,303.44 480.56,296.5 472,296.5L440,296.5ZM472,303.5C476.694,303.5 480.5,307.306 480.5,312C480.5,316.694 476.694,320.5 472,320.5C467.306,320.5 463.5,316.694 463.5,312C463.5,307.306 467.306,303.5 472,303.5ZM472,304.5C467.858,304.5 464.5,307.858 464.5,312C464.5,316.142 467.858,319.5 472,319.5C476.142,319.5 479.5,316.142 479.5,312C479.5,307.858 476.142,304.5 472,304.5ZM56,311.5C56.276,311.5 56.5,311.724 56.5,312C56.5,312.276 56.276,312.5 56,312.5L0,312.5L0,311.5L56,311.5ZM640,312.5L600,312.5C599.724,312.5 599.5,312.276 599.5,312C599.5,311.724 599.724,311.5 600,311.5L640,311.5L640,312.5ZM56,295.5C56.276,295.5 56.5,295.724 56.5,296C56.5,296.276 56.276,296.5 56,296.5L0,296.5L0,295.5L56,295.5ZM220,167.5C226.904,167.5 232.5,173.096 232.5,180L232.5,284C232.5,290.904 226.904,296.5 220,296.5L116,296.5C109.096,296.5 103.5,290.904 103.5,284L103.5,180C103.5,173.096 109.096,167.5 116,167.5L220,167.5ZM544.375,279.5C549.069,279.5 552.875,283.306 552.875,288C552.875,292.694 549.069,296.5 544.375,296.5C539.681,296.5 535.875,292.694 535.875,288C535.875,283.306 539.681,279.5 544.375,279.5ZM640,296.5L600,296.5C599.724,296.5 599.5,296.276 599.5,296C599.5,295.724 599.724,295.5 600,295.5L640,295.5L640,296.5ZM108.23,292.477C110.277,294.353 113.004,295.5 116,295.5L220,295.5C226.351,295.5 231.5,290.351 231.5,284L231.5,180C231.5,177.004 230.353,174.277 228.477,172.23L108.23,292.477ZM544.375,280.5C540.233,280.5 536.875,283.858 536.875,288C536.875,292.142 540.233,295.5 544.375,295.5C548.517,295.5 551.875,292.142 551.875,288C551.875,283.858 548.517,280.5 544.375,280.5ZM116,168.5C109.649,168.5 104.5,173.649 104.5,180L104.5,284C104.5,286.996 105.647,289.723 107.523,291.77L227.77,171.523C225.723,169.647 222.996,168.5 220,168.5L116,168.5ZM8,279.5C8.276,279.5 8.5,279.724 8.5,280C8.5,280.276 8.276,280.5 8,280.5L0,280.5L0,279.5L8,279.5ZM640,280.5L600,280.5C599.724,280.5 599.5,280.276 599.5,280C599.5,279.724 599.724,279.5 600,279.5L640,279.5L640,280.5ZM198,244C199.188,244 200.375,244.125 201.562,244.375C202.188,244.562 202.625,245.062 202.688,245.688C202.75,246.312 202.438,246.938 201.875,247.188C198.125,249.062 195.5,253 195.5,257.5C195.5,264.125 201.312,269.5 207.938,268.938C208.562,268.938 209.188,269.25 209.438,269.875C209.688,270.438 209.562,271.125 209.062,271.562C206.188,274.312 202.312,276 198,276C189.188,276 182,268.812 182,260C182,251.188 189.188,244 198,244ZM198,245C189.75,245 183,251.75 183,260C183,268.312 189.75,275 198,275C202.062,275 205.688,273.438 208.375,270.812C208.562,270.688 208.562,270.438 208.5,270.25C208.438,270.062 208.25,269.938 208,269.938C200.812,270.5 194.5,264.688 194.5,257.5C194.5,252.625 197.312,248.375 201.438,246.312C201.625,246.188 201.75,246 201.688,245.812C201.688,245.562 201.5,245.438 201.312,245.375C200.25,245.125 199.125,245 198,245ZM476,199.5C482.904,199.5 488.5,205.096 488.5,212L488.5,252C488.5,258.904 482.904,264.5 476,264.5L340,264.5C333.096,264.5 327.5,258.904 327.5,252L327.5,212C327.5,205.096 333.096,199.5 340,199.5L476,199.5ZM340,200.5C333.649,200.5 328.5,205.649 328.5,212L328.5,252C328.5,258.351 333.649,263.5 340,263.5L476,263.5C482.351,263.5 487.5,258.351 487.5,252L487.5,212C487.5,205.649 482.351,200.5 476,200.5L340,200.5ZM436,247.5C436.276,247.5 436.5,247.724 436.5,248C436.5,248.276 436.276,248.5 436,248.5L376,248.5C375.724,248.5 375.5,248.276 375.5,248C375.5,247.724 375.724,247.5 376,247.5L436,247.5ZM56,103.5C65.113,103.5 72.5,110.887 72.5,120C72.5,128.945 65.381,136.227 56.5,136.491L56.5,199.508C65.381,199.772 72.5,207.055 72.5,216C72.5,225.113 65.113,232.5 56,232.5C46.887,232.5 39.5,225.113 39.5,216C39.5,207.055 46.619,199.772 55.5,199.508L55.5,136.491C46.619,136.227 39.5,128.945 39.5,120C39.5,110.887 46.887,103.5 56,103.5ZM352,215.5C352.798,215.5 353.535,215.927 353.931,216.62L361.226,229.388C361.405,229.702 361.5,230.058 361.5,230.42C361.5,231.569 360.569,232.5 359.42,232.5L344.58,232.5C343.431,232.5 342.5,231.569 342.5,230.42C342.5,230.058 342.595,229.702 342.774,229.388L350.069,216.62C350.465,215.927 351.202,215.5 352,215.5ZM472,231.5C472.276,231.5 472.5,231.724 472.5,232C472.5,232.276 472.276,232.5 472,232.5L376,232.5C375.724,232.5 375.5,232.276 375.5,232C375.5,231.724 375.724,231.5 376,231.5L472,231.5ZM280,200C288.812,200 296,207.188 296,216C296,224.812 288.812,232 280,232C271.188,232 264,224.812 264,216C264,207.188 271.188,200 280,200ZM56,200.5C47.44,200.5 40.5,207.44 40.5,216C40.5,224.56 47.44,231.5 56,231.5C64.56,231.5 71.5,224.56 71.5,216C71.5,207.44 64.56,200.5 56,200.5ZM352,216.5C351.561,216.5 351.155,216.735 350.938,217.116L343.643,229.884C343.549,230.047 343.5,230.232 343.5,230.42C343.5,231.016 343.984,231.5 344.58,231.5L359.42,231.5C360.016,231.5 360.5,231.016 360.5,230.42C360.5,230.232 360.451,230.047 360.357,229.884L353.062,217.116C352.845,216.735 352.439,216.5 352,216.5ZM278,221C274.125,221 271,224.125 271,228C273.5,229.875 276.625,231 280,231C283.375,231 286.5,229.875 289,228C289,224.125 285.875,221 282,221L278,221ZM1.601,201.646C1.796,201.451 2.112,201.451 2.308,201.646L16.308,215.646C16.503,215.842 16.503,216.158 16.308,216.354L2.308,230.354C2.112,230.549 1.796,230.549 1.601,230.354C1.405,230.158 1.405,229.842 1.601,229.646L14.747,216.5L0,216.5L0,215.5L14.747,215.5L1.601,202.354C1.405,202.158 1.405,201.842 1.601,201.646ZM280,201C271.75,201 265,207.75 265,216C265,220.438 266.938,224.5 270.062,227.188C270.438,223.188 273.875,220 278,220L282,220C286.188,220 289.562,223.188 289.938,227.188C293.062,224.5 295,220.438 295,216C295,207.75 288.312,201 280,201ZM132.125,188.375C132.5,188.188 133.062,188.188 133.5,188.5L139,192.125L144.5,188.5C145,188.188 145.5,188.188 145.875,188.375C146.312,188.562 146.688,188.938 146.812,189.438L148.125,195.938L154.562,197.188C155.125,197.312 155.5,197.688 155.625,198.125C155.812,198.5 155.812,199.062 155.5,199.5L151.875,205L155.5,210.5C155.812,210.938 155.812,211.5 155.625,211.875C155.5,212.312 155.125,212.688 154.562,212.812L148.125,214.125L146.812,220.562C146.688,221.125 146.312,221.438 145.938,221.625C145.5,221.812 145,221.812 144.5,221.5L139,217.875L133.562,221.5C133.062,221.812 132.5,221.812 132.125,221.625C131.75,221.438 131.375,221.125 131.25,220.562L129.938,214.125L123.5,212.812C122.938,212.688 122.562,212.312 122.375,211.875C122.25,211.5 122.25,210.938 122.5,210.5L126.188,205L122.5,199.5C122.188,199.062 122.25,198.5 122.375,198.125C122.562,197.75 122.938,197.312 123.5,197.188L129.938,195.938L131.25,189.438C131.375,188.938 131.75,188.562 132.125,188.375ZM145.5,189.312C145.375,189.25 145.188,189.25 145.062,189.312L139.312,193.188C139.125,193.25 138.938,193.25 138.75,193.188L133,189.312C132.875,189.25 132.688,189.25 132.5,189.312C132.375,189.375 132.25,189.5 132.188,189.688L130.875,196.438C130.812,196.625 130.625,196.812 130.438,196.812L123.688,198.188C123.5,198.25 123.375,198.375 123.312,198.5C123.25,198.625 123.25,198.812 123.375,198.938L127.188,204.75C127.312,204.875 127.312,205.125 127.188,205.25L123.375,211.062C123.25,211.188 123.25,211.375 123.312,211.5C123.375,211.688 123.5,211.75 123.688,211.812L130.438,213.188C130.625,213.25 130.812,213.375 130.875,213.562L132.188,220.375C132.25,220.5 132.375,220.625 132.5,220.688C132.688,220.75 132.812,220.75 133,220.688L138.75,216.812C138.875,216.75 139.125,216.75 139.312,216.812L145.062,220.688C145.188,220.75 145.375,220.75 145.5,220.688C145.688,220.625 145.812,220.5 145.812,220.375L147.188,213.562C147.25,213.375 147.375,213.188 147.562,213.188L154.375,211.812C154.5,211.75 154.625,211.625 154.688,211.5C154.75,211.375 154.75,211.188 154.688,211.062L150.875,205.25C150.75,205.125 150.75,204.875 150.875,204.75L154.688,198.938C154.75,198.812 154.75,198.688 154.688,198.5C154.625,198.375 154.5,198.25 154.375,198.188L147.562,196.812C147.375,196.812 147.25,196.625 147.188,196.438L145.812,189.688C145.812,189.5 145.688,189.375 145.5,189.312ZM280,207C282.75,207 285,209.25 285,212C285,214.75 282.75,217 280,217C277.25,217 275,214.75 275,212C275,209.25 277.25,207 280,207ZM460,215.5C460.276,215.5 460.5,215.724 460.5,216C460.5,216.276 460.276,216.5 460,216.5L376,216.5C375.724,216.5 375.5,216.276 375.5,216C375.5,215.724 375.724,215.5 376,215.5L460,215.5ZM640,216.5L520,216.5C519.724,216.5 519.5,216.276 519.5,216C519.5,215.724 519.724,215.5 520,215.5L640,215.5L640,216.5ZM280,208C277.812,208 276,209.812 276,212C276,214.188 277.812,216 280,216C282.188,216 284,214.188 284,212C284,209.812 282.188,208 280,208ZM139,198C142.875,198 146,201.125 146,205C146,208.875 142.875,212 139,212C135.125,212 132,208.875 132,205C132,201.125 135.125,198 139,198ZM142.062,199.625C142.062,199.625 137.812,198.5 135.938,199.625C134.062,200.75 132.938,202.812 133,205C132.938,207.188 134.062,209.25 135.938,210.375C137.812,211.5 140.188,211.5 142.062,210.375C143.938,209.25 145.062,207.188 145,205C145.062,202.812 142.062,199.625 142.062,199.625ZM0,135.5C4.694,135.5 8.5,139.306 8.5,144L8.5,160C8.5,164.694 4.694,168.5 0,168.5L0,167.5C4.142,167.5 7.5,164.142 7.5,160L7.5,144C7.5,139.858 4.142,136.5 0,136.5L0,135.5ZM348,39.5C354.904,39.5 360.5,45.096 360.5,52L360.5,156C360.5,162.904 354.904,168.5 348,168.5L276,168.5C269.096,168.5 263.5,162.904 263.5,156L263.5,52C263.5,45.096 269.096,39.5 276,39.5L348,39.5ZM416,135.5C420.694,135.5 424.5,139.306 424.5,144L424.5,160C424.5,164.694 420.694,168.5 416,168.5L400,168.5C395.306,168.5 391.5,164.694 391.5,160L391.5,144C391.5,139.306 395.306,135.5 400,135.5L416,135.5ZM640,136.5L584.5,136.5L584.5,167.5L640,167.5L640,168.5L464,168.5C459.306,168.5 455.5,164.694 455.5,160L455.5,144C455.5,139.306 459.306,135.5 464,135.5L640,135.5L640,136.5ZM264.5,156C264.5,162.351 269.649,167.5 276,167.5L348,167.5C354.351,167.5 359.5,162.351 359.5,156L359.5,88.5L264.5,88.5L264.5,156ZM400,136.5C395.858,136.5 392.5,139.858 392.5,144L392.5,160C392.5,164.142 395.858,167.5 400,167.5L416,167.5C420.142,167.5 423.5,164.142 423.5,160L423.5,144C423.5,139.858 420.142,136.5 416,136.5L400,136.5ZM464,136.5C459.858,136.5 456.5,139.858 456.5,144L456.5,160C456.5,164.142 459.858,167.5 464,167.5L519.5,167.5L519.5,136.5L464,136.5ZM520.5,167.5L583.5,167.5L583.5,136.5L520.5,136.5L520.5,167.5ZM414.07,145.244C414.212,145.007 414.519,144.929 414.756,145.07C414.993,145.212 415.071,145.519 414.93,145.756L407.808,157.703C407.321,158.519 406.209,158.683 405.508,158.043L400.663,153.619C400.459,153.433 400.445,153.117 400.631,152.913C400.817,152.709 401.133,152.695 401.337,152.881L406.182,157.304C406.415,157.517 406.786,157.462 406.948,157.19L414.07,145.244ZM292,135.5C294.485,135.5 296.5,137.515 296.5,140L296.5,148C296.5,150.485 294.485,152.5 292,152.5L284,152.5C281.515,152.5 279.5,150.485 279.5,148L279.5,140C279.5,137.515 281.515,135.5 284,135.5L292,135.5ZM504,151.5C504.276,151.5 504.5,151.724 504.5,152C504.5,152.276 504.276,152.5 504,152.5L472,152.5C471.724,152.5 471.5,152.276 471.5,152C471.5,151.724 471.724,151.5 472,151.5L504,151.5ZM568,151.5C568.276,151.5 568.5,151.724 568.5,152C568.5,152.276 568.276,152.5 568,152.5L536,152.5C535.724,152.5 535.5,152.276 535.5,152C535.5,151.724 535.724,151.5 536,151.5L568,151.5ZM632,151.5C632.276,151.5 632.5,151.724 632.5,152C632.5,152.276 632.276,152.5 632,152.5L600,152.5C599.724,152.5 599.5,152.276 599.5,152C599.5,151.724 599.724,151.5 600,151.5L632,151.5ZM284,136.5C282.067,136.5 280.5,138.067 280.5,140L280.5,148C280.5,149.933 282.067,151.5 284,151.5L292,151.5C293.933,151.5 295.5,149.933 295.5,148L295.5,140C295.5,138.067 293.933,136.5 292,136.5L284,136.5ZM344,143.5C344.276,143.5 344.5,143.724 344.5,144C344.5,144.276 344.276,144.5 344,144.5L312,144.5C311.724,144.5 311.5,144.276 311.5,144C311.5,143.724 311.724,143.5 312,143.5L344,143.5ZM56,104.5C47.44,104.5 40.5,111.44 40.5,120C40.5,128.56 47.44,135.5 56,135.5C64.56,135.5 71.5,128.56 71.5,120C71.5,111.44 64.56,104.5 56,104.5ZM200,108.5C206.184,108.5 211.225,113.381 211.487,119.5L232,119.5C232.276,119.5 232.5,119.724 232.5,120C232.5,120.276 232.276,120.5 232,120.5L211.487,120.5C211.225,126.619 206.184,131.5 200,131.5C193.816,131.5 188.775,126.619 188.513,120.5L104,120.5C103.724,120.5 103.5,120.276 103.5,120C103.5,119.724 103.724,119.5 104,119.5L188.513,119.5C188.775,113.381 193.816,108.5 200,108.5ZM200,109.5C194.201,109.5 189.5,114.201 189.5,120C189.5,125.799 194.201,130.5 200,130.5C205.799,130.5 210.5,125.799 210.5,120C210.5,114.201 205.799,109.5 200,109.5ZM292,103.5C294.485,103.5 296.5,105.515 296.5,108L296.5,116C296.5,118.485 294.485,120.5 292,120.5L284,120.5C281.515,120.5 279.5,118.485 279.5,116L279.5,108C279.5,105.515 281.515,103.5 284,103.5L292,103.5ZM284,104.5C282.067,104.5 280.5,106.067 280.5,108L280.5,116C280.5,117.933 282.067,119.5 284,119.5L292,119.5C293.933,119.5 295.5,117.933 295.5,116L295.5,108C295.5,106.067 293.933,104.5 292,104.5L284,104.5ZM344,111.5C344.276,111.5 344.5,111.724 344.5,112C344.5,112.276 344.276,112.5 344,112.5L312,112.5C311.724,112.5 311.5,112.276 311.5,112C311.5,111.724 311.724,111.5 312,111.5L344,111.5ZM480,39.5C484.694,39.5 488.5,43.306 488.5,48L488.5,96C488.5,100.694 484.694,104.5 480,104.5L400,104.5C395.306,104.5 391.5,100.694 391.5,96L391.5,48C391.5,43.306 395.306,39.5 400,39.5L480,39.5ZM597,72C604.188,72 610,77.812 610,85C610,88.437 608.688,91.5 606.562,93.812L615.875,103.125C616.062,103.312 616.062,103.688 615.875,103.875C615.688,104.062 615.312,104.062 615.125,103.875L605.812,94.562C603.5,96.687 600.438,98 597,98C589.812,98 584,92.187 584,85C584,77.812 589.812,72 597,72ZM527,83L524,83C522.375,83 521,84.375 521,86L521,100C521,101.688 522.375,103 524,103L538,103C539.688,103 541,101.688 541,100L541,97L542,97L542,100C542,102.188 540.188,104 538,104L524,104C521.812,104 520,102.188 520,100L520,86C520,83.812 521.812,82 524,82L527,82L527,83ZM392.5,96C392.5,100.142 395.858,103.5 400,103.5L480,103.5C484.142,103.5 487.5,100.142 487.5,96L487.5,72.5L392.5,72.5L392.5,96ZM597,73C590.375,73 585,78.375 585,85C585,91.625 590.375,97 597,97C603.625,97 609,91.625 609,85C609,78.375 603.625,73 597,73ZM548,72C550.188,72 552,73.812 552,76L552,90C552,92.187 550.188,94 548,94L534,94C531.812,94 530,92.187 530,90L530,76C530,73.812 531.812,72 534,72L548,72ZM534,73C532.375,73 531,74.375 531,76L531,90C531,91.687 532.375,93 534,93L548,93C549.688,93 551,91.687 551,90L551,76C551,74.375 549.688,73 548,73L534,73ZM472,87.5C472.276,87.5 472.5,87.724 472.5,88C472.5,88.276 472.276,88.5 472,88.5L408,88.5C407.724,88.5 407.5,88.276 407.5,88C407.5,87.724 407.724,87.5 408,87.5L472,87.5ZM276,40.5C269.649,40.5 264.5,45.649 264.5,52L264.5,87.5L359.5,87.5L359.5,52C359.5,45.649 354.351,40.5 348,40.5L276,40.5ZM8.5,60C8.5,66.351 13.649,71.5 20,71.5L119.5,71.5L119.5,34.487C113.933,34.226 109.5,29.631 109.5,24C109.5,18.369 113.933,13.773 119.5,13.512L119.5,-0L120.5,-0L120.5,13.512C126.067,13.773 130.5,18.369 130.5,24C130.5,29.631 126.067,34.226 120.5,34.487L120.5,71.5L220,71.5C226.351,71.5 231.5,66.351 231.5,60L231.5,-0L232.5,-0L232.5,60C232.5,66.904 226.904,72.5 220,72.5L20,72.5C13.096,72.5 7.5,66.904 7.5,60L7.5,-0L8.5,-0L8.5,60ZM292,55.5C294.485,55.5 296.5,57.515 296.5,60L296.5,68C296.5,70.485 294.485,72.5 292,72.5L284,72.5C281.515,72.5 279.5,70.485 279.5,68L279.5,60C279.5,57.515 281.515,55.5 284,55.5L292,55.5ZM284,56.5C282.067,56.5 280.5,58.067 280.5,60L280.5,68C280.5,69.933 282.067,71.5 284,71.5L292,71.5C293.933,71.5 295.5,69.933 295.5,68L295.5,60C295.5,58.067 293.933,56.5 292,56.5L284,56.5ZM400,40.5C395.858,40.5 392.5,43.858 392.5,48L392.5,71.5L487.5,71.5L487.5,48C487.5,43.858 484.142,40.5 480,40.5L400,40.5ZM344,63.5C344.276,63.5 344.5,63.724 344.5,64C344.5,64.276 344.276,64.5 344,64.5L312,64.5C311.724,64.5 311.5,64.276 311.5,64C311.5,63.724 311.724,63.5 312,63.5L344,63.5ZM220.5,-0C220.5,0.128 220.451,0.256 220.354,0.354L160.354,60.353C160.158,60.549 159.842,60.549 159.646,60.353C159.451,60.158 159.451,59.842 159.646,59.646L219.293,-0L220.5,-0ZM219.646,31.646C219.842,31.451 220.158,31.451 220.354,31.646C220.549,31.842 220.549,32.158 220.354,32.353L192.354,60.353C192.158,60.549 191.842,60.549 191.646,60.353C191.451,60.158 191.451,59.842 191.646,59.646L219.646,31.646ZM132.354,56.353C132.158,56.549 131.842,56.549 131.646,56.353C131.451,56.158 131.451,55.842 131.646,55.646L187.293,-0L188.707,-0L132.354,56.353ZM472,55.5C472.276,55.5 472.5,55.724 472.5,56C472.5,56.276 472.276,56.5 472,56.5L408,56.5C407.724,56.5 407.5,56.276 407.5,56C407.5,55.724 407.724,55.5 408,55.5L472,55.5ZM108,47.5C108.276,47.5 108.5,47.724 108.5,48C108.5,48.276 108.276,48.5 108,48.5L20,48.5C19.724,48.5 19.5,48.276 19.5,48C19.5,47.724 19.724,47.5 20,47.5L108,47.5ZM520.5,28C520.5,34.351 525.649,39.5 532,39.5L604,39.5C610.351,39.5 615.5,34.351 615.5,28L615.5,-0L616.5,-0L616.5,28C616.5,34.904 610.904,40.5 604,40.5L532,40.5C525.096,40.5 519.5,34.904 519.5,28L519.5,-0L520.5,-0L520.5,28ZM120,14.5C114.753,14.5 110.5,18.753 110.5,24C110.5,29.247 114.753,33.5 120,33.5C125.247,33.5 129.5,29.247 129.5,24C129.5,18.753 125.247,14.5 120,14.5ZM98,23.5C98.276,23.5 98.5,23.724 98.5,24C98.5,24.276 98.276,24.5 98,24.5L20,24.5C19.724,24.5 19.5,24.276 19.5,24C19.5,23.724 19.724,23.5 20,23.5L98,23.5ZM544,7.5C548.694,7.5 552.5,11.306 552.5,16C552.5,20.694 548.694,24.5 544,24.5C539.306,24.5 535.5,20.694 535.5,16C535.5,11.306 539.306,7.5 544,7.5ZM544,8.5C539.858,8.5 536.5,11.858 536.5,16C536.5,20.142 539.858,23.5 544,23.5C548.142,23.5 551.5,20.142 551.5,16C551.5,11.858 548.142,8.5 544,8.5ZM600,15.5C600.276,15.5 600.5,15.724 600.5,16C600.5,16.276 600.276,16.5 600,16.5L568,16.5C567.724,16.5 567.5,16.276 567.5,16C567.5,15.724 567.724,15.5 568,15.5L600,15.5ZM141.354,15.353C141.158,15.549 140.842,15.549 140.646,15.353C140.451,15.158 140.451,14.842 140.646,14.646L155.293,-0L156.707,-0L141.354,15.353ZM329.216,-0C330.841,4.379 335.055,7.5 340,7.5L476,7.5C480.945,7.5 485.159,4.379 486.784,-0L487.846,-0C486.178,4.942 481.505,8.5 476,8.5L340,8.5C334.495,8.5 329.822,4.942 328.154,-0L329.216,-0ZM108.5,-0C108.5,0.276 108.276,0.5 108,0.5L20,0.5C19.724,0.5 19.5,0.276 19.5,-0L108.5,-0Z" style="fill:none;stroke:rgb(201,160,144);stroke-width:1px;"/>
            </g>
        </g>
    </g>
</svg>
