<svg class="awesome-logo logo-build-awesome" width="13" height="17" viewBox="0 0 13 17" fill="none" xmlns="http://www.w3.org/2000/svg">
<path class="logo-icon" fill-rule="evenodd" clip-rule="evenodd" fill="var(--logo-icon-fill, #00A776)" d="M6.5 0C10.0899 0 13 2.91015 13 6.5C13 9.44456 10.7048 12.6026 8.1748 13.6436L8.92871 15.3398C8.97555 15.4452 8.99996 15.5595 9 15.6748C9 16.1304 8.6304 16.5 8.1748 16.5H4.8252C4.3696 16.5 4 16.1304 4 15.6748C4.00004 15.5595 4.02445 15.4452 4.07129 15.3398L4.82422 13.6436C2.29453 12.6023 0 9.44424 0 6.5C0 2.91015 2.91015 0 6.5 0ZM6.48145 2.67578C6.39847 2.27028 6.00231 2.00723 5.59668 2.08984C3.63935 2.48906 2.14443 4.15796 2.00977 6.2002C1.9826 6.61338 2.29586 6.97067 2.70898 6.99805C3.12215 7.02501 3.47869 6.71203 3.50586 6.29883C3.59546 4.94016 4.59266 3.82652 5.89648 3.56055C6.30214 3.47777 6.56392 3.08146 6.48145 2.67578Z"/>
</svg>
