<svg version="1.1" id="Logo-Svelte--Streamline-Carbon" xmlns="http://www.w3.org/2000/svg" xmlns:xlink="http://www.w3.org/1999/xlink" x="0" y="0" viewBox="0 0 16 16" xml:space="preserve" enable-background="new 0 0 32 32" height="16" width="16">
  <path d="M13.05 2.85C11.75 1 9.2 0.45 7.35 1.6L4.1 3.7c-0.9 0.55 -1.5 1.45 -1.7 2.5 -0.15 0.85 0 1.75 0.4 2.55 -0.3 0.4 -0.45 0.9 -0.55 1.4 -0.2 1.05 0.05 2.15 0.7 3 1.3 1.85 3.85 2.4 5.7 1.25l3.25 -2.1c0.9 -0.55 1.5 -1.45 1.7 -2.5 0.15 -0.85 0 -1.75 -0.4 -2.55 0.3 -0.4 0.45 -0.9 0.55 -1.4 0.2 -1.05 -0.05 -2.15 -0.7 -3zM12.15 5.5c0 0.1 -0.05 0.2 -0.1 0.3l-0.05 0.2 -0.15 -0.1c-0.4 -0.3 -0.8 -0.5 -1.3 -0.65l-0.1 -0.05 0 -0.1c0 -0.15 -0.05 -0.35 -0.15 -0.5 -0.2 -0.25 -0.5 -0.4 -0.85 -0.3 -0.05 0 -0.15 0.05 -0.2 0.1L6 6.45c-0.15 0.1 -0.25 0.25 -0.3 0.45 -0.05 0.2 0 0.4 0.1 0.55 0.2 0.25 0.5 0.4 0.85 0.3 0.05 0 0.15 -0.05 0.2 -0.1l1.25 -0.8c0.2 -0.15 0.45 -0.25 0.65 -0.3 1.05 -0.25 2.15 0.15 2.8 1.05 0.35 0.5 0.5 1.2 0.4 1.8 -0.1 0.6 -0.5 1.15 -1 1.5L7.7 13c-0.2 0.15 -0.45 0.25 -0.65 0.3 -1.05 0.25 -2.15 -0.15 -2.8 -1.05 -0.35 -0.5 -0.5 -1.2 -0.4 -1.8 0 -0.1 0.05 -0.2 0.1 -0.3L4 10l0.15 0.1c0.4 0.3 0.8 0.5 1.3 0.65l0.1 0.05 0 0.1c0 0.15 0.05 0.35 0.15 0.5 0.2 0.25 0.5 0.4 0.85 0.3 0.05 0 0.15 -0.05 0.2 -0.1L10 9.5c0.15 -0.1 0.25 -0.25 0.3 -0.45 0.05 -0.2 0 -0.4 -0.1 -0.55 -0.2 -0.25 -0.5 -0.4 -0.85 -0.3 -0.05 0 -0.15 0.05 -0.2 0.1l-1.25 0.8c-0.2 0.15 -0.45 0.25 -0.65 0.3 -1.05 0.25 -2.15 -0.15 -2.8 -1.05 -0.4 -0.5 -0.5 -1.2 -0.4 -1.8 0.1 -0.6 0.5 -1.15 1 -1.5l3.25 -2.1c0.2 -0.15 0.45 -0.25 0.65 -0.3 1.05 -0.25 2.15 0.15 2.8 1.05 0.35 0.55 0.5 1.2 0.4 1.8z" fill="currentColor" stroke-width="0.5"></path>
  <path id="_x3C_Transparent_Rectangle_x3E__363_" d="M0 0h16v16H0Z" fill="none" stroke-width="0.5"></path>
</svg>
