<svg width="64" height="64" viewBox="0 0 64 64" fill="none" xmlns="http://www.w3.org/2000/svg">
<circle cx="32" cy="32" r="31" fill="white" stroke="#E4E5E9" stroke-width="2"/>
<path d="M31.5 32C29.3438 32 27.375 30.875 26.2969 29C25.2188 27.1719 25.2188 24.875 26.2969 23C27.375 21.1719 29.3438 20 31.5 20C33.6094 20 35.5781 21.1719 36.6562 23C37.7344 24.875 37.7344 27.1719 36.6562 29C35.5781 30.875 33.6094 32 31.5 32ZM29.3438 34.25H33.6094C38.25 34.25 42 38 42 42.6406C42 43.3906 41.3438 44 40.5938 44H22.3594C21.6094 44 21 43.3906 21 42.6406C21 38 24.7031 34.25 29.3438 34.25Z" fill="#717584"/>
</svg>
