<svg width="81" height="12" viewBox="0 0 81 12" fill="none" xmlns="http://www.w3.org/2000/svg">
<path d="M6 1.25C7.5 1.25 12 2 12 5C12 5.84375 11.3203 6.5 10.5 6.5V10.625C10.5 11.2578 9.98438 11.75 9.375 11.75H2.625C1.99219 11.75 1.5 11.2578 1.5 10.625V6.5C0.65625 6.5 0 5.84375 0 5C0 2 4.5 1.25 6 1.25Z" fill="#0070EF"/>
<path d="M27.5156 5.98438C27.8203 6.26562 27.8203 6.75781 27.5156 7.03906L23.0156 11.5391C22.7344 11.8438 22.2422 11.8438 21.9609 11.5391C21.6562 11.2578 21.6562 10.7656 21.9609 10.4844L25.9219 6.5L21.9609 2.53906C21.6562 2.25781 21.6562 1.76562 21.9609 1.48438C22.2422 1.17969 22.7344 1.17969 23.0156 1.48438L27.5156 5.98438Z" fill="#717584"/>
<path d="M42.8008 4.04297C41.5703 2.83203 39.7539 2.83203 38.5234 4.04297C37.3125 5.27344 37.3125 7.24609 38.5234 8.47656C39.7539 9.6875 41.5703 9.6875 42.8008 8.47656C43.0352 8.22266 43.4258 8.22266 43.6797 8.47656C43.9141 8.71094 43.9141 9.10156 43.6797 9.35547C41.9609 11.0547 39.3633 11.0547 37.6445 9.35547C35.9453 7.63672 35.9453 4.88281 37.6445 3.16406C39.3633 1.46484 41.9609 1.46484 43.6797 3.16406C43.9141 3.41797 43.9141 3.80859 43.6797 4.04297C43.4258 4.29688 43.0352 4.29688 42.8008 4.04297ZM47.125 1.875H49.3125C50.8555 1.875 52.125 3.14453 52.125 4.6875C52.125 5.87891 51.3828 6.89453 50.3672 7.30469L52.0078 9.64844C52.2031 9.94141 52.125 10.332 51.8516 10.5273C51.5586 10.7227 51.168 10.6445 50.9727 10.3711L48.9805 7.5H47.125V10C47.125 10.3516 46.832 10.625 46.5 10.625C46.1484 10.625 45.875 10.3516 45.875 10V6.875V3.125C45.875 2.44141 46.4219 1.875 47.125 1.875ZM49.3125 6.25C50.1719 6.25 50.875 5.56641 50.875 4.6875C50.875 3.82812 50.1719 3.125 49.3125 3.125H47.125V6.25H49.3125ZM54.75 1.875C55.082 1.875 55.375 2.16797 55.375 2.5V6.875C55.375 8.26172 56.4883 9.375 57.875 9.375C59.2422 9.375 60.375 8.26172 60.375 6.875V2.5C60.375 2.16797 60.6484 1.875 61 1.875C61.332 1.875 61.625 2.16797 61.625 2.5V6.875C61.625 8.94531 59.9453 10.625 57.875 10.625C55.8047 10.625 54.125 8.94531 54.125 6.875V2.5C54.125 2.16797 54.3984 1.875 54.75 1.875ZM64.0547 1.91406C64.3281 1.83594 64.6016 1.93359 64.7578 2.16797L68 7.01172L71.2227 2.16797C71.3789 1.93359 71.6523 1.83594 71.9258 1.91406C72.1797 1.99219 72.375 2.22656 72.375 2.5V10C72.375 10.3516 72.082 10.625 71.75 10.625C71.3984 10.625 71.125 10.3516 71.125 10V4.57031L68.5078 8.47656C68.3906 8.65234 68.1953 8.75 68 8.75C67.7852 8.75 67.5898 8.65234 67.4727 8.47656L64.875 4.57031V10C64.875 10.3516 64.582 10.625 64.25 10.625C63.8984 10.625 63.625 10.3516 63.625 10V2.5C63.625 2.22656 63.8008 1.99219 64.0547 1.91406ZM75.625 1.875H77.5C78.8672 1.875 80 3.00781 80 4.375C80 5 79.7656 5.54688 79.4141 5.99609C80.1367 6.42578 80.625 7.22656 80.625 8.125C80.625 9.51172 79.4922 10.625 78.125 10.625H75.625C74.9219 10.625 74.375 10.0781 74.375 9.375V6.25V3.125C74.375 2.44141 74.9219 1.875 75.625 1.875ZM77.5 5.625C78.1836 5.625 78.75 5.07812 78.75 4.375C78.75 3.69141 78.1836 3.125 77.5 3.125H75.625V5.625H77.5ZM75.625 6.875V9.375H78.125C78.8086 9.375 79.375 8.82812 79.375 8.125C79.375 7.44141 78.8086 6.875 78.125 6.875H77.5H75.625Z" fill="#717584"/>
</svg>
