<svg width="112" height="16" viewBox="0 0 112 16" fill="none" xmlns="http://www.w3.org/2000/svg">
<path d="M18.2687 8C18.2687 8.5625 17.8 9 17.2687 9H16.2687L16.3 14C16.3 14.0938 16.3 14.1875 16.3 14.25V14.75C16.3 15.4688 15.7375 16 15.05 16H14.55C14.4875 16 14.4562 16 14.425 16C14.3937 16 14.3312 16 14.3 16H13.3H12.55C11.8312 16 11.3 15.4688 11.3 14.75V14V12C11.3 11.4688 10.8312 11 10.3 11H8.3C7.7375 11 7.3 11.4688 7.3 12V14V14.75C7.3 15.4688 6.7375 16 6.05 16H5.3H4.3C4.2375 16 4.20625 16 4.14375 16C4.1125 16 4.08125 16 4.05 16H3.55C2.83125 16 2.3 15.4688 2.3 14.75V11.25C2.3 11.25 2.3 11.2188 2.3 11.1875V9H1.3C0.737499 9 0.299999 8.5625 0.299999 8C0.299999 7.71875 0.393749 7.46875 0.612499 7.25L8.6125 0.25C8.83125 0.03125 9.08125 0 9.3 0C9.51875 0 9.76875 0.0625 9.95625 0.21875L17.925 7.25C18.175 7.46875 18.3 7.71875 18.2687 8Z" fill="#0070EF"/>
<path d="M40.3875 7.3125C40.7937 7.6875 40.7937 8.34375 40.3875 8.71875L34.3875 14.7188C34.0125 15.125 33.3562 15.125 32.9812 14.7188C32.575 14.3438 32.575 13.6875 32.9812 13.3125L38.2625 8L32.9812 2.71875C32.575 2.34375 32.575 1.6875 32.9812 1.3125C33.3562 0.90625 34.0125 0.90625 34.3875 1.3125L40.3875 7.3125Z" fill="#717584"/>
<rect x="51" y="4" width="61" height="8" rx="4" fill="#717584"/>
</svg>
