<svg width="96" height="48" viewBox="0 0 96 48" fill="none" xmlns="http://www.w3.org/2000/svg">
<path d="M12 1H84C90.0751 1 95 5.92487 95 12V36C95 42.0751 90.0751 47 84 47H12C5.92487 47 1 42.0751 1 36V12C1 5.92487 5.92487 1 12 1Z" fill="white"/>
<path d="M12 1H84C90.0751 1 95 5.92487 95 12V36C95 42.0751 90.0751 47 84 47H12C5.92487 47 1 42.0751 1 36V12C1 5.92487 5.92487 1 12 1Z" stroke="#E4E5E9" stroke-width="2"/>
<path d="M24 32C21.125 32 18.5 30.5 17.0625 28C15.625 25.5312 15.625 22.5 17.0625 20C18.5 17.5312 21.125 16 24 16C26.8438 16 29.4688 17.5312 30.9062 20C32.3438 22.5 32.3438 25.5312 30.9062 28C29.4688 30.5 26.8438 32 24 32ZM22.75 26.5C22.3125 26.5 22 26.8438 22 27.25C22 27.6875 22.3125 28 22.75 28H25.25C25.6562 28 26 27.6875 26 27.25C26 26.8438 25.6562 26.5 25.25 26.5H25V23.75C25 23.3438 24.6562 23 24.25 23H22.75C22.3125 23 22 23.3438 22 23.75C22 24.1875 22.3125 24.5 22.75 24.5H23.5V26.5H22.75ZM24 20C23.4375 20 23 20.4688 23 21C23 21.5625 23.4375 22 24 22C24.5312 22 25 21.5625 25 21C25 20.4688 24.5312 20 24 20Z" fill="#717584"/>
<rect x="40" y="20" width="40" height="8" rx="4" fill="#717584"/>
</svg>
