<svg width="96" height="48" viewBox="0 0 96 48" fill="none" xmlns="http://www.w3.org/2000/svg">
<path d="M12 1H84C90.0751 1 95 5.92487 95 12V36C95 42.0751 90.0751 47 84 47H12C5.92487 47 1 42.0751 1 36V12C1 5.92487 5.92487 1 12 1Z" fill="white"/>
<path d="M12 1H84C90.0751 1 95 5.92487 95 12V36C95 42.0751 90.0751 47 84 47H12C5.92487 47 1 42.0751 1 36V12C1 5.92487 5.92487 1 12 1Z" stroke="#E4E5E9" stroke-width="2"/>
<path d="M20 32C17.125 32 14.5 30.5 13.0625 28C11.625 25.5312 11.625 22.5 13.0625 20C14.5 17.5312 17.125 16 20 16C22.8438 16 25.4688 17.5312 26.9062 20C28.3438 22.5 28.3438 25.5312 26.9062 28C25.4688 30.5 22.8438 32 20 32ZM18.75 26.5C18.3125 26.5 18 26.8438 18 27.25C18 27.6875 18.3125 28 18.75 28H21.25C21.6562 28 22 27.6875 22 27.25C22 26.8438 21.6562 26.5 21.25 26.5H21V23.75C21 23.3438 20.6562 23 20.25 23H18.75C18.3125 23 18 23.3438 18 23.75C18 24.1875 18.3125 24.5 18.75 24.5H19.5V26.5H18.75ZM20 20C19.4375 20 19 20.4688 19 21C19 21.5625 19.4375 22 20 22C20.5312 22 21 21.5625 21 21C21 20.4688 20.5312 20 20 20Z" fill="#717584"/>
<rect x="36" y="16" width="48" height="4" rx="2" fill="#717584"/>
<rect x="36" y="28" width="48" height="4" rx="2" fill="#717584"/>
</svg>
