<svg width="114" height="48" viewBox="0 0 114 48" fill="none" xmlns="http://www.w3.org/2000/svg">
<path d="M100 12V36C100 42.0751 95.0751 47 89 47C82.9249 47 78 42.0751 78 36V12C78 5.92487 82.9249 1 89 1C95.0751 1 100 5.92487 100 12Z" fill="white" stroke="#E4E5E9" stroke-width="2"/>
<path d="M36 12V36C36 42.0751 31.0751 47 25 47C18.9249 47 14 42.0751 14 36V12C14 5.92487 18.9249 1 25 1C31.0751 1 36 5.92487 36 12Z" fill="white" stroke="#E4E5E9" stroke-width="2"/>
<path d="M53 1H61C67.0751 1 72 5.92487 72 12V36C72 42.0751 67.0751 47 61 47H53C46.9249 47 42 42.0751 42 36V12C42 5.92487 46.9249 1 53 1Z" fill="white" stroke="#E4E5E9" stroke-width="2"/>
<path d="M112.766 23.9844C113.07 24.2656 113.07 24.7578 112.766 25.0391L108.266 29.5391C107.984 29.8438 107.492 29.8438 107.211 29.5391C106.906 29.2578 106.906 28.7656 107.211 28.4844L111.172 24.5L107.211 20.5391C106.906 20.2578 106.906 19.7656 107.211 19.4844C107.492 19.1797 107.984 19.1797 108.266 19.4844L112.766 23.9844Z" fill="#717584"/>
<path d="M1.21094 23.9844L5.71094 19.4844C5.99219 19.1797 6.48438 19.1797 6.76562 19.4844C7.07031 19.7656 7.07031 20.2578 6.76562 20.5391L2.80469 24.5L6.76562 28.4844C7.07031 28.7656 7.07031 29.2578 6.76562 29.5391C6.48438 29.8438 5.99219 29.8438 5.71094 29.5391L1.21094 25.0391C0.90625 24.7578 0.90625 24.2656 1.21094 23.9844Z" fill="#717584"/>
</svg>
