<svg width="71" height="36" viewBox="0 0 71 36" fill="none" xmlns="http://www.w3.org/2000/svg">
<path d="M0 23C0 21.3431 1.34315 20 3 20H13C14.6569 20 16 21.3431 16 23V33C16 34.6569 14.6569 36 13 36H3C1.34315 36 0 34.6569 0 33V23Z" fill="#0070EF"/>
<path d="M3 1H13C14.1046 1 15 1.89543 15 3V13C15 14.1046 14.1046 15 13 15H3C1.89543 15 1 14.1046 1 13V3C1 1.89543 1.89543 1 3 1Z" fill="white" stroke="#E4E5E9" stroke-width="2"/>
<path d="M12.5977 24.6523C12.877 24.9102 12.877 25.3613 12.5977 25.6191L7.09766 31.1191C6.83984 31.3984 6.38867 31.3984 6.13086 31.1191L3.38086 28.3691C3.10156 28.1113 3.10156 27.6602 3.38086 27.4023C3.63867 27.123 4.08984 27.123 4.34766 27.4023L6.625 29.6582L11.6309 24.6523C11.8887 24.373 12.3398 24.373 12.5977 24.6523Z" fill="white"/>
<path d="M30.4258 6.04297C29.1953 4.83203 27.3789 4.83203 26.1484 6.04297C24.9375 7.27344 24.9375 9.24609 26.1484 10.4766C27.3789 11.6875 29.1953 11.6875 30.4258 10.4766C30.6602 10.2227 31.0508 10.2227 31.3047 10.4766C31.5391 10.7109 31.5391 11.1016 31.3047 11.3555C29.5859 13.0547 26.9883 13.0547 25.2695 11.3555C23.5703 9.63672 23.5703 6.88281 25.2695 5.16406C26.9883 3.46484 29.5859 3.46484 31.3047 5.16406C31.5391 5.41797 31.5391 5.80859 31.3047 6.04297C31.0508 6.29688 30.6602 6.29688 30.4258 6.04297ZM40.5 8.25H35.5V12C35.5 12.3516 35.207 12.625 34.875 12.625C34.5234 12.625 34.25 12.3516 34.25 12V4.5C34.25 4.16797 34.5234 3.875 34.875 3.875C35.207 3.875 35.5 4.16797 35.5 4.5V7H40.5V4.5C40.5 4.16797 40.7734 3.875 41.125 3.875C41.457 3.875 41.75 4.16797 41.75 4.5V7.625V12C41.75 12.3516 41.457 12.625 41.125 12.625C40.7734 12.625 40.5 12.3516 40.5 12V8.25ZM45.75 3.875H50.125C50.457 3.875 50.75 4.16797 50.75 4.5C50.75 4.85156 50.457 5.125 50.125 5.125H45.75V7.625H48.875C49.207 7.625 49.5 7.91797 49.5 8.25C49.5 8.60156 49.207 8.875 48.875 8.875H45.75V11.375H50.125C50.457 11.375 50.75 11.668 50.75 12C50.75 12.3516 50.457 12.625 50.125 12.625H45.75C45.0469 12.625 44.5 12.0781 44.5 11.375V8.25V5.125C44.5 4.44141 45.0469 3.875 45.75 3.875ZM59.9258 6.04297C58.6953 4.83203 56.8789 4.83203 55.6484 6.04297C54.4375 7.27344 54.4375 9.24609 55.6484 10.4766C56.8789 11.6875 58.6953 11.6875 59.9258 10.4766C60.1602 10.2227 60.5508 10.2227 60.8047 10.4766C61.0391 10.7109 61.0391 11.1016 60.8047 11.3555C59.0859 13.0547 56.4883 13.0547 54.7695 11.3555C53.0703 9.63672 53.0703 6.88281 54.7695 5.16406C56.4883 3.46484 59.0859 3.46484 60.8047 5.16406C61.0391 5.41797 61.0391 5.80859 60.8047 6.04297C60.5508 6.29688 60.1602 6.29688 59.9258 6.04297ZM69.8242 4.94922L67.1484 7.70312L69.8828 11.6484C70.0781 11.9414 70 12.332 69.7266 12.5273C69.4336 12.7227 69.043 12.6445 68.8477 12.3711L66.25 8.62109L65 9.91016V12C65 12.3516 64.707 12.625 64.375 12.625C64.0234 12.625 63.75 12.3516 63.75 12V9.65625V4.5C63.75 4.16797 64.0234 3.875 64.375 3.875C64.707 3.875 65 4.16797 65 4.5V8.11328L65.8789 7.19531L68.9258 4.07031C69.1602 3.83594 69.5508 3.81641 69.8047 4.07031C70.0586 4.30469 70.0586 4.69531 69.8242 4.94922Z" fill="#9194A2"/>
<path d="M30.4258 26.043C29.1953 24.832 27.3789 24.832 26.1484 26.043C24.9375 27.2734 24.9375 29.2461 26.1484 30.4766C27.3789 31.6875 29.1953 31.6875 30.4258 30.4766C30.6602 30.2227 31.0508 30.2227 31.3047 30.4766C31.5391 30.7109 31.5391 31.1016 31.3047 31.3555C29.5859 33.0547 26.9883 33.0547 25.2695 31.3555C23.5703 29.6367 23.5703 26.8828 25.2695 25.1641C26.9883 23.4648 29.5859 23.4648 31.3047 25.1641C31.5391 25.418 31.5391 25.8086 31.3047 26.043C31.0508 26.2969 30.6602 26.2969 30.4258 26.043ZM40.5 28.25H35.5V32C35.5 32.3516 35.207 32.625 34.875 32.625C34.5234 32.625 34.25 32.3516 34.25 32V24.5C34.25 24.168 34.5234 23.875 34.875 23.875C35.207 23.875 35.5 24.168 35.5 24.5V27H40.5V24.5C40.5 24.168 40.7734 23.875 41.125 23.875C41.457 23.875 41.75 24.168 41.75 24.5V27.625V32C41.75 32.3516 41.457 32.625 41.125 32.625C40.7734 32.625 40.5 32.3516 40.5 32V28.25ZM45.75 23.875H50.125C50.457 23.875 50.75 24.168 50.75 24.5C50.75 24.8516 50.457 25.125 50.125 25.125H45.75V27.625H48.875C49.207 27.625 49.5 27.918 49.5 28.25C49.5 28.6016 49.207 28.875 48.875 28.875H45.75V31.375H50.125C50.457 31.375 50.75 31.668 50.75 32C50.75 32.3516 50.457 32.625 50.125 32.625H45.75C45.0469 32.625 44.5 32.0781 44.5 31.375V28.25V25.125C44.5 24.4414 45.0469 23.875 45.75 23.875ZM59.9258 26.043C58.6953 24.832 56.8789 24.832 55.6484 26.043C54.4375 27.2734 54.4375 29.2461 55.6484 30.4766C56.8789 31.6875 58.6953 31.6875 59.9258 30.4766C60.1602 30.2227 60.5508 30.2227 60.8047 30.4766C61.0391 30.7109 61.0391 31.1016 60.8047 31.3555C59.0859 33.0547 56.4883 33.0547 54.7695 31.3555C53.0703 29.6367 53.0703 26.8828 54.7695 25.1641C56.4883 23.4648 59.0859 23.4648 60.8047 25.1641C61.0391 25.418 61.0391 25.8086 60.8047 26.043C60.5508 26.2969 60.1602 26.2969 59.9258 26.043ZM69.8242 24.9492L67.1484 27.7031L69.8828 31.6484C70.0781 31.9414 70 32.332 69.7266 32.5273C69.4336 32.7227 69.043 32.6445 68.8477 32.3711L66.25 28.6211L65 29.9102V32C65 32.3516 64.707 32.625 64.375 32.625C64.0234 32.625 63.75 32.3516 63.75 32V29.6562V24.5C63.75 24.168 64.0234 23.875 64.375 23.875C64.707 23.875 65 24.168 65 24.5V28.1133L65.8789 27.1953L68.9258 24.0703C69.1602 23.8359 69.5508 23.8164 69.8047 24.0703C70.0586 24.3047 70.0586 24.6953 69.8242 24.9492Z" fill="#9194A2"/>
</svg>
