<svg width="96" height="48" viewBox="0 0 96 48" fill="none" xmlns="http://www.w3.org/2000/svg">
<path d="M12 1H84C90.0751 1 95 5.92487 95 12V36C95 42.0751 90.0751 47 84 47H12C5.92487 47 1 42.0751 1 36V12C1 5.92487 5.92487 1 12 1Z" fill="white"/>
<path d="M12 1H84C90.0751 1 95 5.92487 95 12V36C95 42.0751 90.0751 47 84 47H12C5.92487 47 1 42.0751 1 36V12C1 5.92487 5.92487 1 12 1Z" stroke="#E4E5E9" stroke-width="2"/>
<rect x="12" y="16" width="52" height="4" rx="2" fill="#717584"/>
<path d="M77.4609 22.0391L72.9609 17.5391C72.6562 17.2578 72.6562 16.7656 72.9609 16.4844C73.2422 16.1797 73.7344 16.1797 74.0156 16.4844L78 20.4453L81.9609 16.4844C82.2422 16.1797 82.7344 16.1797 83.0156 16.4844C83.3203 16.7656 83.3203 17.2578 83.0156 17.5391L78.5156 22.0391C78.2344 22.3438 77.7422 22.3438 77.4609 22.0391Z" fill="#717584"/>
<rect x="12" y="32" width="72" height="4" rx="2" fill="#E4E5E9"/>
</svg>
