<svg width="80" height="56" viewBox="0 0 80 56" fill="none" xmlns="http://www.w3.org/2000/svg">
<path d="M12 1H68C74.0751 1 79 5.92487 79 12V44C79 50.0751 74.0751 55 68 55H12C5.92487 55 1 50.0751 1 44V12C1 5.92487 5.92487 1 12 1Z" fill="white" stroke="#E4E5E9" stroke-width="2"/>
<rect x="12" y="12" width="24" height="4" rx="2" fill="#717584"/>
<rect x="12" y="24" width="56" height="4" rx="2" fill="#717584"/>
<path d="M44 39C44 37.3431 45.3431 36 47 36H65C66.6569 36 68 37.3431 68 39V41C68 42.6569 66.6569 44 65 44H47C45.3431 44 44 42.6569 44 41V39Z" fill="#0070EF"/>
<path d="M67.0156 11.0391L64.5547 13.5L67.0156 15.9844C67.3203 16.2656 67.3203 16.7578 67.0156 17.0391C66.7344 17.3438 66.2422 17.3438 65.9609 17.0391L63.5 14.5781L61.0156 17.0391C60.7344 17.3438 60.2422 17.3438 59.9609 17.0391C59.6562 16.7578 59.6562 16.2656 59.9609 15.9844L62.4219 13.5L59.9609 11.0391C59.6562 10.7578 59.6562 10.2656 59.9609 9.98438C60.2422 9.67969 60.7344 9.67969 61.0156 9.98438L63.5 12.4453L65.9609 9.98438C66.2422 9.67969 66.7344 9.67969 67.0156 9.98438C67.3203 10.2656 67.3203 10.7578 67.0156 11.0391Z" fill="#717584"/>
</svg>
