<svg width="56" height="64" viewBox="0 0 56 64" fill="none" xmlns="http://www.w3.org/2000/svg">
<path d="M12 1H55V63H12C5.92487 63 1 58.0751 1 52V12C1 5.92487 5.92487 1 12 1Z" fill="white" stroke="#E4E5E9" stroke-width="2"/>
<rect x="12" y="12" width="16" height="4" rx="2" fill="#717584"/>
<rect x="12" y="26" width="32" height="4" rx="2" fill="#717584"/>
<rect x="12" y="37" width="32" height="4" rx="2" fill="#717584"/>
<rect x="12" y="48" width="32" height="4" rx="2" fill="#717584"/>
<path d="M44.0156 12.0391L41.5547 14.5L44.0156 16.9844C44.3203 17.2656 44.3203 17.7578 44.0156 18.0391C43.7344 18.3438 43.2422 18.3438 42.9609 18.0391L40.5 15.5781L38.0156 18.0391C37.7344 18.3438 37.2422 18.3438 36.9609 18.0391C36.6562 17.7578 36.6562 17.2656 36.9609 16.9844L39.4219 14.5L36.9609 12.0391C36.6562 11.7578 36.6562 11.2656 36.9609 10.9844C37.2422 10.6797 37.7344 10.6797 38.0156 10.9844L40.5 13.4453L42.9609 10.9844C43.2422 10.6797 43.7344 10.6797 44.0156 10.9844C44.3203 11.2656 44.3203 11.7578 44.0156 12.0391Z" fill="#717584"/>
</svg>
