<svg width="84" height="84" viewBox="0 0 84 84" fill="none" xmlns="http://www.w3.org/2000/svg">
<rect x="1" y="1" width="82" height="82" fill="white"/>
<rect x="1" y="1" width="82" height="82" stroke="#E4E5E9" stroke-width="2"/>
<rect x="14" y="16" width="36" height="4" rx="2" fill="#9194A2"/>
<path d="M69.7566 15.3666L67.1357 17.9875L69.7566 20.6334C70.0811 20.9329 70.0811 21.4571 69.7566 21.7566C69.4571 22.0811 68.9329 22.0811 68.6334 21.7566L66.0125 19.1357L63.3666 21.7566C63.0671 22.0811 62.5429 22.0811 62.2434 21.7566C61.9189 21.4571 61.9189 20.9329 62.2434 20.6334L64.8643 17.9875L62.2434 15.3666C61.9189 15.0671 61.9189 14.5429 62.2434 14.2434C62.5429 13.9189 63.0671 13.9189 63.3666 14.2434L66.0125 16.8643L68.6334 14.2434C68.9329 13.9189 69.4571 13.9189 69.7566 14.2434C70.0811 14.5429 70.0811 15.0671 69.7566 15.3666Z" fill="#717584"/>
<rect x="14" y="30" width="56" height="4" rx="2" fill="#E4E5E9"/>
<rect x="14" y="42" width="56" height="4" rx="2" fill="#E4E5E9"/>
<rect x="14" y="54" width="56" height="4" rx="2" fill="#E4E5E9"/>
<rect x="14" y="66" width="56" height="4" rx="2" fill="#E4E5E9"/>
</svg>
