<svg width="66" height="58" viewBox="0 0 66 58" fill="none" xmlns="http://www.w3.org/2000/svg">
<path d="M0 6C0 2.68629 2.68629 0 6 0H18C21.3137 0 24 2.68629 24 6V18C24 21.3137 21.3137 24 18 24H6C2.68629 24 0 21.3137 0 18V6Z" fill="#0070EF"/>
<path d="M11.4609 16.0391L6.96094 11.5391C6.65625 11.2578 6.65625 10.7656 6.96094 10.4844C7.24219 10.1797 7.73438 10.1797 8.01562 10.4844L12 14.4453L15.9609 10.4844C16.2422 10.1797 16.7344 10.1797 17.0156 10.4844C17.3203 10.7656 17.3203 11.2578 17.0156 11.5391L12.5156 16.0391C12.2344 16.3438 11.7422 16.3438 11.4609 16.0391Z" fill="white"/>
<path d="M6 25H60C62.7614 25 65 27.2386 65 30V52C65 54.7614 62.7614 57 60 57H6C3.23857 57 1 54.7614 1 52V30C1 27.2386 3.23858 25 6 25Z" fill="white"/>
<path d="M6 25H60C62.7614 25 65 27.2386 65 30V52C65 54.7614 62.7614 57 60 57H6C3.23857 57 1 54.7614 1 52V30C1 27.2386 3.23858 25 6 25Z" stroke="#E4E5E9" stroke-width="2"/>
<path d="M12.125 38.125C12.125 37.4414 12.6719 36.875 13.375 36.875H15.25C16.9688 36.875 18.375 38.2812 18.375 40C18.375 41.7383 16.9688 43.125 15.25 43.125H13.375V45C13.375 45.3516 13.082 45.625 12.75 45.625C12.3984 45.625 12.125 45.3516 12.125 45V42.5V38.125ZM13.375 41.875H15.25C16.2852 41.875 17.125 41.0352 17.125 40C17.125 38.9648 16.2852 38.125 15.25 38.125H13.375V41.875ZM24.6914 37.2656L27.0352 42.8906L27.8164 44.7656C27.9531 45.0781 27.7969 45.4492 27.4844 45.5859C27.1719 45.7227 26.8008 45.5664 26.6641 45.2539L26.0391 43.75H22.1914L21.5664 45.2539C21.4297 45.5664 21.0781 45.7227 20.7461 45.5859C20.4336 45.4492 20.2773 45.0781 20.4141 44.7656L21.1953 42.8906L23.5391 37.2656C23.6367 37.0312 23.8711 36.875 24.125 36.875C24.3594 36.875 24.5938 37.0312 24.6914 37.2656ZM25.5312 42.5L24.125 39.1406L22.7188 42.5H25.5312ZM30.2852 36.9141C30.5195 36.8359 30.8125 36.9141 30.9688 37.1094L36.125 43.2812V37.5C36.125 37.168 36.3984 36.875 36.75 36.875C37.082 36.875 37.375 37.168 37.375 37.5V45C37.375 45.2734 37.1992 45.5078 36.9453 45.6055C36.7109 45.6836 36.4375 45.6055 36.2617 45.4102L31.125 39.2383V45C31.125 45.3516 30.832 45.625 30.5 45.625C30.1484 45.625 29.875 45.3516 29.875 45V37.5C29.875 37.2461 30.0312 37.0117 30.2852 36.9141ZM40.625 36.875H45C45.332 36.875 45.625 37.168 45.625 37.5C45.625 37.8516 45.332 38.125 45 38.125H40.625V40.625H43.75C44.082 40.625 44.375 40.918 44.375 41.25C44.375 41.6016 44.082 41.875 43.75 41.875H40.625V44.375H45C45.332 44.375 45.625 44.668 45.625 45C45.625 45.3516 45.332 45.625 45 45.625H40.625C39.9219 45.625 39.375 45.0781 39.375 44.375V41.25V38.125C39.375 37.4414 39.9219 36.875 40.625 36.875ZM48.875 36.875C49.207 36.875 49.5 37.168 49.5 37.5V44.375H53.25C53.582 44.375 53.875 44.668 53.875 45C53.875 45.3516 53.582 45.625 53.25 45.625H48.875C48.5234 45.625 48.25 45.3516 48.25 45V37.5C48.25 37.168 48.5234 36.875 48.875 36.875Z" fill="#9194A2"/>
</svg>
