<svg width="30" height="23" viewBox="0 0 30 23" fill="none" xmlns="http://www.w3.org/2000/svg">
<path d="M17.4375 2.4375C17.4375 3.42188 16.8281 4.26562 16.0312 4.6875L21 9L25.875 8.0625C25.6406 7.6875 25.5 7.21875 25.5 6.75C25.5 5.53125 26.4844 4.5 27.75 4.5C28.9688 4.5 30 5.53125 30 6.75C30 7.96875 29.0156 9 27.7969 9L22.5469 20.7656C22.0312 21.8438 20.9531 22.5 19.7812 22.5H10.1719C9 22.5 7.92188 21.8438 7.45312 20.7656L2.15625 9C0.9375 9 0 7.96875 0 6.75C0 5.53125 0.984375 4.5 2.25 4.5C3.46875 4.5 4.5 5.53125 4.5 6.75C4.5 7.26562 4.3125 7.6875 4.07812 8.0625L9 9L13.9688 4.6875C13.125 4.26562 12.5625 3.42188 12.5625 2.4375C12.5625 1.125 13.6406 0 15 0C16.3125 0 17.4375 1.125 17.4375 2.4375Z" fill="#717584"/>
</svg>
