<svg width="80" height="56" viewBox="0 0 80 56" fill="none" xmlns="http://www.w3.org/2000/svg">
<path d="M12 1H68C74.0751 1 79 5.92487 79 12V44C79 50.0751 74.0751 55 68 55H12C5.92487 55 1 50.0751 1 44V12C1 5.92487 5.92487 1 12 1Z" fill="white" stroke="#E4E5E9" stroke-width="2"/>
<path d="M8 44L16 36L24 44L43 19" stroke="#0070EF" stroke-width="2" stroke-linecap="round" stroke-linejoin="round"/>
<path d="M41 21.5L48 12L72 44" stroke="#717584" stroke-width="2" stroke-linecap="round" stroke-linejoin="round"/>
<circle cx="20" cy="16" r="7" stroke="#0070EF" stroke-width="2"/>
<line x1="41" y1="2" x2="41" y2="54" stroke="#E4E5E9" stroke-width="2"/>
<circle cx="41" cy="28" r="10" fill="#E4E5E9"/>
<path d="M38.1875 30.75H39.3125C39.8281 30.75 40.25 31.1719 40.25 31.6875V32.8125C40.25 33.3516 39.8281 33.75 39.3125 33.75H38.1875C37.6484 33.75 37.25 33.3516 37.25 32.8125V31.6875C37.25 31.1719 37.6484 30.75 38.1875 30.75ZM42.6875 30.75H43.8125C44.3281 30.75 44.75 31.1719 44.75 31.6875V32.8125C44.75 33.3516 44.3281 33.75 43.8125 33.75H42.6875C42.1484 33.75 41.75 33.3516 41.75 32.8125V31.6875C41.75 31.1719 42.1484 30.75 42.6875 30.75ZM38.1875 30C37.6484 30 37.25 29.6016 37.25 29.0625V27.9375C37.25 27.4219 37.6484 27 38.1875 27H39.3125C39.8281 27 40.25 27.4219 40.25 27.9375V29.0625C40.25 29.6016 39.8281 30 39.3125 30H38.1875ZM42.6875 27H43.8125C44.3281 27 44.75 27.4219 44.75 27.9375V29.0625C44.75 29.6016 44.3281 30 43.8125 30H42.6875C42.1484 30 41.75 29.6016 41.75 29.0625V27.9375C41.75 27.4219 42.1484 27 42.6875 27ZM38.1875 26.25C37.6484 26.25 37.25 25.8516 37.25 25.3125V24.1875C37.25 23.6719 37.6484 23.25 38.1875 23.25H39.3125C39.8281 23.25 40.25 23.6719 40.25 24.1875V25.3125C40.25 25.8516 39.8281 26.25 39.3125 26.25H38.1875ZM42.6875 23.25H43.8125C44.3281 23.25 44.75 23.6719 44.75 24.1875V25.3125C44.75 25.8516 44.3281 26.25 43.8125 26.25H42.6875C42.1484 26.25 41.75 25.8516 41.75 25.3125V24.1875C41.75 23.6719 42.1484 23.25 42.6875 23.25Z" fill="#717584"/>
</svg>
