<svg width="64" height="64" viewBox="0 0 64 64" fill="none" xmlns="http://www.w3.org/2000/svg">
<path d="M14.2407 15.7654H3.63411C2.80547 15.7985 2.10941 15.1025 2.14256 14.2738C2.10941 13.4452 2.80547 12.7491 3.63411 12.7823L10.6278 12.7491L0.485277 2.60659C-0.111344 2.00996 -0.111344 1.08189 0.485277 0.485266C1.04875 -0.0782102 2.00998 -0.111356 2.6066 0.485266L12.7492 10.6278V3.66725C12.716 2.83861 13.4121 2.14255 14.2407 2.17569C15.0694 2.14255 15.7654 2.83861 15.7323 3.66725V14.2738C15.7654 15.1025 15.0694 15.7985 14.2407 15.7654Z" fill="#717584"/>
<mask id="path-2-inside-1_49_262" fill="white">
<path fill-rule="evenodd" clip-rule="evenodd" d="M52 0H24V20C24 22.2091 22.2091 24 20 24H0V52C0 58.6274 5.37258 64 12 64H52C58.6274 64 64 58.6274 64 52V12C64 5.37258 58.6274 0 52 0Z"/>
</mask>
<path fill-rule="evenodd" clip-rule="evenodd" d="M52 0H24V20C24 22.2091 22.2091 24 20 24H0V52C0 58.6274 5.37258 64 12 64H52C58.6274 64 64 58.6274 64 52V12C64 5.37258 58.6274 0 52 0Z" fill="white"/>
<path d="M24 0V-1C23.4477 -1 23 -0.552285 23 0L24 0ZM0 24V23C-0.552285 23 -1 23.4477 -1 24H0ZM23 0V2.5H25V0H23ZM23 7.5V12.5H25V7.5H23ZM23 17.5V20H25V17.5H23ZM23 20C23 20.4086 22.9189 20.7958 22.7728 21.1481L24.6202 21.9142C24.8653 21.3233 25 20.6761 25 20H23ZM21.1481 22.7728C20.7958 22.9189 20.4086 23 20 23V25C20.6761 25 21.3233 24.8653 21.9142 24.6202L21.1481 22.7728ZM20 23H17.5V25H20V23ZM12.5 23H7.5V25H12.5V23ZM2.5 23H0V25H2.5V23ZM-1 24V27.5H1V24H-1ZM-1 34.5V41.5H1V34.5H-1ZM-1 48.5V52H1V48.5H-1ZM-1 52C-1 52.8669 -0.915001 53.715 -0.752579 54.536L1.2094 54.1479C1.07213 53.454 1 52.7359 1 52H-1ZM1.19025 59.2237C2.13906 60.6409 3.35906 61.8609 4.77629 62.8098L5.88893 61.1478C4.68894 60.3444 3.65556 59.3111 2.85218 58.1111L1.19025 59.2237ZM9.46399 64.7526C10.285 64.915 11.1331 65 12 65V63C11.2641 63 10.546 62.9279 9.85213 62.7906L9.46399 64.7526ZM12 65H15.3333V63H12V65ZM22 65H28.6667V63H22V65ZM35.3333 65H42V63H35.3333V65ZM48.6667 65H52V63H48.6667V65ZM52 65C52.8669 65 53.715 64.915 54.536 64.7526L54.1479 62.7906C53.454 62.9279 52.7359 63 52 63V65ZM59.2237 62.8098C60.6409 61.8609 61.8609 60.6409 62.8098 59.2237L61.1478 58.1111C60.3444 59.3111 59.3111 60.3444 58.1111 61.1478L59.2237 62.8098ZM64.7526 54.536C64.915 53.715 65 52.8669 65 52H63C63 52.7359 62.9279 53.454 62.7906 54.1479L64.7526 54.536ZM65 52V48.6667H63V52H65ZM65 42V35.3333H63V42H65ZM65 28.6667V22H63V28.6667H65ZM65 15.3333V12H63V15.3333H65ZM65 12C65 11.1331 64.915 10.285 64.7526 9.46399L62.7906 9.85212C62.9279 10.546 63 11.2641 63 12H65ZM62.8098 4.77629C61.8609 3.35905 60.6409 2.13906 59.2237 1.19025L58.1111 2.85218C59.3111 3.65556 60.3444 4.68893 61.1478 5.88893L62.8098 4.77629ZM54.536 -0.752579C53.715 -0.915001 52.8669 -1 52 -1V1C52.7359 1 53.454 1.07213 54.1479 1.2094L54.536 -0.752579ZM52 -1H48.5V1H52V-1ZM41.5 -1H34.5V1H41.5V-1ZM27.5 -1H24V1H27.5V-1ZM24 0V-2C22.8954 -2 22 -1.10457 22 0L24 0ZM0 24V22C-1.10457 22 -2 22.8954 -2 24H0ZM22 0V2.5H26V0H22ZM22 7.5V12.5H26V7.5H22ZM22 17.5V20H26V17.5H22ZM22 20C22 20.2749 21.9457 20.532 21.849 20.765L25.5439 22.2973C25.8384 21.587 26 20.8099 26 20H22ZM20.765 21.849C20.532 21.9457 20.2749 22 20 22V26C20.8099 26 21.587 25.8384 22.2973 25.5439L20.765 21.849ZM20 22H17.5V26H20V22ZM12.5 22H7.5V26H12.5V22ZM2.5 22H0V26H2.5V22ZM-2 24V27.5H2V24H-2ZM-2 34.5V41.5H2V34.5H-2ZM-2 48.5V52H2V48.5H-2ZM-2 52C-2 52.9324 -1.90856 53.8455 -1.73357 54.7301L2.19038 53.9538C2.06569 53.3235 2 52.6704 2 52H-2ZM0.359279 59.78C1.38082 61.3059 2.69412 62.6192 4.21997 63.6407L6.44525 60.3168C5.35388 59.5862 4.41381 58.6461 3.68315 57.5548L0.359279 59.78ZM9.26992 65.7336C10.1545 65.9086 11.0676 66 12 66V62C11.3296 62 10.6765 61.9343 10.0462 61.8096L9.26992 65.7336ZM12 66H15.3333V62H12V66ZM22 66H28.6667V62H22V66ZM35.3333 66H42V62H35.3333V66ZM48.6667 66H52V62H48.6667V66ZM52 66C52.9324 66 53.8455 65.9086 54.7301 65.7336L53.9538 61.8096C53.3235 61.9343 52.6704 62 52 62V66ZM59.78 63.6407C61.3059 62.6192 62.6192 61.3059 63.6407 59.78L60.3168 57.5547C59.5862 58.6461 58.6461 59.5862 57.5548 60.3168L59.78 63.6407ZM65.7336 54.7301C65.9086 53.8455 66 52.9324 66 52H62C62 52.6704 61.9343 53.3235 61.8096 53.9538L65.7336 54.7301ZM66 52V48.6667H62V52H66ZM66 42V35.3333H62V42H66ZM66 28.6667V22H62V28.6667H66ZM66 15.3333V12H62V15.3333H66ZM66 12C66 11.0676 65.9086 10.1545 65.7336 9.26992L61.8096 10.0462C61.9343 10.6765 62 11.3296 62 12H66ZM63.6407 4.21997C62.6192 2.69412 61.3059 1.38081 59.78 0.359278L57.5547 3.68315C58.6461 4.41381 59.5862 5.35387 60.3168 6.44525L63.6407 4.21997ZM54.7301 -1.73357C53.8455 -1.90856 52.9324 -2 52 -2V2C52.6704 2 53.3235 2.06569 53.9538 2.19038L54.7301 -1.73357ZM52 -2H48.5V2H52V-2ZM41.5 -2H34.5V2H41.5V-2ZM27.5 -2H24V2H27.5V-2Z" fill="#E4E5E9" mask="url(#path-2-inside-1_49_262)"/>
</svg>
