<svg width="96" height="46" viewBox="0 0 96 46" fill="none" xmlns="http://www.w3.org/2000/svg">
<path d="M6 15H90C92.7614 15 95 17.2386 95 20V40C95 42.7614 92.7614 45 90 45H6C3.23858 45 1 42.7614 1 40V20C1 17.2386 3.23858 15 6 15Z" fill="white" stroke="#E4E5E9" stroke-width="2"/>
<path d="M0.625 0.875H3.125H5.625C5.95703 0.875 6.25 1.16797 6.25 1.5C6.25 1.85156 5.95703 2.125 5.625 2.125H3.75V8.375H5.625C5.95703 8.375 6.25 8.66797 6.25 9C6.25 9.35156 5.95703 9.625 5.625 9.625H0.625C0.273438 9.625 0 9.35156 0 9C0 8.66797 0.273438 8.375 0.625 8.375H2.5V2.125H0.625C0.273438 2.125 0 1.85156 0 1.5C0 1.16797 0.273438 0.875 0.625 0.875ZM8.66016 0.914062C8.89453 0.835938 9.1875 0.914062 9.34375 1.10938L14.5 7.28125V1.5C14.5 1.16797 14.7734 0.875 15.125 0.875C15.457 0.875 15.75 1.16797 15.75 1.5V9C15.75 9.27344 15.5742 9.50781 15.3203 9.60547C15.0859 9.68359 14.8125 9.60547 14.6367 9.41016L9.5 3.23828V9C9.5 9.35156 9.20703 9.625 8.875 9.625C8.52344 9.625 8.25 9.35156 8.25 9V1.5C8.25 1.24609 8.40625 1.01172 8.66016 0.914062ZM17.75 2.125C17.75 1.44141 18.2969 0.875 19 0.875H20.875C22.5938 0.875 24 2.28125 24 4C24 5.73828 22.5938 7.125 20.875 7.125H19V9C19 9.35156 18.707 9.625 18.375 9.625C18.0234 9.625 17.75 9.35156 17.75 9V6.5V2.125ZM19 5.875H20.875C21.9102 5.875 22.75 5.03516 22.75 4C22.75 2.96484 21.9102 2.125 20.875 2.125H19V5.875ZM26.625 0.875C26.957 0.875 27.25 1.16797 27.25 1.5V5.875C27.25 7.26172 28.3633 8.375 29.75 8.375C31.1172 8.375 32.25 7.26172 32.25 5.875V1.5C32.25 1.16797 32.5234 0.875 32.875 0.875C33.207 0.875 33.5 1.16797 33.5 1.5V5.875C33.5 7.94531 31.8203 9.625 29.75 9.625C27.6797 9.625 26 7.94531 26 5.875V1.5C26 1.16797 26.2734 0.875 26.625 0.875ZM36.125 0.875H39.25H42.375C42.707 0.875 43 1.16797 43 1.5C43 1.85156 42.707 2.125 42.375 2.125H39.875V9C39.875 9.35156 39.582 9.625 39.25 9.625C38.8984 9.625 38.625 9.35156 38.625 9V2.125H36.125C35.7734 2.125 35.5 1.85156 35.5 1.5C35.5 1.16797 35.7734 0.875 36.125 0.875Z" fill="#717584"/>
</svg>
