<svg width="69" height="64" viewBox="0 0 69 64" fill="none" xmlns="http://www.w3.org/2000/svg">
<path d="M6 1H63C65.7614 1 68 3.23858 68 6V58C68 60.7614 65.7614 63 63 63H6C3.23858 63 1 60.7614 1 58V6C1 3.23858 3.23858 1 6 1Z" fill="white"/>
<path d="M6 1H63C65.7614 1 68 3.23858 68 6V58C68 60.7614 65.7614 63 63 63H6C3.23858 63 1 60.7614 1 58V6C1 3.23858 3.23858 1 6 1Z" stroke="#E4E5E9" stroke-width="2"/>
<path d="M19.1758 15.043C17.9453 13.832 16.1289 13.832 14.8984 15.043C13.6875 16.2734 13.6875 18.2461 14.8984 19.4766C16.1289 20.6875 17.9453 20.6875 19.1758 19.4766C19.4102 19.2227 19.8008 19.2227 20.0547 19.4766C20.2891 19.7109 20.2891 20.1016 20.0547 20.3555C18.3359 22.0547 15.7383 22.0547 14.0195 20.3555C12.3203 18.6367 12.3203 15.8828 14.0195 14.1641C15.7383 12.4648 18.3359 12.4648 20.0547 14.1641C20.2891 14.418 20.2891 14.8086 20.0547 15.043C19.8008 15.2969 19.4102 15.2969 19.1758 15.043ZM27.375 14.125C26.2422 14.125 25.2266 14.7305 24.6602 15.6875C24.0938 16.6641 24.0938 17.8555 24.6602 18.8125C25.2266 19.7891 26.2422 20.375 27.375 20.375C28.4883 20.375 29.5039 19.7891 30.0703 18.8125C30.6367 17.8555 30.6367 16.6641 30.0703 15.6875C29.5039 14.7305 28.4883 14.125 27.375 14.125ZM31.75 17.25C31.75 18.832 30.9102 20.2578 29.5625 21.0391C28.1953 21.8398 26.5352 21.8398 25.1875 21.0391C23.8203 20.2578 23 18.832 23 17.25C23 15.6875 23.8203 14.2617 25.1875 13.4805C26.5352 12.6797 28.1953 12.6797 29.5625 13.4805C30.9102 14.2617 31.75 15.6875 31.75 17.25ZM34.5 14.125C34.5 13.4414 35.0469 12.875 35.75 12.875H37.625C39.3438 12.875 40.75 14.2812 40.75 16C40.75 17.7383 39.3438 19.125 37.625 19.125H35.75V21C35.75 21.3516 35.457 21.625 35.125 21.625C34.7734 21.625 34.5 21.3516 34.5 21V18.5V14.125ZM35.75 17.875H37.625C38.6602 17.875 39.5 17.0352 39.5 16C39.5 14.9648 38.6602 14.125 37.625 14.125H35.75V17.875ZM44.6328 13.1484L47.25 16.8008L49.8672 13.1484C50.0625 12.8555 50.4531 12.7969 50.7266 12.9922C51 13.207 51.0781 13.5977 50.8828 13.8711L47.875 18.0898V21C47.875 21.3516 47.582 21.625 47.25 21.625C46.8984 21.625 46.625 21.3516 46.625 21V18.0898L43.6172 13.8711C43.4023 13.5977 43.4805 13.207 43.7539 12.9922C44.0273 12.7969 44.418 12.8555 44.6328 13.1484Z" fill="#9194A2"/>
<path d="M18.4258 30.043C17.1953 28.832 15.3789 28.832 14.1484 30.043C12.9375 31.2734 12.9375 33.2461 14.1484 34.4766C15.3789 35.6875 17.1953 35.6875 18.4258 34.4766C18.6602 34.2227 19.0508 34.2227 19.3047 34.4766C19.5391 34.7109 19.5391 35.1016 19.3047 35.3555C17.5859 37.0547 14.9883 37.0547 13.2695 35.3555C11.5703 33.6367 11.5703 30.8828 13.2695 29.1641C14.9883 27.4648 17.5859 27.4648 19.3047 29.1641C19.5391 29.418 19.5391 29.8086 19.3047 30.043C19.0508 30.2969 18.6602 30.2969 18.4258 30.043ZM22.875 27.875C23.207 27.875 23.5 28.168 23.5 28.5V32.875C23.5 34.2617 24.6133 35.375 26 35.375C27.3672 35.375 28.5 34.2617 28.5 32.875V28.5C28.5 28.168 28.7734 27.875 29.125 27.875C29.457 27.875 29.75 28.168 29.75 28.5V32.875C29.75 34.9453 28.0703 36.625 26 36.625C23.9297 36.625 22.25 34.9453 22.25 32.875V28.5C22.25 28.168 22.5234 27.875 22.875 27.875ZM33.125 27.875H36.25H39.375C39.707 27.875 40 28.168 40 28.5C40 28.8516 39.707 29.125 39.375 29.125H36.875V36C36.875 36.3516 36.582 36.625 36.25 36.625C35.8984 36.625 35.625 36.3516 35.625 36V29.125H33.125C32.7734 29.125 32.5 28.8516 32.5 28.5C32.5 28.168 32.7734 27.875 33.125 27.875Z" fill="#9194A2"/>
<path d="M12.25 44.125C12.25 43.4414 12.7969 42.875 13.5 42.875H15.375C17.0938 42.875 18.5 44.2812 18.5 46C18.5 47.7383 17.0938 49.125 15.375 49.125H13.5V51C13.5 51.3516 13.207 51.625 12.875 51.625C12.5234 51.625 12.25 51.3516 12.25 51V48.5V44.125ZM13.5 47.875H15.375C16.4102 47.875 17.25 47.0352 17.25 46C17.25 44.9648 16.4102 44.125 15.375 44.125H13.5V47.875ZM25.5664 43.2656L27.9102 48.8906L28.6914 50.7656C28.8281 51.0781 28.6719 51.4492 28.3594 51.5859C28.0469 51.7227 27.6758 51.5664 27.5391 51.2539L26.9141 49.75H23.0664L22.4414 51.2539C22.3047 51.5664 21.9531 51.7227 21.6211 51.5859C21.3086 51.4492 21.1523 51.0781 21.2891 50.7656L22.0703 48.8906L24.4141 43.2656C24.5117 43.0312 24.7461 42.875 25 42.875C25.2344 42.875 25.4688 43.0312 25.5664 43.2656ZM26.4062 48.5L25 45.1406L23.5938 48.5H26.4062ZM33.4336 44.3203C33.043 44.4766 32.8281 44.75 32.7695 45.082C32.7109 45.3555 32.75 45.5312 32.8086 45.668C32.8672 45.7852 32.9648 45.9023 33.1211 46.0195C33.5117 46.293 34.0781 46.4492 34.7812 46.6641C34.8008 46.6641 34.8203 46.6641 34.8398 46.6836C35.4844 46.8594 36.2461 47.0742 36.8125 47.4648C37.125 47.6797 37.3984 47.9727 37.5742 48.3438C37.75 48.7344 37.7891 49.1641 37.6914 49.6523C37.5547 50.4727 37.0078 51.0391 36.3047 51.3516C35.6016 51.6445 34.7422 51.7031 33.8828 51.5664C33.4141 51.4883 32.6523 51.2344 32.1641 51.0586C32.0664 51.0391 31.9883 51 31.9102 50.9805C31.5977 50.8633 31.4219 50.5117 31.5195 50.1797C31.6367 49.8672 31.9883 49.6914 32.3203 49.7891C32.418 49.8281 32.5156 49.8477 32.6328 49.8867C33.1211 50.0625 33.7266 50.2773 34.0781 50.3359C34.8008 50.4336 35.3867 50.375 35.7969 50.1992C36.207 50.0234 36.4023 49.7695 36.4609 49.4375C36.5195 49.1641 36.4805 48.9688 36.4219 48.8516C36.3828 48.7344 36.2656 48.6172 36.1094 48.5C35.7188 48.2266 35.1523 48.0703 34.4492 47.8555C34.4297 47.8555 34.4102 47.8555 34.3906 47.8359C33.7461 47.6602 32.9844 47.4453 32.418 47.0547C32.1055 46.8398 31.832 46.5469 31.6562 46.1758C31.5 45.7852 31.4609 45.3555 31.5391 44.8672L32.1445 44.9844L31.5391 44.8672C31.6758 44.0469 32.2227 43.4805 32.9258 43.168C33.6289 42.875 34.4883 42.8164 35.3477 42.9531C35.6016 42.9922 36.3828 43.1484 36.6562 43.2266C36.9883 43.3047 37.1836 43.6562 37.0859 43.9883C37.0078 44.3203 36.6562 44.5156 36.3242 44.418C36.1094 44.3594 35.3867 44.2227 35.1523 44.1836L35.25 43.5781L35.1523 44.1836C34.4297 44.0859 33.8438 44.1445 33.4336 44.3203ZM41.125 42.875H44.25H47.375C47.707 42.875 48 43.168 48 43.5C48 43.8516 47.707 44.125 47.375 44.125H44.875V51C44.875 51.3516 44.582 51.625 44.25 51.625C43.8984 51.625 43.625 51.3516 43.625 51V44.125H41.125C40.7734 44.125 40.5 43.8516 40.5 43.5C40.5 43.168 40.7734 42.875 41.125 42.875ZM52 42.875H56.375C56.707 42.875 57 43.168 57 43.5C57 43.8516 56.707 44.125 56.375 44.125H52V46.625H55.125C55.457 46.625 55.75 46.918 55.75 47.25C55.75 47.6016 55.457 47.875 55.125 47.875H52V50.375H56.375C56.707 50.375 57 50.668 57 51C57 51.3516 56.707 51.625 56.375 51.625H52C51.2969 51.625 50.75 51.0781 50.75 50.375V47.25V44.125C50.75 43.4414 51.2969 42.875 52 42.875Z" fill="#9194A2"/>
</svg>
