<svg width="64" height="64" viewBox="0 0 64 64" fill="none" xmlns="http://www.w3.org/2000/svg">
<path d="M6 1H58C60.7614 1 63 3.23858 63 6V58C63 60.7614 60.7614 63 58 63H6C3.23858 63 1 60.7614 1 58V6C1 3.23858 3.23858 1 6 1Z" fill="white"/>
<path d="M6 1H58C60.7614 1 63 3.23858 63 6V58C63 60.7614 60.7614 63 58 63H6C3.23858 63 1 60.7614 1 58V6C1 3.23858 3.23858 1 6 1Z" stroke="#E4E5E9" stroke-width="2"/>
<path d="M16.0625 12.25H18.4844C18.7188 12.25 18.9727 12.3672 19.1484 12.543L20.457 13.8516C20.6328 14.0273 20.75 14.2812 20.75 14.5156V18.8125C20.75 19.3398 20.3203 19.75 19.8125 19.75H16.0625C15.5352 19.75 15.125 19.3398 15.125 18.8125V13.1875C15.125 12.6797 15.5352 12.25 16.0625 12.25ZM12.9375 14.75H14.5V16H13.25V21H17V20.375H18.25V21.3125C18.25 21.8398 17.8203 22.25 17.3125 22.25H12.9375C12.4102 22.25 12 21.8398 12 21.3125V15.6875C12 15.1797 12.4102 14.75 12.9375 14.75Z" fill="#9194A2"/>
<rect x="29" y="15" width="23" height="4" rx="2" fill="#9194A2"/>
<path d="M15.125 27.25C15.5742 27.25 15.9844 27.5039 16.1992 27.875H17.3125C17.8203 27.875 18.25 28.3047 18.25 28.8125V29.125H17.3125C16.4336 29.125 15.75 29.8281 15.75 30.6875V36H12.9375C12.4102 36 12 35.5898 12 35.0625V28.8125C12 28.3047 12.4102 27.875 12.9375 27.875H14.0312C14.2461 27.5039 14.6562 27.25 15.125 27.25ZM17.3125 29.75H18.25H19.7344C19.9688 29.75 20.2227 29.8672 20.3984 30.043L21.707 31.3516C21.8828 31.5273 22 31.7812 22 32.0156V36.3125C22 36.8398 21.5703 37.25 21.0625 37.25H17.3125C16.7852 37.25 16.375 36.8398 16.375 36.3125V36V30.6875C16.375 30.1797 16.7852 29.75 17.3125 29.75ZM15.125 28.0312C14.8516 28.0312 14.6562 28.2461 14.6562 28.5C14.6562 28.7734 14.8516 28.9688 15.125 28.9688C15.3789 28.9688 15.5938 28.7734 15.5938 28.5C15.5938 28.2461 15.3789 28.0312 15.125 28.0312Z" fill="#9194A2"/>
<rect x="30" y="30" width="22" height="4" rx="2" fill="#9194A2"/>
<path d="M14.6367 42.6016C14.7344 42.3867 14.9492 42.25 15.1836 42.25H17.5469C17.7812 42.25 17.9961 42.3867 18.0938 42.6016L18.25 42.875H20.125C20.457 42.875 20.75 43.168 20.75 43.5C20.75 43.8516 20.457 44.125 20.125 44.125H12.625C12.2734 44.125 12 43.8516 12 43.5C12 43.168 12.2734 42.875 12.625 42.875H14.5L14.6367 42.6016ZM20.125 44.75L19.6953 51.3711C19.6758 51.8789 19.2656 52.25 18.7578 52.25H13.9727C13.4648 52.25 13.0547 51.8789 13.0352 51.3711L12.625 44.75H20.125Z" fill="#F2676C"/>
<rect x="29" y="45" width="23" height="4" rx="2" fill="#F2676C"/>
</svg>
