<svg width="110" height="12" viewBox="0 0 110 12" fill="none" xmlns="http://www.w3.org/2000/svg">
<path d="M1.71362 2.57143C1.71362 1.15179 2.8654 0 4.28504 0H5.14219C5.61629 0 5.99933 0.383036 5.99933 0.857143C5.99933 1.33125 5.61629 1.71429 5.14219 1.71429H4.28504C3.81094 1.71429 3.4279 2.09732 3.4279 2.57143V3.57589C3.4279 4.25893 3.15737 4.9125 2.67522 5.39464L2.06987 6L2.67522 6.60536C3.15737 7.0875 3.4279 7.74107 3.4279 8.42411V9.42857C3.4279 9.90268 3.81094 10.2857 4.28504 10.2857H5.14219C5.61629 10.2857 5.99933 10.6688 5.99933 11.1429C5.99933 11.617 5.61629 12 5.14219 12H4.28504C2.8654 12 1.71362 10.8482 1.71362 9.42857V8.42411C1.71362 8.19643 1.62254 7.97946 1.46183 7.81875L0.251116 6.60536C-0.0837054 6.27054 -0.0837054 5.72679 0.251116 5.39196L1.46451 4.17857C1.62522 4.01786 1.71629 3.80089 1.71629 3.57321V2.57143H1.71362Z" fill="#717584"/>
<path d="M11.7454 3.67969V4.01953C11.9407 3.82812 12.1165 3.69727 12.2728 3.62695C12.4329 3.55273 12.6165 3.51562 12.8235 3.51562C12.9993 3.51562 13.1732 3.55859 13.345 3.64453C13.5169 3.73047 13.6849 3.85938 13.8489 4.03125C14.056 3.85938 14.265 3.73242 14.4759 3.65039C14.6907 3.56445 14.9095 3.52148 15.1321 3.52148C15.5775 3.52148 15.9388 3.64062 16.2161 3.87891C16.5833 4.19141 16.7669 4.60156 16.7669 5.10938V7.79883C17.0169 7.79883 17.2025 7.85547 17.3235 7.96875C17.4446 8.08203 17.5052 8.22656 17.5052 8.40234C17.5052 8.57812 17.4446 8.72266 17.3235 8.83594C17.2025 8.94531 16.9974 9 16.7083 9H15.5657V5.20898C15.5657 5.02539 15.5325 4.89844 15.4661 4.82812C15.3997 4.75781 15.2982 4.72266 15.1614 4.72266C15.0286 4.72266 14.9056 4.75781 14.7923 4.82812C14.6478 4.92578 14.472 5.10938 14.265 5.37891V7.79883C14.515 7.79883 14.7005 7.85547 14.8216 7.96875C14.9427 8.08203 15.0032 8.22656 15.0032 8.40234C15.0032 8.57812 14.9427 8.72266 14.8216 8.83594C14.7005 8.94531 14.4954 9 14.2064 9H13.0638V5.20898C13.0638 5.0293 13.0286 4.9043 12.9583 4.83398C12.8919 4.75977 12.7903 4.72266 12.6536 4.72266C12.513 4.72266 12.3743 4.76758 12.2376 4.85742C12.1009 4.94336 11.9368 5.11719 11.7454 5.37891V7.79883C11.9954 7.79883 12.181 7.85547 12.3021 7.96875C12.4271 8.08203 12.4896 8.22656 12.4896 8.40234C12.4896 8.57812 12.4271 8.72266 12.3021 8.83594C12.181 8.94531 11.9759 9 11.6868 9H10.6028C10.3138 9 10.1087 8.94531 9.98761 8.83594C9.86261 8.72266 9.80011 8.57617 9.80011 8.39648C9.80011 8.2207 9.86066 8.07812 9.98175 7.96875C10.1028 7.85547 10.2903 7.79883 10.5443 7.79883V4.88086C10.2903 4.88086 10.1028 4.82422 9.98175 4.71094C9.86066 4.59766 9.80011 4.45312 9.80011 4.27734C9.80011 4.10156 9.86261 3.95898 9.98761 3.84961C10.1087 3.73633 10.3138 3.67969 10.6028 3.67969H11.7454ZM23.5987 3.67969V7.79883C23.8526 7.79883 24.0401 7.85547 24.1612 7.96875C24.2823 8.08203 24.3428 8.22656 24.3428 8.40234C24.3428 8.57812 24.2803 8.72266 24.1553 8.83594C24.0343 8.94531 23.8292 9 23.5401 9H22.3975V8.72461C22.0538 8.88086 21.7257 8.99805 21.4132 9.07617C21.1007 9.1543 20.8038 9.19336 20.5225 9.19336C20.128 9.19336 19.7862 9.11133 19.4971 8.94727C19.2081 8.7793 18.9796 8.54883 18.8116 8.25586C18.6905 8.04492 18.63 7.78125 18.63 7.46484V4.88086H18.4249C18.1358 4.88086 17.9288 4.82617 17.8038 4.7168C17.6827 4.60352 17.6221 4.45703 17.6221 4.27734C17.6221 4.10156 17.6827 3.95898 17.8038 3.84961C17.9288 3.73633 18.1358 3.67969 18.4249 3.67969H19.8311V7.25391C19.8311 7.50781 19.8917 7.69531 20.0128 7.81641C20.1378 7.93359 20.3272 7.99219 20.5811 7.99219C20.8233 7.99219 21.0831 7.94531 21.3604 7.85156C21.6417 7.75391 21.9874 7.58008 22.3975 7.33008V4.88086H21.9639C21.6749 4.88086 21.4678 4.82617 21.3428 4.7168C21.2218 4.60352 21.1612 4.45703 21.1612 4.27734C21.1612 4.10156 21.2218 3.95898 21.3428 3.84961C21.4678 3.73633 21.6749 3.67969 21.9639 3.67969H23.5987ZM28.1981 4.88086V7.28906C28.1981 7.54688 28.2508 7.7168 28.3563 7.79883C28.5203 7.92773 28.8133 7.99219 29.2352 7.99219C29.8485 7.99219 30.4149 7.86133 30.9344 7.59961C31.1336 7.49805 31.2899 7.44727 31.4032 7.44727C31.5594 7.44727 31.6942 7.50586 31.8075 7.62305C31.9246 7.74023 31.9832 7.88281 31.9832 8.05078C31.9832 8.20703 31.9207 8.3418 31.7957 8.45508C31.6043 8.63867 31.2254 8.80859 30.659 8.96484C30.0965 9.11719 29.6219 9.19336 29.2352 9.19336C28.4891 9.19336 27.9285 9.0332 27.5535 8.71289C27.1825 8.38867 26.9969 7.99219 26.9969 7.52344V4.88086H26.5633C26.2743 4.88086 26.0672 4.82617 25.9422 4.7168C25.8211 4.60352 25.7606 4.45703 25.7606 4.27734C25.7606 4.10156 25.8211 3.95898 25.9422 3.84961C26.0672 3.73633 26.2743 3.67969 26.5633 3.67969H26.9969V2.5957C26.9969 2.30664 27.0516 2.10156 27.161 1.98047C27.2743 1.85547 27.4207 1.79297 27.6004 1.79297C27.7762 1.79297 27.9188 1.85547 28.0282 1.98047C28.1414 2.10156 28.1981 2.30664 28.1981 2.5957V3.67969H30.4188C30.7078 3.67969 30.9129 3.73633 31.034 3.84961C31.159 3.95898 31.2215 4.10352 31.2215 4.2832C31.2215 4.45898 31.159 4.60352 31.034 4.7168C30.9129 4.82617 30.7078 4.88086 30.4188 4.88086H28.1981ZM37.0221 9V8.71875C36.7213 8.87891 36.3892 8.99805 36.026 9.07617C35.6627 9.1582 35.3326 9.19922 35.0357 9.19922C34.3912 9.19922 33.8678 9.0293 33.4654 8.68945C33.0631 8.3457 32.8619 7.9668 32.8619 7.55273C32.8619 7.04883 33.1178 6.58203 33.6295 6.15234C34.1451 5.71875 34.856 5.50195 35.7623 5.50195C36.1256 5.50195 36.5455 5.54102 37.0221 5.61914V5.33203C37.0221 5.15234 36.9439 5.00586 36.7877 4.89258C36.6353 4.7793 36.3424 4.72266 35.9088 4.72266C35.5533 4.72266 35.0924 4.79297 34.526 4.93359C34.315 4.98438 34.151 5.00977 34.0338 5.00977C33.8736 5.00977 33.7369 4.95312 33.6236 4.83984C33.5142 4.72266 33.4596 4.57422 33.4596 4.39453C33.4596 4.29297 33.4791 4.20508 33.5182 4.13086C33.5572 4.05664 33.6119 3.99805 33.6822 3.95508C33.7525 3.9082 33.899 3.85352 34.1217 3.79102C34.4185 3.70898 34.7213 3.64453 35.0299 3.59766C35.3385 3.54688 35.6178 3.52148 35.8678 3.52148C36.6139 3.52148 37.192 3.68359 37.6021 4.00781C38.0162 4.32812 38.2232 4.76758 38.2232 5.32617V7.79883H38.4283C38.7174 7.79883 38.9225 7.85547 39.0435 7.96875C39.1685 8.07812 39.231 8.22266 39.231 8.40234C39.231 8.57812 39.1685 8.72266 39.0435 8.83594C38.9225 8.94531 38.7174 9 38.4283 9H37.0221ZM37.0221 6.84961C36.5416 6.75586 36.0982 6.70898 35.692 6.70898C35.2037 6.70898 34.7838 6.82812 34.4322 7.06641C34.2135 7.21875 34.1041 7.37305 34.1041 7.5293C34.1041 7.64258 34.1568 7.73438 34.2623 7.80469C34.4576 7.93359 34.7252 7.99805 35.065 7.99805C35.3541 7.99805 35.6803 7.94141 36.0435 7.82812C36.4107 7.71484 36.7369 7.56055 37.0221 7.36523V6.84961ZM43.0921 4.88086V7.28906C43.0921 7.54688 43.1449 7.7168 43.2503 7.79883C43.4144 7.92773 43.7074 7.99219 44.1292 7.99219C44.7425 7.99219 45.3089 7.86133 45.8285 7.59961C46.0277 7.49805 46.1839 7.44727 46.2972 7.44727C46.4535 7.44727 46.5882 7.50586 46.7015 7.62305C46.8187 7.74023 46.8773 7.88281 46.8773 8.05078C46.8773 8.20703 46.8148 8.3418 46.6898 8.45508C46.4984 8.63867 46.1195 8.80859 45.5531 8.96484C44.9906 9.11719 44.516 9.19336 44.1292 9.19336C43.3832 9.19336 42.8226 9.0332 42.4476 8.71289C42.0765 8.38867 41.891 7.99219 41.891 7.52344V4.88086H41.4574C41.1683 4.88086 40.9613 4.82617 40.8363 4.7168C40.7152 4.60352 40.6546 4.45703 40.6546 4.27734C40.6546 4.10156 40.7152 3.95898 40.8363 3.84961C40.9613 3.73633 41.1683 3.67969 41.4574 3.67969H41.891V2.5957C41.891 2.30664 41.9457 2.10156 42.055 1.98047C42.1683 1.85547 42.3148 1.79297 42.4945 1.79297C42.6703 1.79297 42.8128 1.85547 42.9222 1.98047C43.0355 2.10156 43.0921 2.30664 43.0921 2.5957V3.67969H45.3128C45.6019 3.67969 45.807 3.73633 45.9281 3.84961C46.0531 3.95898 46.1156 4.10352 46.1156 4.2832C46.1156 4.45898 46.0531 4.60352 45.9281 4.7168C45.807 4.82617 45.6019 4.88086 45.3128 4.88086H43.0921ZM51.2657 1.40039V2.67188H49.836V1.40039H51.2657ZM51.4298 3.67969V7.79883H52.8712C53.1603 7.79883 53.3653 7.85547 53.4864 7.96875C53.6114 8.07812 53.6739 8.22266 53.6739 8.40234C53.6739 8.57812 53.6114 8.72266 53.4864 8.83594C53.3653 8.94531 53.1603 9 52.8712 9H48.7872C48.4982 9 48.2911 8.94531 48.1661 8.83594C48.045 8.72266 47.9845 8.57617 47.9845 8.39648C47.9845 8.2207 48.045 8.07812 48.1661 7.96875C48.2911 7.85547 48.4982 7.79883 48.7872 7.79883H50.2286V4.88086H49.2618C48.9767 4.88086 48.7716 4.82617 48.6466 4.7168C48.5216 4.60352 48.4591 4.45703 48.4591 4.27734C48.4591 4.10156 48.5196 3.95898 48.6407 3.84961C48.7657 3.73633 48.9728 3.67969 49.2618 3.67969H51.4298ZM61.4022 6.43945C61.4022 6.90039 61.2733 7.34766 61.0155 7.78125C60.7616 8.21094 60.3807 8.55469 59.8729 8.8125C59.369 9.06641 58.8417 9.19336 58.2909 9.19336C57.744 9.19336 57.2206 9.06836 56.7206 8.81836C56.2206 8.56445 55.8397 8.2207 55.578 7.78711C55.3163 7.35352 55.1854 6.90039 55.1854 6.42773C55.1854 5.94727 55.3182 5.47656 55.5839 5.01562C55.8495 4.55078 56.2303 4.18555 56.7264 3.91992C57.2264 3.6543 57.7479 3.52148 58.2909 3.52148C58.8378 3.52148 59.3632 3.6582 59.8671 3.93164C60.3749 4.20117 60.7577 4.56641 61.0155 5.02734C61.2733 5.48438 61.4022 5.95508 61.4022 6.43945ZM60.201 6.44531C60.201 6.05859 60.0624 5.70312 59.785 5.37891C59.4061 4.94141 58.9081 4.72266 58.2909 4.72266C57.7479 4.72266 57.2948 4.89648 56.9315 5.24414C56.5682 5.5918 56.3866 5.99414 56.3866 6.45117C56.3866 6.82617 56.5702 7.17773 56.9374 7.50586C57.3046 7.83008 57.7557 7.99219 58.2909 7.99219C58.83 7.99219 59.2831 7.83008 59.6503 7.50586C60.0175 7.17773 60.201 6.82422 60.201 6.44531ZM64.5133 3.67969V4.08398C64.7321 3.89648 64.9723 3.75586 65.234 3.66211C65.4996 3.56836 65.7868 3.52148 66.0953 3.52148C66.8063 3.52148 67.3688 3.74219 67.7828 4.18359C68.111 4.53516 68.275 4.99609 68.275 5.56641V7.79883C68.5289 7.79883 68.7164 7.85547 68.8375 7.96875C68.9586 8.07812 69.0192 8.22266 69.0192 8.40234C69.0192 8.57812 68.9567 8.72266 68.8317 8.83594C68.7106 8.94531 68.5055 9 68.2164 9H67.1325C66.8434 9 66.6364 8.94531 66.5114 8.83594C66.3903 8.72266 66.3297 8.57617 66.3297 8.39648C66.3297 8.2207 66.3903 8.07812 66.5114 7.96875C66.6325 7.85547 66.82 7.79883 67.0739 7.79883V5.53125C67.0739 5.26953 67.0035 5.07812 66.8629 4.95703C66.6793 4.80078 66.4039 4.72266 66.0368 4.72266C65.7594 4.72266 65.5153 4.77734 65.3043 4.88672C65.0973 4.99219 64.8336 5.21875 64.5133 5.56641V7.79883C64.8219 7.79883 65.0211 7.82812 65.111 7.88672C65.3024 8.00391 65.3981 8.17578 65.3981 8.40234C65.3981 8.57812 65.3356 8.72266 65.2106 8.83594C65.0895 8.94531 64.8844 9 64.5953 9H63.2301C62.941 9 62.734 8.94531 62.609 8.83594C62.4879 8.72266 62.4274 8.57617 62.4274 8.39648C62.4274 8.17773 62.5211 8.00781 62.7086 7.88672C62.8024 7.82812 63.0035 7.79883 63.3121 7.79883V4.88086C63.0582 4.88086 62.8707 4.82422 62.7496 4.71094C62.6285 4.59766 62.568 4.45312 62.568 4.27734C62.568 4.10156 62.6285 3.95898 62.7496 3.84961C62.8746 3.73633 63.0817 3.67969 63.3707 3.67969H64.5133ZM72.6752 3.09961V7.79883H75.265V6.66211C75.265 6.37305 75.3197 6.16797 75.4291 6.04688C75.5424 5.92188 75.6889 5.85938 75.8685 5.85938C76.0443 5.85938 76.1869 5.92188 76.2963 6.04688C76.4096 6.16797 76.4662 6.37305 76.4662 6.66211V9H70.7767C70.4877 9 70.2807 8.94531 70.1557 8.83594C70.0346 8.72266 69.974 8.57617 69.974 8.39648C69.974 8.2207 70.0346 8.07812 70.1557 7.96875C70.2807 7.85547 70.4877 7.79883 70.7767 7.79883H71.474V3.09961H70.7767C70.4877 3.09961 70.2807 3.04492 70.1557 2.93555C70.0346 2.82227 69.974 2.67578 69.974 2.49609C69.974 2.31641 70.0346 2.17188 70.1557 2.0625C70.2807 1.94922 70.4877 1.89258 70.7767 1.89258L73.3783 1.89844C73.6674 1.89844 73.8725 1.95312 73.9935 2.0625C74.1185 2.17188 74.181 2.31641 74.181 2.49609C74.181 2.67578 74.1185 2.82227 73.9935 2.93555C73.8725 3.04492 73.6674 3.09961 73.3783 3.09961H72.6752ZM81.0539 1.40039V2.67188H79.6242V1.40039H81.0539ZM81.2179 3.67969V7.79883H82.6593C82.9484 7.79883 83.1535 7.85547 83.2746 7.96875C83.3996 8.07812 83.4621 8.22266 83.4621 8.40234C83.4621 8.57812 83.3996 8.72266 83.2746 8.83594C83.1535 8.94531 82.9484 9 82.6593 9H78.5753C78.2863 9 78.0793 8.94531 77.9543 8.83594C77.8332 8.72266 77.7726 8.57617 77.7726 8.39648C77.7726 8.2207 77.8332 8.07812 77.9543 7.96875C78.0793 7.85547 78.2863 7.79883 78.5753 7.79883H80.0168V4.88086H79.05C78.7648 4.88086 78.5597 4.82617 78.4347 4.7168C78.3097 4.60352 78.2472 4.45703 78.2472 4.27734C78.2472 4.10156 78.3078 3.95898 78.4289 3.84961C78.5539 3.73633 78.7609 3.67969 79.05 3.67969H81.2179ZM89.3681 5.08594C89.1728 4.96484 88.9677 4.875 88.7528 4.81641C88.538 4.75391 88.3134 4.72266 88.079 4.72266C87.6142 4.72266 87.245 4.79883 86.9716 4.95117C86.8505 5.01758 86.79 5.08984 86.79 5.16797C86.79 5.25781 86.872 5.3457 87.036 5.43164C87.161 5.49414 87.4403 5.55469 87.8739 5.61328C88.6708 5.72266 89.2255 5.83203 89.538 5.94141C89.9482 6.08594 90.2646 6.30078 90.4872 6.58594C90.7099 6.87109 90.8212 7.17188 90.8212 7.48828C90.8212 7.91797 90.6318 8.27734 90.2528 8.56641C89.7099 8.98438 89.0048 9.19336 88.1376 9.19336C87.79 9.19336 87.4677 9.16211 87.1708 9.09961C86.8778 9.04102 86.6083 8.95312 86.3622 8.83594C86.3036 8.88672 86.2411 8.92578 86.1747 8.95312C86.1083 8.98047 86.04 8.99414 85.9696 8.99414C85.7821 8.99414 85.6318 8.93359 85.5185 8.8125C85.4091 8.6875 85.3544 8.48047 85.3544 8.19141V7.78711C85.3544 7.49805 85.4091 7.29297 85.5185 7.17188C85.6318 7.04688 85.7782 6.98438 85.9579 6.98438C86.1025 6.98438 86.2235 7.02539 86.3212 7.10742C86.4189 7.18555 86.495 7.32227 86.5497 7.51758C86.7333 7.67383 86.954 7.79297 87.2118 7.875C87.4696 7.95312 87.7665 7.99219 88.1025 7.99219C88.6532 7.99219 89.081 7.90625 89.3857 7.73438C89.5302 7.64844 89.6025 7.55859 89.6025 7.46484C89.6025 7.30859 89.4989 7.17969 89.2919 7.07812C89.0849 6.97656 88.6571 6.89062 88.0087 6.82031C87.0439 6.71875 86.3993 6.52344 86.0751 6.23438C85.7509 5.94922 85.5888 5.59766 85.5888 5.17969C85.5888 4.75 85.7704 4.39258 86.1337 4.10742C86.6259 3.7168 87.2704 3.52148 88.0673 3.52148C88.3446 3.52148 88.6103 3.54883 88.8642 3.60352C89.122 3.6543 89.3681 3.73438 89.6025 3.84375C89.6767 3.78906 89.745 3.74805 89.8075 3.7207C89.8739 3.69336 89.9345 3.67969 89.9892 3.67969C90.1532 3.67969 90.29 3.74219 90.3993 3.86719C90.5087 3.98828 90.5634 4.19336 90.5634 4.48242V4.77539C90.5634 5.03711 90.5321 5.21484 90.4696 5.30859C90.3446 5.48828 90.1747 5.57812 89.9599 5.57812C89.8153 5.57812 89.6884 5.5332 89.579 5.44336C89.4696 5.35352 89.3993 5.23438 89.3681 5.08594ZM95.2214 4.88086V7.28906C95.2214 7.54688 95.2741 7.7168 95.3796 7.79883C95.5436 7.92773 95.8366 7.99219 96.2585 7.99219C96.8717 7.99219 97.4382 7.86133 97.9577 7.59961C98.1569 7.49805 98.3132 7.44727 98.4264 7.44727C98.5827 7.44727 98.7175 7.50586 98.8307 7.62305C98.9479 7.74023 99.0065 7.88281 99.0065 8.05078C99.0065 8.20703 98.944 8.3418 98.819 8.45508C98.6276 8.63867 98.2487 8.80859 97.6823 8.96484C97.1198 9.11719 96.6452 9.19336 96.2585 9.19336C95.5124 9.19336 94.9518 9.0332 94.5768 8.71289C94.2057 8.38867 94.0202 7.99219 94.0202 7.52344V4.88086H93.5866C93.2975 4.88086 93.0905 4.82617 92.9655 4.7168C92.8444 4.60352 92.7839 4.45703 92.7839 4.27734C92.7839 4.10156 92.8444 3.95898 92.9655 3.84961C93.0905 3.73633 93.2975 3.67969 93.5866 3.67969H94.0202V2.5957C94.0202 2.30664 94.0749 2.10156 94.1842 1.98047C94.2975 1.85547 94.444 1.79297 94.6237 1.79297C94.7995 1.79297 94.9421 1.85547 95.0514 1.98047C95.1647 2.10156 95.2214 2.30664 95.2214 2.5957V3.67969H97.4421C97.7311 3.67969 97.9362 3.73633 98.0573 3.84961C98.1823 3.95898 98.2448 4.10352 98.2448 4.2832C98.2448 4.45898 98.1823 4.60352 98.0573 4.7168C97.9362 4.82617 97.7311 4.88086 97.4421 4.88086H95.2214Z" fill="#9194A2"/>
<path d="M108.285 9.42857C108.285 10.8482 107.133 12 105.714 12L104.856 12C104.382 12 103.999 11.617 103.999 11.1429C103.999 10.6687 104.382 10.2857 104.856 10.2857L105.714 10.2857C106.188 10.2857 106.571 9.90268 106.571 9.42857L106.571 8.42411C106.571 7.74107 106.841 7.0875 107.323 6.60536L107.929 6L107.323 5.39464C106.841 4.9125 106.571 4.25893 106.571 3.57589L106.571 2.57143C106.571 2.09732 106.188 1.71429 105.714 1.71429L104.856 1.71429C104.382 1.71429 103.999 1.33125 103.999 0.857142C103.999 0.383035 104.382 -6.10201e-07 104.856 -5.68754e-07L105.714 -4.9382e-07C107.133 -3.69711e-07 108.285 1.15179 108.285 2.57143L108.285 3.57589C108.285 3.80357 108.376 4.02054 108.537 4.18125L109.748 5.39464C110.082 5.72946 110.082 6.27321 109.748 6.60804L108.534 7.82143C108.373 7.98214 108.282 8.19911 108.282 8.42679L108.282 9.42857L108.285 9.42857Z" fill="#717584"/>
</svg>
