<svg width="48" height="48" viewBox="0 0 48 48" fill="none" xmlns="http://www.w3.org/2000/svg">
<path d="M5.99866 47C5.31886 47 4.67314 46.8649 4.08498 46.621L3.70193 47.5447C2.23529 46.9365 1.06213 45.7634 0.45394 44.2967L1.37767 43.9137C1.13377 43.3255 0.998657 42.6798 0.998657 42V39H-0.00134277V33H0.998657V30C0.998657 29.3202 1.13377 28.6745 1.37767 28.0863L0.45394 27.7033C1.06213 26.2366 2.23529 25.0635 3.70193 24.4553L4.08498 25.379C4.67314 25.1351 5.31886 25 5.99866 25H8.99866V24H14.9987V25H20.9987V24H26.9987V25H32.9987V24H38.9987V25H41.9987C42.6785 25 43.3242 25.1351 43.9123 25.379L44.2954 24.4553C45.762 25.0635 46.9352 26.2366 47.5434 27.7033L46.6196 28.0863C46.8635 28.6745 46.9987 29.3202 46.9987 30V33H47.9987V39H46.9987V42C46.9987 42.6798 46.8635 43.3255 46.6196 43.9137L47.5434 44.2967C46.9352 45.7634 45.762 46.9365 44.2954 47.5447L43.9123 46.621C43.3242 46.8649 42.6785 47 41.9987 47H38.9987V48H32.9987V47H26.9987V48H20.9987V47H14.9987V48H8.99866V47H5.99866Z" fill="white" stroke="#E4E5E9" stroke-width="2" stroke-dasharray="6 6"/>
<path d="M-0.00134277 6C-0.00134277 2.68629 2.68495 0 5.99866 0H41.9987C45.3124 0 47.9987 2.68629 47.9987 6V18C47.9987 21.3137 45.3124 24 41.9987 24H5.99866C2.68495 24 -0.00134277 21.3137 -0.00134277 18V6Z" fill="#717584"/>
</svg>
