<svg width="64" height="64" viewBox="0 0 64 64" fill="none" xmlns="http://www.w3.org/2000/svg">
<path d="M5.99866 63C5.31886 63 4.67314 62.8649 4.08498 62.621L3.70193 63.5447C2.23529 62.9365 1.06213 61.7634 0.45394 60.2967L1.37767 59.9137C1.13377 59.3255 0.998657 58.6798 0.998657 58V55.5H-0.00134277V50.5H0.998657V45.5H-0.00134277V40.5H0.998657V38C0.998657 37.3202 1.13377 36.6745 1.37767 36.0863L0.45394 35.7033C1.06213 34.2366 2.23529 33.0635 3.70193 32.4553L4.08498 33.379C4.67314 33.1351 5.31886 33 5.99866 33H9.24866V32H15.7487V33H22.2487V32H28.7487V33H35.2487V32H41.7487V33H48.2487V32H54.7487V33H57.9987C58.6785 33 59.3242 33.1351 59.9123 33.379L60.2954 32.4553C61.762 33.0635 62.9352 34.2366 63.5434 35.7033L62.6196 36.0863C62.8635 36.6745 62.9987 37.3202 62.9987 38V40.5H63.9987V45.5H62.9987V50.5H63.9987V55.5H62.9987V58C62.9987 58.6798 62.8635 59.3255 62.6196 59.9137L63.5434 60.2967C62.9352 61.7634 61.762 62.9365 60.2954 63.5447L59.9123 62.621C59.3242 62.8649 58.6785 63 57.9987 63H54.7487V64H48.2487V63H41.7487V64H35.2487V63H28.7487V64H22.2487V63H15.7487V64H9.24866V63H5.99866Z" fill="white" stroke="#E4E5E9" stroke-width="2" stroke-dasharray="6 6"/>
<path d="M-0.00134277 6C-0.00134277 2.68629 2.68495 0 5.99866 0H57.9987C61.3124 0 63.9987 2.68629 63.9987 6V26C63.9987 29.3137 61.3124 32 57.9987 32H5.99866C2.68495 32 -0.00134277 29.3137 -0.00134277 26V6Z" fill="#9194A2"/>
</svg>
