<svg width="48" height="48" viewBox="0 0 48 48" fill="none" xmlns="http://www.w3.org/2000/svg">
<rect x="28" y="2" width="18" height="18" rx="6" stroke="#717584" stroke-width="4"/>
<rect x="2" y="2" width="18" height="18" rx="6" stroke="#717584" stroke-width="4"/>
<rect x="2" y="28" width="18" height="18" rx="6" stroke="#717584" stroke-width="4"/>
<rect x="33" y="7" width="8" height="8" rx="2" fill="#717584"/>
<rect x="7" y="7" width="8" height="8" rx="2" fill="#717584"/>
<rect x="7" y="33" width="8" height="8" rx="2" fill="#717584"/>
<path d="M26 28C26 26.8954 26.8954 26 28 26H34V34H26V28Z" fill="#C7C9D0"/>
<path d="M34 26H40C41.1046 26 42 26.8954 42 28V32C42 33.1046 41.1046 34 40 34H34V26Z" fill="#C7C9D0"/>
<path d="M26 34H34V40C34 41.1046 33.1046 42 32 42H28C26.8954 42 26 41.1046 26 40V34Z" fill="#C7C9D0"/>
<rect x="38" y="38" width="8" height="8" rx="2" fill="#C7C9D0"/>
</svg>
