<svg width="79" height="36" viewBox="0 0 79 36" fill="none" xmlns="http://www.w3.org/2000/svg">
<path d="M28.375 4.125C27.2422 4.125 26.2266 4.73047 25.6602 5.6875C25.0938 6.66406 25.0938 7.85547 25.6602 8.8125C26.2266 9.78906 27.2422 10.375 28.375 10.375C29.4883 10.375 30.5039 9.78906 31.0703 8.8125C31.6367 7.85547 31.6367 6.66406 31.0703 5.6875C30.5039 4.73047 29.4883 4.125 28.375 4.125ZM32.75 7.25C32.75 8.83203 31.9102 10.2578 30.5625 11.0391C29.1953 11.8398 27.5352 11.8398 26.1875 11.0391C24.8203 10.2578 24 8.83203 24 7.25C24 5.6875 24.8203 4.26172 26.1875 3.48047C27.5352 2.67969 29.1953 2.67969 30.5625 3.48047C31.9102 4.26172 32.75 5.6875 32.75 7.25ZM34.75 4.125C34.75 3.44141 35.2969 2.875 36 2.875H37.875C39.5938 2.875 41 4.28125 41 6C41 7.73828 39.5938 9.125 37.875 9.125H36V11C36 11.3516 35.707 11.625 35.375 11.625C35.0234 11.625 34.75 11.3516 34.75 11V8.5V4.125ZM36 7.875H37.875C38.9102 7.875 39.75 7.03516 39.75 6C39.75 4.96484 38.9102 4.125 37.875 4.125H36V7.875ZM43.625 2.875H46.75H49.875C50.207 2.875 50.5 3.16797 50.5 3.5C50.5 3.85156 50.207 4.125 49.875 4.125H47.375V11C47.375 11.3516 47.082 11.625 46.75 11.625C46.3984 11.625 46.125 11.3516 46.125 11V4.125H43.625C43.2734 4.125 43 3.85156 43 3.5C43 3.16797 43.2734 2.875 43.625 2.875ZM53.125 2.875H55.625H58.125C58.457 2.875 58.75 3.16797 58.75 3.5C58.75 3.85156 58.457 4.125 58.125 4.125H56.25V10.375H58.125C58.457 10.375 58.75 10.668 58.75 11C58.75 11.3516 58.457 11.625 58.125 11.625H53.125C52.7734 11.625 52.5 11.3516 52.5 11C52.5 10.668 52.7734 10.375 53.125 10.375H55V4.125H53.125C52.7734 4.125 52.5 3.85156 52.5 3.5C52.5 3.16797 52.7734 2.875 53.125 2.875ZM65.125 4.125C63.9922 4.125 62.9766 4.73047 62.4102 5.6875C61.8438 6.66406 61.8438 7.85547 62.4102 8.8125C62.9766 9.78906 63.9922 10.375 65.125 10.375C66.2383 10.375 67.2539 9.78906 67.8203 8.8125C68.3867 7.85547 68.3867 6.66406 67.8203 5.6875C67.2539 4.73047 66.2383 4.125 65.125 4.125ZM69.5 7.25C69.5 8.83203 68.6602 10.2578 67.3125 11.0391C65.9453 11.8398 64.2852 11.8398 62.9375 11.0391C61.5703 10.2578 60.75 8.83203 60.75 7.25C60.75 5.6875 61.5703 4.26172 62.9375 3.48047C64.2852 2.67969 65.9453 2.67969 67.3125 3.48047C68.6602 4.26172 69.5 5.6875 69.5 7.25ZM71.9102 2.91406C72.1445 2.83594 72.4375 2.91406 72.5938 3.10938L77.75 9.28125V3.5C77.75 3.16797 78.0234 2.875 78.375 2.875C78.707 2.875 79 3.16797 79 3.5V11C79 11.2734 78.8242 11.5078 78.5703 11.6055C78.3359 11.6836 78.0625 11.6055 77.8867 11.4102L72.75 5.23828V11C72.75 11.3516 72.457 11.625 72.125 11.625C71.7734 11.625 71.5 11.3516 71.5 11V3.5C71.5 3.24609 71.6562 3.01172 71.9102 2.91406Z" fill="#9194A2"/>
<path d="M28.375 24.125C27.2422 24.125 26.2266 24.7305 25.6602 25.6875C25.0938 26.6641 25.0938 27.8555 25.6602 28.8125C26.2266 29.7891 27.2422 30.375 28.375 30.375C29.4883 30.375 30.5039 29.7891 31.0703 28.8125C31.6367 27.8555 31.6367 26.6641 31.0703 25.6875C30.5039 24.7305 29.4883 24.125 28.375 24.125ZM32.75 27.25C32.75 28.832 31.9102 30.2578 30.5625 31.0391C29.1953 31.8398 27.5352 31.8398 26.1875 31.0391C24.8203 30.2578 24 28.832 24 27.25C24 25.6875 24.8203 24.2617 26.1875 23.4805C27.5352 22.6797 29.1953 22.6797 30.5625 23.4805C31.9102 24.2617 32.75 25.6875 32.75 27.25ZM34.75 24.125C34.75 23.4414 35.2969 22.875 36 22.875H37.875C39.5938 22.875 41 24.2812 41 26C41 27.7383 39.5938 29.125 37.875 29.125H36V31C36 31.3516 35.707 31.625 35.375 31.625C35.0234 31.625 34.75 31.3516 34.75 31V28.5V24.125ZM36 27.875H37.875C38.9102 27.875 39.75 27.0352 39.75 26C39.75 24.9648 38.9102 24.125 37.875 24.125H36V27.875ZM43.625 22.875H46.75H49.875C50.207 22.875 50.5 23.168 50.5 23.5C50.5 23.8516 50.207 24.125 49.875 24.125H47.375V31C47.375 31.3516 47.082 31.625 46.75 31.625C46.3984 31.625 46.125 31.3516 46.125 31V24.125H43.625C43.2734 24.125 43 23.8516 43 23.5C43 23.168 43.2734 22.875 43.625 22.875ZM53.125 22.875H55.625H58.125C58.457 22.875 58.75 23.168 58.75 23.5C58.75 23.8516 58.457 24.125 58.125 24.125H56.25V30.375H58.125C58.457 30.375 58.75 30.668 58.75 31C58.75 31.3516 58.457 31.625 58.125 31.625H53.125C52.7734 31.625 52.5 31.3516 52.5 31C52.5 30.668 52.7734 30.375 53.125 30.375H55V24.125H53.125C52.7734 24.125 52.5 23.8516 52.5 23.5C52.5 23.168 52.7734 22.875 53.125 22.875ZM65.125 24.125C63.9922 24.125 62.9766 24.7305 62.4102 25.6875C61.8438 26.6641 61.8438 27.8555 62.4102 28.8125C62.9766 29.7891 63.9922 30.375 65.125 30.375C66.2383 30.375 67.2539 29.7891 67.8203 28.8125C68.3867 27.8555 68.3867 26.6641 67.8203 25.6875C67.2539 24.7305 66.2383 24.125 65.125 24.125ZM69.5 27.25C69.5 28.832 68.6602 30.2578 67.3125 31.0391C65.9453 31.8398 64.2852 31.8398 62.9375 31.0391C61.5703 30.2578 60.75 28.832 60.75 27.25C60.75 25.6875 61.5703 24.2617 62.9375 23.4805C64.2852 22.6797 65.9453 22.6797 67.3125 23.4805C68.6602 24.2617 69.5 25.6875 69.5 27.25ZM71.9102 22.9141C72.1445 22.8359 72.4375 22.9141 72.5938 23.1094L77.75 29.2812V23.5C77.75 23.168 78.0234 22.875 78.375 22.875C78.707 22.875 79 23.168 79 23.5V31C79 31.2734 78.8242 31.5078 78.5703 31.6055C78.3359 31.6836 78.0625 31.6055 77.8867 31.4102L72.75 25.2383V31C72.75 31.3516 72.457 31.625 72.125 31.625C71.7734 31.625 71.5 31.3516 71.5 31V23.5C71.5 23.2461 71.6562 23.0117 71.9102 22.9141Z" fill="#9194A2"/>
<circle cx="8" cy="8" r="7" fill="white" stroke="#E4E5E9" stroke-width="2"/>
<circle cx="8" cy="28" r="7" fill="white" stroke="#0070EF" stroke-width="2"/>
<circle cx="8" cy="28" r="4" fill="#0070EF"/>
</svg>
