<svg width="91" height="16" viewBox="0 0 91 16" fill="none" xmlns="http://www.w3.org/2000/svg">
<path d="M9.12156 0.562016L11.1511 4.71469L15.616 5.37038C15.9907 5.43283 16.3029 5.68261 16.4278 6.05729C16.5527 6.40074 16.459 6.80664 16.178 7.05643L12.9308 10.2724L13.7114 14.831C13.7738 15.2057 13.6177 15.5803 13.3055 15.7989C12.9932 16.0487 12.5873 16.0487 12.2439 15.8926L8.24731 13.7382L4.21953 15.8926C3.9073 16.0487 3.5014 16.0487 3.18917 15.7989C2.87694 15.5803 2.72082 15.2057 2.78327 14.831L3.53262 10.2724L0.285415 7.05643C0.0356298 6.80664 -0.0580396 6.40074 0.0356298 6.05729C0.160522 5.68261 0.472754 5.43283 0.847431 5.37038L5.34356 4.71469L7.34184 0.562016C7.49796 0.218562 7.84141 0 8.24731 0C8.62199 0 8.96545 0.218562 9.12156 0.562016Z" fill="#FCC041"/>
<path d="M27.6036 0.562016L29.6331 4.71469L34.098 5.37038C34.4727 5.43283 34.7849 5.68261 34.9098 6.05729C35.0347 6.40074 34.9411 6.80664 34.66 7.05643L31.4128 10.2724L32.1934 14.831C32.2559 15.2057 32.0997 15.5803 31.7875 15.7989C31.4753 16.0487 31.0694 16.0487 30.7259 15.8926L26.7294 13.7382L22.7016 15.8926C22.3894 16.0487 21.9835 16.0487 21.6712 15.7989C21.359 15.5803 21.2029 15.2057 21.2653 14.831L22.0147 10.2724L18.7675 7.05643C18.5177 6.80664 18.424 6.40074 18.5177 6.05729C18.6426 5.68261 18.9548 5.43283 19.3295 5.37038L23.8256 4.71469L25.8239 0.562016C25.98 0.218562 26.3235 0 26.7294 0C27.104 0 27.4475 0.218562 27.6036 0.562016Z" fill="#FCC041"/>
<path d="M46.0857 0.562016L48.1152 4.71469L52.5801 5.37038C52.9548 5.43283 53.267 5.68261 53.3919 6.05729C53.5168 6.40074 53.4231 6.80664 53.1421 7.05643L49.8949 10.2724L50.6755 14.831C50.7379 15.2057 50.5818 15.5803 50.2696 15.7989C49.9573 16.0487 49.5514 16.0487 49.208 15.8926L45.2114 13.7382L41.1836 15.8926C40.8714 16.0487 40.4655 16.0487 40.1533 15.7989C39.841 15.5803 39.6849 15.2057 39.7474 14.831L40.4967 10.2724L37.2495 7.05643C36.9997 6.80664 36.9061 6.40074 36.9997 6.05729C37.1246 5.68261 37.4369 5.43283 37.8115 5.37038L42.3077 4.71469L44.306 0.562016C44.4621 0.218562 44.8055 0 45.2114 0C45.5861 0 45.9296 0.218562 46.0857 0.562016Z" fill="#FCC041"/>
<path d="M64.5677 0.562016L66.5972 4.71469L71.0621 5.37038C71.4368 5.43283 71.749 5.68261 71.8739 6.05729C71.9988 6.40074 71.9052 6.80664 71.6242 7.05643L68.3769 10.2724L69.1575 14.831C69.22 15.2057 69.0639 15.5803 68.7516 15.7989C68.4394 16.0487 68.0335 16.0487 67.69 15.8926L63.6935 13.7382L59.6657 15.8926C59.3535 16.0487 58.9476 16.0487 58.6353 15.7989C58.3231 15.5803 58.167 15.2057 58.2294 14.831L58.9788 10.2724L55.7316 7.05643C55.4818 6.80664 55.3881 6.40074 55.4818 6.05729C55.6067 5.68261 55.9189 5.43283 56.2936 5.37038L60.7897 4.71469L62.788 0.562016C62.9441 0.218562 63.2876 0 63.6935 0C64.0682 0 64.4116 0.218562 64.5677 0.562016Z" fill="#FCC041"/>
<path d="M83.0498 0.562016L85.0793 4.71469L89.5442 5.37038C89.9189 5.43283 90.2311 5.68261 90.356 6.05729C90.4809 6.40074 90.3872 6.80664 90.1062 7.05643L86.859 10.2724L87.6396 14.831C87.702 15.2057 87.5459 15.5803 87.2337 15.7989C86.9214 16.0487 86.5155 16.0487 86.1721 15.8926L82.1755 13.7382L78.1477 15.8926C77.8355 16.0487 77.4296 16.0487 77.1174 15.7989C76.8052 15.5803 76.649 15.2057 76.7115 14.831L77.4608 10.2724L74.2136 7.05643C73.9638 6.80664 73.8702 6.40074 73.9638 6.05729C74.0887 5.68261 74.401 5.43283 74.7756 5.37038L79.2718 4.71469L81.2701 0.562016C81.4262 0.218562 81.7696 0 82.1755 0C82.5502 0 82.8937 0.218562 83.0498 0.562016Z" fill="#E4E5E9"/>
</svg>
