<svg width="113" height="12" viewBox="0 0 113 12" fill="none" xmlns="http://www.w3.org/2000/svg">
<path d="M4.32812 2.75C3.83594 2.75 3.34375 2.96094 2.99219 3.3125L2.26562 4.03906C1.98438 4.34375 1.49219 4.34375 1.21094 4.03906C0.90625 3.75781 0.90625 3.26562 1.21094 2.98438L1.9375 2.25781C2.57031 1.625 3.4375 1.25 4.32812 1.25C6.22656 1.25 7.75 2.77344 7.75 4.67188C7.75 5.5625 7.375 6.42969 6.74219 7.0625L3.55469 10.25H7.75C8.14844 10.25 8.5 10.6016 8.5 11C8.5 11.4219 8.14844 11.75 7.75 11.75H1.75C1.44531 11.75 1.16406 11.5859 1.04688 11.3047C0.929688 11.0234 1 10.6953 1.21094 10.4844L5.6875 6.00781C6.03906 5.65625 6.25 5.16406 6.25 4.67188C6.25 3.61719 5.38281 2.75 4.32812 2.75ZM18.2687 1.29688C18.6672 1.15625 19.0891 1.36719 19.2531 1.74219L21.8312 8.63281L23.8234 1.78906C23.9172 1.48438 24.1984 1.25 24.55 1.25C24.8781 1.25 25.1594 1.48438 25.2531 1.78906L27.2453 8.63281L29.8469 1.74219C29.9875 1.36719 30.4094 1.15625 30.8078 1.32031C31.1828 1.46094 31.3937 1.88281 31.2297 2.28125L27.8547 11.2812C27.7609 11.5859 27.4562 11.7734 27.1281 11.75C26.8 11.75 26.5422 11.5391 26.4484 11.2109L24.55 4.69531L22.6281 11.2109C22.5344 11.5391 22.2531 11.75 21.9484 11.75C21.6203 11.7734 21.3156 11.5859 21.2219 11.2812L17.8469 2.28125C17.6828 1.88281 17.8937 1.46094 18.2687 1.29688ZM35.2 1.25H40.45C40.8484 1.25 41.2 1.60156 41.2 2C41.2 2.42188 40.8484 2.75 40.45 2.75H35.2V5.75H38.95C39.3484 5.75 39.7 6.10156 39.7 6.5C39.7 6.92188 39.3484 7.25 38.95 7.25H35.2V10.25H40.45C40.8484 10.25 41.2 10.6016 41.2 11C41.2 11.4219 40.8484 11.75 40.45 11.75H35.2C34.3563 11.75 33.7 11.0938 33.7 10.25V6.5V2.75C33.7 1.92969 34.3563 1.25 35.2 1.25ZM45.1 1.25H50.35C50.7484 1.25 51.1 1.60156 51.1 2C51.1 2.42188 50.7484 2.75 50.35 2.75H45.1V5.75H48.85C49.2484 5.75 49.6 6.10156 49.6 6.5C49.6 6.92188 49.2484 7.25 48.85 7.25H45.1V10.25H50.35C50.7484 10.25 51.1 10.6016 51.1 11C51.1 11.4219 50.7484 11.75 50.35 11.75H45.1C44.2562 11.75 43.6 11.0938 43.6 10.25V6.5V2.75C43.6 1.92969 44.2562 1.25 45.1 1.25ZM60.7891 2.53906L57.5781 5.84375L60.8594 10.5781C61.0938 10.9297 61 11.3984 60.6719 11.6328C60.3203 11.8672 59.8516 11.7734 59.6172 11.4453L56.5 6.94531L55 8.49219V11C55 11.4219 54.6484 11.75 54.25 11.75C53.8281 11.75 53.5 11.4219 53.5 11V8.1875V2C53.5 1.60156 53.8281 1.25 54.25 1.25C54.6484 1.25 55 1.60156 55 2V6.33594L56.0547 5.23438L59.7109 1.48438C59.9922 1.20312 60.4609 1.17969 60.7656 1.48438C61.0703 1.76562 61.0703 2.23438 60.7891 2.53906ZM65.7203 2.98438C65.2516 3.17188 64.9938 3.5 64.9234 3.89844C64.8531 4.22656 64.9 4.4375 64.9703 4.60156C65.0406 4.74219 65.1578 4.88281 65.3453 5.02344C65.8141 5.35156 66.4938 5.53906 67.3375 5.79688C67.3609 5.79688 67.3844 5.79688 67.4078 5.82031C68.1813 6.03125 69.0953 6.28906 69.775 6.75781C70.15 7.01562 70.4781 7.36719 70.6891 7.8125C70.9 8.28125 70.9469 8.79688 70.8297 9.38281C70.6656 10.3672 70.0094 11.0469 69.1656 11.4219C68.3219 11.7734 67.2906 11.8438 66.2594 11.6797C65.6969 11.5859 64.7828 11.2812 64.1969 11.0703C64.0797 11.0469 63.9859 11 63.8922 10.9766C63.5172 10.8359 63.3063 10.4141 63.4234 10.0156C63.5641 9.64062 63.9859 9.42969 64.3844 9.54688C64.5016 9.59375 64.6188 9.61719 64.7594 9.66406C65.3453 9.875 66.0719 10.1328 66.4938 10.2031C67.3609 10.3203 68.0641 10.25 68.5563 10.0391C69.0484 9.82812 69.2828 9.52344 69.3531 9.125C69.4234 8.79688 69.3766 8.5625 69.3063 8.42188C69.2594 8.28125 69.1188 8.14062 68.9313 8C68.4625 7.67188 67.7828 7.48438 66.9391 7.22656C66.9156 7.22656 66.8922 7.22656 66.8688 7.20312C66.0953 6.99219 65.1813 6.73438 64.5016 6.26562C64.1266 6.00781 63.7984 5.65625 63.5875 5.21094C63.4 4.74219 63.3531 4.22656 63.4469 3.64062L64.1734 3.78125L63.4469 3.64062C63.6109 2.65625 64.2672 1.97656 65.1109 1.60156C65.9547 1.25 66.9859 1.17969 68.0172 1.34375C68.3219 1.39062 69.2594 1.57812 69.5875 1.67188C69.9859 1.76562 70.2203 2.1875 70.1031 2.58594C70.0094 2.98438 69.5875 3.21875 69.1891 3.10156C68.9313 3.03125 68.0641 2.86719 67.7828 2.82031L67.9 2.09375L67.7828 2.82031C66.9156 2.70312 66.2125 2.77344 65.7203 2.98438Z" fill="#9194A2"/>
<path d="M83.1797 1.71875L85.9922 8.46875L86.9297 10.7188C87.0938 11.0938 86.9062 11.5391 86.5312 11.7031C86.1562 11.8672 85.7109 11.6797 85.5469 11.3047L84.7969 9.5H80.1797L79.4297 11.3047C79.2656 11.6797 78.8438 11.8672 78.4453 11.7031C78.0703 11.5391 77.8828 11.0938 78.0469 10.7188L78.9844 8.46875L81.7969 1.71875C81.9141 1.4375 82.1953 1.25 82.5 1.25C82.7812 1.25 83.0625 1.4375 83.1797 1.71875ZM84.1875 8L82.5 3.96875L80.8125 8H84.1875ZM94.65 2.75C92.5641 2.75 90.9 4.4375 90.9 6.5C90.9 8.58594 92.5641 10.25 94.65 10.25C96.4547 10.25 97.9781 8.96094 98.3062 7.25H95.4C94.9781 7.25 94.65 6.92188 94.65 6.5C94.65 6.10156 94.9781 5.75 95.4 5.75H98.775C99.3609 5.75 99.9234 6.26562 99.8766 6.94531C99.6422 9.64062 97.3922 11.75 94.65 11.75C91.7437 11.75 89.4 9.40625 89.4 6.5C89.4 3.61719 91.7437 1.25 94.65 1.25C95.9859 1.25 97.2047 1.76562 98.1422 2.58594C98.4469 2.86719 98.4703 3.33594 98.1891 3.66406C97.9312 3.96875 97.4391 3.99219 97.1344 3.71094C96.4781 3.125 95.6109 2.75 94.65 2.75ZM107.55 2.75C106.191 2.75 104.972 3.47656 104.292 4.625C103.612 5.79688 103.612 7.22656 104.292 8.375C104.972 9.54688 106.191 10.25 107.55 10.25C108.886 10.25 110.105 9.54688 110.784 8.375C111.464 7.22656 111.464 5.79688 110.784 4.625C110.105 3.47656 108.886 2.75 107.55 2.75ZM112.8 6.5C112.8 8.39844 111.792 10.1094 110.175 11.0469C108.534 12.0078 106.542 12.0078 104.925 11.0469C103.284 10.1094 102.3 8.39844 102.3 6.5C102.3 4.625 103.284 2.91406 104.925 1.97656C106.542 1.01562 108.534 1.01562 110.175 1.97656C111.792 2.91406 112.8 4.625 112.8 6.5Z" fill="#717584"/>
</svg>
