<svg width="72" height="12" viewBox="0 0 72 12" fill="none" xmlns="http://www.w3.org/2000/svg">
<path d="M1.71362 2.57143C1.71362 1.15179 2.8654 0 4.28504 0H5.14219C5.61629 0 5.99933 0.383036 5.99933 0.857143C5.99933 1.33125 5.61629 1.71429 5.14219 1.71429H4.28504C3.81094 1.71429 3.4279 2.09732 3.4279 2.57143V3.57589C3.4279 4.25893 3.15737 4.9125 2.67522 5.39464L2.06987 6L2.67522 6.60536C3.15737 7.0875 3.4279 7.74107 3.4279 8.42411V9.42857C3.4279 9.90268 3.81094 10.2857 4.28504 10.2857H5.14219C5.61629 10.2857 5.99933 10.6688 5.99933 11.1429C5.99933 11.617 5.61629 12 5.14219 12H4.28504C2.8654 12 1.71362 10.8482 1.71362 9.42857V8.42411C1.71362 8.19643 1.62254 7.97946 1.46183 7.81875L0.251116 6.60536C-0.0837054 6.27054 -0.0837054 5.72679 0.251116 5.39196L1.46451 4.17857C1.62522 4.01786 1.71629 3.80089 1.71629 3.57321V2.57143H1.71362Z" fill="#717584"/>
<path d="M16.6146 6.94922H11.6868C11.8118 7.26172 12.0325 7.51367 12.3489 7.70508C12.6693 7.89648 13.1009 7.99219 13.6439 7.99219C14.0892 7.99219 14.681 7.89648 15.4193 7.70508C15.7239 7.62695 15.9349 7.58789 16.0521 7.58789C16.2122 7.58789 16.347 7.64453 16.4564 7.75781C16.5657 7.87109 16.6204 8.01367 16.6204 8.18555C16.6204 8.3418 16.5618 8.47461 16.4446 8.58398C16.2884 8.72852 15.9075 8.86719 15.3021 9C14.6966 9.12891 14.1146 9.19336 13.556 9.19336C12.595 9.19336 11.8255 8.92188 11.2474 8.37891C10.6732 7.83594 10.386 7.16797 10.386 6.375C10.386 5.53125 10.6966 4.8457 11.3177 4.31836C11.9427 3.78711 12.6614 3.52148 13.4739 3.52148C13.9622 3.52148 14.4095 3.60742 14.8157 3.7793C15.2259 3.95117 15.5306 4.13672 15.7298 4.33594C16.011 4.625 16.2435 4.98242 16.4271 5.4082C16.5521 5.70508 16.6146 6.04883 16.6146 6.43945V6.94922ZM15.2845 5.74805C15.1009 5.4043 14.8607 5.14844 14.5638 4.98047C14.2669 4.80859 13.9134 4.72266 13.5032 4.72266C13.097 4.72266 12.7454 4.80859 12.4485 4.98047C12.1517 5.14844 11.9095 5.4043 11.722 5.74805H15.2845ZM19.8311 3.67969V4.08398C20.0499 3.89648 20.2901 3.75586 20.5518 3.66211C20.8175 3.56836 21.1046 3.52148 21.4132 3.52148C22.1241 3.52148 22.6866 3.74219 23.1007 4.18359C23.4288 4.53516 23.5928 4.99609 23.5928 5.56641V7.79883C23.8468 7.79883 24.0343 7.85547 24.1553 7.96875C24.2764 8.07812 24.337 8.22266 24.337 8.40234C24.337 8.57812 24.2745 8.72266 24.1495 8.83594C24.0284 8.94531 23.8233 9 23.5343 9H22.4503C22.1612 9 21.9542 8.94531 21.8292 8.83594C21.7081 8.72266 21.6475 8.57617 21.6475 8.39648C21.6475 8.2207 21.7081 8.07812 21.8292 7.96875C21.9503 7.85547 22.1378 7.79883 22.3917 7.79883V5.53125C22.3917 5.26953 22.3214 5.07812 22.1807 4.95703C21.9971 4.80078 21.7218 4.72266 21.3546 4.72266C21.0772 4.72266 20.8331 4.77734 20.6221 4.88672C20.4151 4.99219 20.1514 5.21875 19.8311 5.56641V7.79883C20.1397 7.79883 20.3389 7.82812 20.4288 7.88672C20.6202 8.00391 20.7159 8.17578 20.7159 8.40234C20.7159 8.57812 20.6534 8.72266 20.5284 8.83594C20.4073 8.94531 20.2022 9 19.9132 9H18.5479C18.2589 9 18.0518 8.94531 17.9268 8.83594C17.8057 8.72266 17.7452 8.57617 17.7452 8.39648C17.7452 8.17773 17.8389 8.00781 18.0264 7.88672C18.1202 7.82812 18.3214 7.79883 18.63 7.79883V4.88086C18.376 4.88086 18.1885 4.82422 18.0675 4.71094C17.9464 4.59766 17.8858 4.45312 17.8858 4.27734C17.8858 4.10156 17.9464 3.95898 18.0675 3.84961C18.1925 3.73633 18.3995 3.67969 18.6885 3.67969H19.8311ZM28.1981 4.88086V7.28906C28.1981 7.54688 28.2508 7.7168 28.3563 7.79883C28.5203 7.92773 28.8133 7.99219 29.2352 7.99219C29.8485 7.99219 30.4149 7.86133 30.9344 7.59961C31.1336 7.49805 31.2899 7.44727 31.4032 7.44727C31.5594 7.44727 31.6942 7.50586 31.8075 7.62305C31.9246 7.74023 31.9832 7.88281 31.9832 8.05078C31.9832 8.20703 31.9207 8.3418 31.7957 8.45508C31.6043 8.63867 31.2254 8.80859 30.659 8.96484C30.0965 9.11719 29.6219 9.19336 29.2352 9.19336C28.4891 9.19336 27.9285 9.0332 27.5535 8.71289C27.1825 8.38867 26.9969 7.99219 26.9969 7.52344V4.88086H26.5633C26.2743 4.88086 26.0672 4.82617 25.9422 4.7168C25.8211 4.60352 25.7606 4.45703 25.7606 4.27734C25.7606 4.10156 25.8211 3.95898 25.9422 3.84961C26.0672 3.73633 26.2743 3.67969 26.5633 3.67969H26.9969V2.5957C26.9969 2.30664 27.0516 2.10156 27.161 1.98047C27.2743 1.85547 27.4207 1.79297 27.6004 1.79297C27.7762 1.79297 27.9188 1.85547 28.0282 1.98047C28.1414 2.10156 28.1981 2.30664 28.1981 2.5957V3.67969H30.4188C30.7078 3.67969 30.9129 3.73633 31.034 3.84961C31.159 3.95898 31.2215 4.10352 31.2215 4.2832C31.2215 4.45898 31.159 4.60352 31.034 4.7168C30.9129 4.82617 30.7078 4.88086 30.4188 4.88086H28.1981ZM35.692 3.67969V4.42969C36.1959 4.06641 36.5924 3.82422 36.8814 3.70312C37.1744 3.58203 37.4478 3.52148 37.7017 3.52148C38.0924 3.52148 38.4713 3.66602 38.8385 3.95508C39.0885 4.15039 39.2135 4.34961 39.2135 4.55273C39.2135 4.72461 39.1529 4.87109 39.0318 4.99219C38.9146 5.10938 38.7721 5.16797 38.6041 5.16797C38.4557 5.16797 38.2994 5.09375 38.1353 4.94531C37.9713 4.79688 37.8248 4.72266 37.6959 4.72266C37.5279 4.72266 37.276 4.82812 36.94 5.03906C36.608 5.25 36.192 5.56641 35.692 5.98828V7.79883H37.4029C37.692 7.79883 37.8971 7.85547 38.0182 7.96875C38.1432 8.07812 38.2057 8.22266 38.2057 8.40234C38.2057 8.57812 38.1432 8.72266 38.0182 8.83594C37.8971 8.94531 37.692 9 37.4029 9H33.776C33.4869 9 33.2799 8.94531 33.1549 8.83594C33.0338 8.72266 32.9732 8.57617 32.9732 8.39648C32.9732 8.2207 33.0338 8.07812 33.1549 7.96875C33.2799 7.85547 33.4869 7.79883 33.776 7.79883H34.4908V4.88086H34.0572C33.7682 4.88086 33.5611 4.82617 33.4361 4.7168C33.315 4.60352 33.2545 4.45703 33.2545 4.27734C33.2545 4.10156 33.315 3.95898 33.4361 3.84961C33.5611 3.73633 33.7682 3.67969 34.0572 3.67969H35.692ZM43.8187 1.40039V2.67188H42.389V1.40039H43.8187ZM43.9828 3.67969V7.79883H45.4242C45.7132 7.79883 45.9183 7.85547 46.0394 7.96875C46.1644 8.07812 46.2269 8.22266 46.2269 8.40234C46.2269 8.57812 46.1644 8.72266 46.0394 8.83594C45.9183 8.94531 45.7132 9 45.4242 9H41.3402C41.0511 9 40.8441 8.94531 40.7191 8.83594C40.598 8.72266 40.5375 8.57617 40.5375 8.39648C40.5375 8.2207 40.598 8.07812 40.7191 7.96875C40.8441 7.85547 41.0511 7.79883 41.3402 7.79883H42.7816V4.88086H41.8148C41.5296 4.88086 41.3246 4.82617 41.1996 4.7168C41.0746 4.60352 41.0121 4.45703 41.0121 4.27734C41.0121 4.10156 41.0726 3.95898 41.1937 3.84961C41.3187 3.73633 41.5257 3.67969 41.8148 3.67969H43.9828ZM53.8497 6.94922H48.922C49.047 7.26172 49.2677 7.51367 49.5841 7.70508C49.9044 7.89648 50.336 7.99219 50.879 7.99219C51.3243 7.99219 51.9161 7.89648 52.6544 7.70508C52.9591 7.62695 53.17 7.58789 53.2872 7.58789C53.4474 7.58789 53.5821 7.64453 53.6915 7.75781C53.8009 7.87109 53.8556 8.01367 53.8556 8.18555C53.8556 8.3418 53.797 8.47461 53.6798 8.58398C53.5235 8.72852 53.1427 8.86719 52.5372 9C51.9318 9.12891 51.3497 9.19336 50.7911 9.19336C49.8302 9.19336 49.0607 8.92188 48.4825 8.37891C47.9083 7.83594 47.6212 7.16797 47.6212 6.375C47.6212 5.53125 47.9318 4.8457 48.5528 4.31836C49.1778 3.78711 49.8966 3.52148 50.7091 3.52148C51.1974 3.52148 51.6446 3.60742 52.0509 3.7793C52.461 3.95117 52.7657 4.13672 52.965 4.33594C53.2462 4.625 53.4786 4.98242 53.6622 5.4082C53.7872 5.70508 53.8497 6.04883 53.8497 6.43945V6.94922ZM52.5196 5.74805C52.336 5.4043 52.0958 5.14844 51.7989 4.98047C51.5021 4.80859 51.1485 4.72266 50.7384 4.72266C50.3321 4.72266 49.9806 4.80859 49.6837 4.98047C49.3868 5.14844 49.1446 5.4043 48.9571 5.74805H52.5196ZM59.58 5.08594C59.3846 4.96484 59.1796 4.875 58.9647 4.81641C58.7499 4.75391 58.5253 4.72266 58.2909 4.72266C57.826 4.72266 57.4569 4.79883 57.1835 4.95117C57.0624 5.01758 57.0018 5.08984 57.0018 5.16797C57.0018 5.25781 57.0839 5.3457 57.2479 5.43164C57.3729 5.49414 57.6522 5.55469 58.0858 5.61328C58.8827 5.72266 59.4374 5.83203 59.7499 5.94141C60.16 6.08594 60.4764 6.30078 60.6991 6.58594C60.9217 6.87109 61.0331 7.17188 61.0331 7.48828C61.0331 7.91797 60.8436 8.27734 60.4647 8.56641C59.9217 8.98438 59.2167 9.19336 58.3495 9.19336C58.0018 9.19336 57.6796 9.16211 57.3827 9.09961C57.0897 9.04102 56.8202 8.95312 56.5741 8.83594C56.5155 8.88672 56.453 8.92578 56.3866 8.95312C56.3202 8.98047 56.2518 8.99414 56.1815 8.99414C55.994 8.99414 55.8436 8.93359 55.7303 8.8125C55.621 8.6875 55.5663 8.48047 55.5663 8.19141V7.78711C55.5663 7.49805 55.621 7.29297 55.7303 7.17188C55.8436 7.04688 55.9901 6.98438 56.1698 6.98438C56.3143 6.98438 56.4354 7.02539 56.5331 7.10742C56.6307 7.18555 56.7069 7.32227 56.7616 7.51758C56.9452 7.67383 57.1659 7.79297 57.4237 7.875C57.6815 7.95312 57.9784 7.99219 58.3143 7.99219C58.8651 7.99219 59.2928 7.90625 59.5975 7.73438C59.7421 7.64844 59.8143 7.55859 59.8143 7.46484C59.8143 7.30859 59.7108 7.17969 59.5038 7.07812C59.2967 6.97656 58.869 6.89062 58.2206 6.82031C57.2557 6.71875 56.6112 6.52344 56.287 6.23438C55.9628 5.94922 55.8007 5.59766 55.8007 5.17969C55.8007 4.75 55.9823 4.39258 56.3456 4.10742C56.8378 3.7168 57.4823 3.52148 58.2792 3.52148C58.5565 3.52148 58.8221 3.54883 59.076 3.60352C59.3339 3.6543 59.58 3.73438 59.8143 3.84375C59.8885 3.78906 59.9569 3.74805 60.0194 3.7207C60.0858 3.69336 60.1464 3.67969 60.201 3.67969C60.3651 3.67969 60.5018 3.74219 60.6112 3.86719C60.7206 3.98828 60.7753 4.19336 60.7753 4.48242V4.77539C60.7753 5.03711 60.744 5.21484 60.6815 5.30859C60.5565 5.48828 60.3866 5.57812 60.1717 5.57812C60.0272 5.57812 59.9003 5.5332 59.7909 5.44336C59.6815 5.35352 59.6112 5.23438 59.58 5.08594Z" fill="#9194A2"/>
<path d="M70.285 9.42857C70.285 10.8482 69.1333 12 67.7136 12L66.8565 12C66.3824 12 65.9993 11.617 65.9993 11.1429C65.9993 10.6687 66.3824 10.2857 66.8565 10.2857L67.7136 10.2857C68.1877 10.2857 68.5708 9.90268 68.5708 9.42857L68.5708 8.42411C68.5708 7.74107 68.8413 7.0875 69.3234 6.60536L69.9288 6L69.3234 5.39464C68.8413 4.9125 68.5708 4.25893 68.5708 3.57589L68.5708 2.57143C68.5708 2.09732 68.1877 1.71429 67.7136 1.71429L66.8565 1.71429C66.3824 1.71429 65.9993 1.33125 65.9993 0.857142C65.9993 0.383035 66.3824 -6.10201e-07 66.8565 -5.68754e-07L67.7136 -4.9382e-07C69.1333 -3.69711e-07 70.285 1.15179 70.285 2.57143L70.285 3.57589C70.285 3.80357 70.3761 4.02054 70.5368 4.18125L71.7475 5.39464C72.0824 5.72946 72.0824 6.27321 71.7475 6.60804L70.5341 7.82143C70.3734 7.98214 70.2824 8.19911 70.2824 8.42679L70.2824 9.42857L70.285 9.42857Z" fill="#717584"/>
</svg>
