<svg width="112" height="40" viewBox="0 0 112 40" fill="none" xmlns="http://www.w3.org/2000/svg">
<path d="M5.99866 9H105.999C108.76 9 110.999 11.2386 110.999 14V34C110.999 36.7614 108.76 39 105.999 39H5.99865C3.23723 39 0.998657 36.7614 0.998657 34V14C0.998657 11.2386 3.23723 9 5.99866 9Z" fill="white" stroke="#E4E5E9" stroke-width="2"/>
<path d="M93.4596 28.0391L88.9596 23.5391C88.6549 23.2578 88.6549 22.7656 88.9596 22.4844C89.2408 22.1797 89.733 22.1797 90.0143 22.4844L93.9987 26.4453L97.9596 22.4844C98.2408 22.1797 98.733 22.1797 99.0143 22.4844C99.319 22.7656 99.319 23.2578 99.0143 23.5391L94.5143 28.0391C94.233 28.3438 93.7408 28.3438 93.4596 28.0391Z" fill="#717584"/>
<rect x="-0.00134277" width="48" height="4" rx="2" fill="#9194A2"/>
<rect x="11.9987" y="22" width="48" height="4" rx="2" fill="#E4E5E9"/>
</svg>
