<svg width="97" height="46" viewBox="0 0 97 46" fill="none" xmlns="http://www.w3.org/2000/svg">
<path d="M6.99866 15H90.9987C93.7601 15 95.9987 17.2386 95.9987 20V40C95.9987 42.7614 93.7601 45 90.9987 45H6.99866C4.23723 45 1.99866 42.7614 1.99866 40V20C1.99866 17.2386 4.23723 15 6.99866 15Z" fill="white" stroke="#E4E5E9" stroke-width="2"/>
<path d="M80.4596 34.0391L75.9596 29.5391C75.6549 29.2578 75.6549 28.7656 75.9596 28.4844C76.2408 28.1797 76.733 28.1797 77.0143 28.4844L80.9987 32.4453L84.9596 28.4844C85.2408 28.1797 85.733 28.1797 86.0143 28.4844C86.319 28.7656 86.319 29.2578 86.0143 29.5391L81.5143 34.0391C81.233 34.3438 80.7408 34.3438 80.4596 34.0391Z" fill="#717584"/>
<path d="M2.93225 2.32031C2.54163 2.47656 2.32678 2.75 2.26819 3.08203C2.20959 3.35547 2.24866 3.53125 2.30725 3.66797C2.36584 3.78516 2.4635 3.90234 2.61975 4.01953C3.01038 4.29297 3.57678 4.44922 4.27991 4.66406C4.29944 4.66406 4.31897 4.66406 4.3385 4.68359C4.98303 4.85938 5.74475 5.07422 6.31116 5.46484C6.62366 5.67969 6.89709 5.97266 7.07288 6.34375C7.24866 6.73438 7.28772 7.16406 7.19006 7.65234C7.05334 8.47266 6.50647 9.03906 5.80334 9.35156C5.10022 9.64453 4.24084 9.70312 3.38147 9.56641C2.91272 9.48828 2.151 9.23438 1.66272 9.05859C1.56506 9.03906 1.48694 9 1.40881 8.98047C1.09631 8.86328 0.920532 8.51172 1.01819 8.17969C1.13538 7.86719 1.48694 7.69141 1.81897 7.78906C1.91663 7.82812 2.01428 7.84766 2.13147 7.88672C2.61975 8.0625 3.22522 8.27734 3.57678 8.33594C4.29944 8.43359 4.88538 8.375 5.29553 8.19922C5.70569 8.02344 5.901 7.76953 5.95959 7.4375C6.01819 7.16406 5.97913 6.96875 5.92053 6.85156C5.88147 6.73438 5.76428 6.61719 5.60803 6.5C5.21741 6.22656 4.651 6.07031 3.94788 5.85547C3.92834 5.85547 3.90881 5.85547 3.88928 5.83594C3.24475 5.66016 2.48303 5.44531 1.91663 5.05469C1.60413 4.83984 1.33069 4.54688 1.15491 4.17578C0.998657 3.78516 0.959595 3.35547 1.03772 2.86719L1.64319 2.98438L1.03772 2.86719C1.17444 2.04688 1.72131 1.48047 2.42444 1.16797C3.12756 0.875 3.98694 0.816406 4.84631 0.953125C5.10022 0.992188 5.88147 1.14844 6.15491 1.22656C6.48694 1.30469 6.68225 1.65625 6.58459 1.98828C6.50647 2.32031 6.15491 2.51562 5.82288 2.41797C5.60803 2.35938 4.88538 2.22266 4.651 2.18359L4.74866 1.57812L4.651 2.18359C3.92834 2.08594 3.34241 2.14453 2.93225 2.32031ZM10.4987 0.875H14.8737C15.2057 0.875 15.4987 1.16797 15.4987 1.5C15.4987 1.85156 15.2057 2.125 14.8737 2.125H10.4987V4.625H13.6237C13.9557 4.625 14.2487 4.91797 14.2487 5.25C14.2487 5.60156 13.9557 5.875 13.6237 5.875H10.4987V8.375H14.8737C15.2057 8.375 15.4987 8.66797 15.4987 9C15.4987 9.35156 15.2057 9.625 14.8737 9.625H10.4987C9.79553 9.625 9.24866 9.07812 9.24866 8.375V5.25V2.125C9.24866 1.44141 9.79553 0.875 10.4987 0.875ZM18.7487 0.875C19.0807 0.875 19.3737 1.16797 19.3737 1.5V8.375H23.1237C23.4557 8.375 23.7487 8.66797 23.7487 9C23.7487 9.35156 23.4557 9.625 23.1237 9.625H18.7487C18.3971 9.625 18.1237 9.35156 18.1237 9V1.5C18.1237 1.16797 18.3971 0.875 18.7487 0.875ZM26.9987 0.875H31.3737C31.7057 0.875 31.9987 1.16797 31.9987 1.5C31.9987 1.85156 31.7057 2.125 31.3737 2.125H26.9987V4.625H30.1237C30.4557 4.625 30.7487 4.91797 30.7487 5.25C30.7487 5.60156 30.4557 5.875 30.1237 5.875H26.9987V8.375H31.3737C31.7057 8.375 31.9987 8.66797 31.9987 9C31.9987 9.35156 31.7057 9.625 31.3737 9.625H26.9987C26.2955 9.625 25.7487 9.07812 25.7487 8.375V5.25V2.125C25.7487 1.44141 26.2955 0.875 26.9987 0.875ZM40.4244 3.04297C39.194 1.83203 37.3776 1.83203 36.1471 3.04297C34.9362 4.27344 34.9362 6.24609 36.1471 7.47656C37.3776 8.6875 39.194 8.6875 40.4244 7.47656C40.6588 7.22266 41.0494 7.22266 41.3033 7.47656C41.5377 7.71094 41.5377 8.10156 41.3033 8.35547C39.5846 10.0547 36.9869 10.0547 35.2682 8.35547C33.569 6.63672 33.569 3.88281 35.2682 2.16406C36.9869 0.464844 39.5846 0.464844 41.3033 2.16406C41.5377 2.41797 41.5377 2.80859 41.3033 3.04297C41.0494 3.29688 40.6588 3.29688 40.4244 3.04297ZM44.1237 0.875H47.2487H50.3737C50.7057 0.875 50.9987 1.16797 50.9987 1.5C50.9987 1.85156 50.7057 2.125 50.3737 2.125H47.8737V9C47.8737 9.35156 47.5807 9.625 47.2487 9.625C46.8971 9.625 46.6237 9.35156 46.6237 9V2.125H44.1237C43.7721 2.125 43.4987 1.85156 43.4987 1.5C43.4987 1.16797 43.7721 0.875 44.1237 0.875Z" fill="#717584"/>
<path d="M15.3737 27.125C14.2408 27.125 13.2252 27.7305 12.6588 28.6875C12.0924 29.6641 12.0924 30.8555 12.6588 31.8125C13.2252 32.7891 14.2408 33.375 15.3737 33.375C16.4869 33.375 17.5026 32.7891 18.069 31.8125C18.6354 30.8555 18.6354 29.6641 18.069 28.6875C17.5026 27.7305 16.4869 27.125 15.3737 27.125ZM19.7487 30.25C19.7487 31.832 18.9088 33.2578 17.5612 34.0391C16.194 34.8398 14.5338 34.8398 13.1862 34.0391C11.819 33.2578 10.9987 31.832 10.9987 30.25C10.9987 28.6875 11.819 27.2617 13.1862 26.4805C14.5338 25.6797 16.194 25.6797 17.5612 26.4805C18.9088 27.2617 19.7487 28.6875 19.7487 30.25ZM21.7487 27.125C21.7487 26.4414 22.2955 25.875 22.9987 25.875H24.8737C26.5924 25.875 27.9987 27.2812 27.9987 29C27.9987 30.7383 26.5924 32.125 24.8737 32.125H22.9987V34C22.9987 34.3516 22.7057 34.625 22.3737 34.625C22.0221 34.625 21.7487 34.3516 21.7487 34V31.5V27.125ZM22.9987 30.875H24.8737C25.9088 30.875 26.7487 30.0352 26.7487 29C26.7487 27.9648 25.9088 27.125 24.8737 27.125H22.9987V30.875ZM30.6237 25.875H33.7487H36.8737C37.2057 25.875 37.4987 26.168 37.4987 26.5C37.4987 26.8516 37.2057 27.125 36.8737 27.125H34.3737V34C34.3737 34.3516 34.0807 34.625 33.7487 34.625C33.3971 34.625 33.1237 34.3516 33.1237 34V27.125H30.6237C30.2721 27.125 29.9987 26.8516 29.9987 26.5C29.9987 26.168 30.2721 25.875 30.6237 25.875ZM40.1237 25.875H42.6237H45.1237C45.4557 25.875 45.7487 26.168 45.7487 26.5C45.7487 26.8516 45.4557 27.125 45.1237 27.125H43.2487V33.375H45.1237C45.4557 33.375 45.7487 33.668 45.7487 34C45.7487 34.3516 45.4557 34.625 45.1237 34.625H40.1237C39.7721 34.625 39.4987 34.3516 39.4987 34C39.4987 33.668 39.7721 33.375 40.1237 33.375H41.9987V27.125H40.1237C39.7721 27.125 39.4987 26.8516 39.4987 26.5C39.4987 26.168 39.7721 25.875 40.1237 25.875ZM52.1237 27.125C50.9908 27.125 49.9752 27.7305 49.4088 28.6875C48.8424 29.6641 48.8424 30.8555 49.4088 31.8125C49.9752 32.7891 50.9908 33.375 52.1237 33.375C53.2369 33.375 54.2526 32.7891 54.819 31.8125C55.3854 30.8555 55.3854 29.6641 54.819 28.6875C54.2526 27.7305 53.2369 27.125 52.1237 27.125ZM56.4987 30.25C56.4987 31.832 55.6588 33.2578 54.3112 34.0391C52.944 34.8398 51.2838 34.8398 49.9362 34.0391C48.569 33.2578 47.7487 31.832 47.7487 30.25C47.7487 28.6875 48.569 27.2617 49.9362 26.4805C51.2838 25.6797 52.944 25.6797 54.3112 26.4805C55.6588 27.2617 56.4987 28.6875 56.4987 30.25ZM58.9088 25.9141C59.1432 25.8359 59.4362 25.9141 59.5924 26.1094L64.7487 32.2812V26.5C64.7487 26.168 65.0221 25.875 65.3737 25.875C65.7057 25.875 65.9987 26.168 65.9987 26.5V34C65.9987 34.2734 65.8229 34.5078 65.569 34.6055C65.3346 34.6836 65.0612 34.6055 64.8854 34.4102L59.7487 28.2383V34C59.7487 34.3516 59.4557 34.625 59.1237 34.625C58.7721 34.625 58.4987 34.3516 58.4987 34V26.5C58.4987 26.2461 58.6549 26.0117 58.9088 25.9141Z" fill="#9194A2"/>
</svg>
