<svg width="96" height="20" viewBox="0 0 96 20" fill="none" xmlns="http://www.w3.org/2000/svg">
<path d="M12 0.875H15.125H18.25C18.582 0.875 18.875 1.16797 18.875 1.5C18.875 1.85156 18.582 2.125 18.25 2.125H15.75V9C15.75 9.35156 15.457 9.625 15.125 9.625C14.7734 9.625 14.5 9.35156 14.5 9V2.125H12C11.6484 2.125 11.375 1.85156 11.375 1.5C11.375 1.16797 11.6484 0.875 12 0.875ZM25.1914 1.26562L27.5352 6.89062L28.3164 8.76562C28.4531 9.07812 28.2969 9.44922 27.9844 9.58594C27.6719 9.72266 27.3008 9.56641 27.1641 9.25391L26.5391 7.75H22.6914L22.0664 9.25391C21.9297 9.56641 21.5781 9.72266 21.2461 9.58594C20.9336 9.44922 20.7773 9.07812 20.9141 8.76562L21.6953 6.89062L24.0391 1.26562C24.1367 1.03125 24.3711 0.875 24.625 0.875C24.8594 0.875 25.0938 1.03125 25.1914 1.26562ZM26.0312 6.5L24.625 3.14062L23.2188 6.5H26.0312ZM31.625 0.875H33.5C34.8672 0.875 36 2.00781 36 3.375C36 4 35.7656 4.54688 35.4141 4.99609C36.1367 5.42578 36.625 6.22656 36.625 7.125C36.625 8.51172 35.4922 9.625 34.125 9.625H31.625C30.9219 9.625 30.375 9.07812 30.375 8.375V5.25V2.125C30.375 1.44141 30.9219 0.875 31.625 0.875ZM33.5 4.625C34.1836 4.625 34.75 4.07812 34.75 3.375C34.75 2.69141 34.1836 2.125 33.5 2.125H31.625V4.625H33.5ZM31.625 5.875V8.375H34.125C34.8086 8.375 35.375 7.82812 35.375 7.125C35.375 6.44141 34.8086 5.875 34.125 5.875H33.5H31.625Z" fill="#0070EF"/>
<path d="M60 0.875H63.125H66.25C66.582 0.875 66.875 1.16797 66.875 1.5C66.875 1.85156 66.582 2.125 66.25 2.125H63.75V9C63.75 9.35156 63.457 9.625 63.125 9.625C62.7734 9.625 62.5 9.35156 62.5 9V2.125H60C59.6484 2.125 59.375 1.85156 59.375 1.5C59.375 1.16797 59.6484 0.875 60 0.875ZM73.1914 1.26562L75.5352 6.89062L76.3164 8.76562C76.4531 9.07812 76.2969 9.44922 75.9844 9.58594C75.6719 9.72266 75.3008 9.56641 75.1641 9.25391L74.5391 7.75H70.6914L70.0664 9.25391C69.9297 9.56641 69.5781 9.72266 69.2461 9.58594C68.9336 9.44922 68.7773 9.07812 68.9141 8.76562L69.6953 6.89062L72.0391 1.26562C72.1367 1.03125 72.3711 0.875 72.625 0.875C72.8594 0.875 73.0938 1.03125 73.1914 1.26562ZM74.0312 6.5L72.625 3.14062L71.2188 6.5H74.0312ZM79.625 0.875H81.5C82.8672 0.875 84 2.00781 84 3.375C84 4 83.7656 4.54688 83.4141 4.99609C84.1367 5.42578 84.625 6.22656 84.625 7.125C84.625 8.51172 83.4922 9.625 82.125 9.625H79.625C78.9219 9.625 78.375 9.07812 78.375 8.375V5.25V2.125C78.375 1.44141 78.9219 0.875 79.625 0.875ZM81.5 4.625C82.1836 4.625 82.75 4.07812 82.75 3.375C82.75 2.69141 82.1836 2.125 81.5 2.125H79.625V4.625H81.5ZM79.625 5.875V8.375H82.125C82.8086 8.375 83.375 7.82812 83.375 7.125C83.375 6.44141 82.8086 5.875 82.125 5.875H81.5H79.625Z" fill="#717584"/>
<line x1="96" y1="19" y2="19" stroke="#E4E5E9" stroke-width="2"/>
<line x1="48" y1="19" y2="19" stroke="#0070EF" stroke-width="2"/>
</svg>
