<svg width="67" height="28" viewBox="0 0 67 28" fill="none" xmlns="http://www.w3.org/2000/svg">
<path d="M6 1H61C63.7614 1 66 3.23858 66 6V22C66 24.7614 63.7614 27 61 27H6C3.23858 27 1 24.7614 1 22V6C1 3.23858 3.23858 1 6 1Z" fill="#F1F2F3"/>
<path d="M6 1H61C63.7614 1 66 3.23858 66 6V22C66 24.7614 63.7614 27 61 27H6C3.23858 27 1 24.7614 1 22V6C1 3.23858 3.23858 1 6 1Z" stroke="#E4E5E9" stroke-width="2"/>
<path d="M12.25 10.375C12.25 9.76562 12.7422 9.25 13.375 9.27344H16.8672C17.2656 9.27344 17.6406 9.41406 17.9219 9.69531L22.0469 13.8203C22.6328 14.4062 22.6328 15.3672 22.0469 15.9531L18.9297 19.0703C18.3438 19.6562 17.3828 19.6562 16.7969 19.0703L12.6719 14.9453C12.3906 14.6641 12.25 14.2891 12.25 13.8906V10.375ZM14.875 11.125C14.4531 11.125 14.125 11.4766 14.125 11.875C14.125 12.2969 14.4531 12.625 14.875 12.625C15.2734 12.625 15.625 12.2969 15.625 11.875C15.625 11.4766 15.2734 11.125 14.875 11.125Z" fill="#717584"/>
<rect x="31" y="12" width="24" height="4" rx="2" fill="#9194A2"/>
</svg>
