<svg width="56" height="28" viewBox="0 0 56 28" fill="none" xmlns="http://www.w3.org/2000/svg">
<path d="M6 1H50C52.7614 1 55 3.23858 55 6V22C55 24.7614 52.7614 27 50 27H6C3.23858 27 1 24.7614 1 22V6C1 3.23858 3.23858 1 6 1Z" fill="#F1F2F3"/>
<path d="M6 1H50C52.7614 1 55 3.23858 55 6V22C55 24.7614 52.7614 27 50 27H6C3.23858 27 1 24.7614 1 22V6C1 3.23858 3.23858 1 6 1Z" stroke="#E4E5E9" stroke-width="2"/>
<path d="M12.25 10.375C12.25 9.76562 12.7422 9.25 13.375 9.27344H16.8672C17.2656 9.27344 17.6406 9.41406 17.9219 9.69531L22.0469 13.8203C22.6328 14.4062 22.6328 15.3672 22.0469 15.9531L18.9297 19.0703C18.3438 19.6562 17.3828 19.6562 16.7969 19.0703L12.6719 14.9453C12.3906 14.6641 12.25 14.2891 12.25 13.8906V10.375ZM14.875 11.125C14.4531 11.125 14.125 11.4766 14.125 11.875C14.125 12.2969 14.4531 12.625 14.875 12.625C15.2734 12.625 15.625 12.2969 15.625 11.875C15.625 11.4766 15.2734 11.125 14.875 11.125Z" fill="#717584"/>
<path d="M43.0156 12.0391L40.5547 14.5L43.0156 16.9844C43.3203 17.2656 43.3203 17.7578 43.0156 18.0391C42.7344 18.3438 42.2422 18.3438 41.9609 18.0391L39.5 15.5781L37.0156 18.0391C36.7344 18.3438 36.2422 18.3438 35.9609 18.0391C35.6562 17.7578 35.6562 17.2656 35.9609 16.9844L38.4219 14.5L35.9609 12.0391C35.6562 11.7578 35.6562 11.2656 35.9609 10.9844C36.2422 10.6797 36.7344 10.6797 37.0156 10.9844L39.5 13.4453L41.9609 10.9844C42.2422 10.6797 42.7344 10.6797 43.0156 10.9844C43.3203 11.2656 43.3203 11.7578 43.0156 12.0391Z" fill="#717584"/>
</svg>
