<svg width="96" height="48" viewBox="0 0 96 48" fill="none" xmlns="http://www.w3.org/2000/svg">
<path d="M6 15H90C92.7614 15 95 17.2386 95 20V42C95 44.7614 92.7614 47 90 47H6C3.23858 47 1 44.7614 1 42V20C1 17.2386 3.23858 15 6 15Z" fill="white" stroke="#E4E5E9" stroke-width="2"/>
<path d="M88.2929 43.2929L91.2929 40.2929" stroke="#717584" stroke-width="2" stroke-linecap="round"/>
<path d="M83 43L91 35" stroke="#717584" stroke-width="2" stroke-linecap="round"/>
<path d="M1 0.875H4.125H7.25C7.58203 0.875 7.875 1.16797 7.875 1.5C7.875 1.85156 7.58203 2.125 7.25 2.125H4.75V9C4.75 9.35156 4.45703 9.625 4.125 9.625C3.77344 9.625 3.5 9.35156 3.5 9V2.125H1C0.648438 2.125 0.375 1.85156 0.375 1.5C0.375 1.16797 0.648438 0.875 1 0.875ZM11.125 0.875H15.5C15.832 0.875 16.125 1.16797 16.125 1.5C16.125 1.85156 15.832 2.125 15.5 2.125H11.125V4.625H14.25C14.582 4.625 14.875 4.91797 14.875 5.25C14.875 5.60156 14.582 5.875 14.25 5.875H11.125V8.375H15.5C15.832 8.375 16.125 8.66797 16.125 9C16.125 9.35156 15.832 9.625 15.5 9.625H11.125C10.4219 9.625 9.875 9.07812 9.875 8.375V5.25V2.125C9.875 1.44141 10.4219 0.875 11.125 0.875ZM25.4688 1.91016L22.6758 5.25L25.4688 8.60938C25.6836 8.88281 25.6641 9.27344 25.3906 9.48828C25.1172 9.70312 24.7266 9.68359 24.5117 9.41016L21.875 6.22656L19.2188 9.41016C19.0039 9.68359 18.6133 9.70312 18.3398 9.48828C18.0664 9.27344 18.0469 8.88281 18.2617 8.60938L21.0547 5.25L18.2617 1.91016C18.0469 1.63672 18.0664 1.24609 18.3398 1.03125C18.6133 0.816406 19.0039 0.835938 19.2188 1.10938L21.875 4.27344L24.5117 1.10938C24.7266 0.835938 25.1172 0.816406 25.3906 1.03125C25.6641 1.24609 25.6836 1.63672 25.4688 1.91016ZM28.25 0.875H31.375H34.5C34.832 0.875 35.125 1.16797 35.125 1.5C35.125 1.85156 34.832 2.125 34.5 2.125H32V9C32 9.35156 31.707 9.625 31.375 9.625C31.0234 9.625 30.75 9.35156 30.75 9V2.125H28.25C27.8984 2.125 27.625 1.85156 27.625 1.5C27.625 1.16797 27.8984 0.875 28.25 0.875ZM41.4414 1.26562L43.7852 6.89062L44.5664 8.76562C44.7031 9.07812 44.5469 9.44922 44.2344 9.58594C43.9219 9.72266 43.5508 9.56641 43.4141 9.25391L42.7891 7.75H38.9414L38.3164 9.25391C38.1797 9.56641 37.8281 9.72266 37.4961 9.58594C37.1836 9.44922 37.0273 9.07812 37.1641 8.76562L37.9453 6.89062L40.2891 1.26562C40.3867 1.03125 40.6211 0.875 40.875 0.875C41.1094 0.875 41.3438 1.03125 41.4414 1.26562ZM42.2812 6.5L40.875 3.14062L39.4688 6.5H42.2812ZM47.875 0.875H50.0625C51.6055 0.875 52.875 2.14453 52.875 3.6875C52.875 4.87891 52.1328 5.89453 51.1172 6.30469L52.7578 8.64844C52.9531 8.94141 52.875 9.33203 52.6016 9.52734C52.3086 9.72266 51.918 9.64453 51.7227 9.37109L49.7305 6.5H47.875V9C47.875 9.35156 47.582 9.625 47.25 9.625C46.8984 9.625 46.625 9.35156 46.625 9V5.875V2.125C46.625 1.44141 47.1719 0.875 47.875 0.875ZM50.0625 5.25C50.9219 5.25 51.625 4.56641 51.625 3.6875C51.625 2.82812 50.9219 2.125 50.0625 2.125H47.875V5.25H50.0625ZM56.125 0.875H60.5C60.832 0.875 61.125 1.16797 61.125 1.5C61.125 1.85156 60.832 2.125 60.5 2.125H56.125V4.625H59.25C59.582 4.625 59.875 4.91797 59.875 5.25C59.875 5.60156 59.582 5.875 59.25 5.875H56.125V8.375H60.5C60.832 8.375 61.125 8.66797 61.125 9C61.125 9.35156 60.832 9.625 60.5 9.625H56.125C55.4219 9.625 54.875 9.07812 54.875 8.375V5.25V2.125C54.875 1.44141 55.4219 0.875 56.125 0.875ZM67.4414 1.26562L69.7852 6.89062L70.5664 8.76562C70.7031 9.07812 70.5469 9.44922 70.2344 9.58594C69.9219 9.72266 69.5508 9.56641 69.4141 9.25391L68.7891 7.75H64.9414L64.3164 9.25391C64.1797 9.56641 63.8281 9.72266 63.4961 9.58594C63.1836 9.44922 63.0273 9.07812 63.1641 8.76562L63.9453 6.89062L66.2891 1.26562C66.3867 1.03125 66.6211 0.875 66.875 0.875C67.1094 0.875 67.3438 1.03125 67.4414 1.26562ZM68.2812 6.5L66.875 3.14062L65.4688 6.5H68.2812Z" fill="#717584"/>
</svg>
