<svg width="36" height="36" viewBox="0 0 36 36" fill="none" xmlns="http://www.w3.org/2000/svg">
<path d="M11.1213 28.1213C9.94975 26.9497 9.94975 25.0503 11.1213 23.8787L16.0711 18.9289C17.2426 17.7574 19.1421 17.7574 20.3137 18.9289L25.2635 23.8787C26.435 25.0503 26.435 26.9497 25.2635 28.1213L20.3137 33.0711C19.1421 34.2426 17.2426 34.2426 16.0711 33.0711L11.1213 28.1213Z" fill="#717584"/>
<path d="M0 6.80762C0 3.49391 2.68629 0.807617 6 0.807617H30C33.3137 0.807617 36 3.49391 36 6.80762V22.8076C36 26.1213 33.3137 28.8076 30 28.8076H6C2.68629 28.8076 0 26.1213 0 22.8076V6.80762Z" fill="#717584"/>
<path d="M18 21.3076C15.8438 21.3076 13.875 20.1826 12.7969 18.3076C11.7188 16.4561 11.7188 14.1826 12.7969 12.3076C13.875 10.4561 15.8438 9.30762 18 9.30762C20.1328 9.30762 22.1016 10.4561 23.1797 12.3076C24.2578 14.1826 24.2578 16.4561 23.1797 18.3076C22.1016 20.1826 20.1328 21.3076 18 21.3076ZM17.0625 17.1826C16.7344 17.1826 16.5 17.4404 16.5 17.7451C16.5 18.0732 16.7344 18.3076 17.0625 18.3076H18.9375C19.2422 18.3076 19.5 18.0732 19.5 17.7451C19.5 17.4404 19.2422 17.1826 18.9375 17.1826H18.75V15.1201C18.75 14.8154 18.4922 14.5576 18.1875 14.5576H17.0625C16.7344 14.5576 16.5 14.8154 16.5 15.1201C16.5 15.4482 16.7344 15.6826 17.0625 15.6826H17.625V17.1826H17.0625ZM18 12.3076C17.5781 12.3076 17.25 12.6592 17.25 13.0576C17.25 13.4795 17.5781 13.8076 18 13.8076C18.3984 13.8076 18.75 13.4795 18.75 13.0576C18.75 12.6592 18.3984 12.3076 18 12.3076Z" fill="white"/>
</svg>
