<svg width="68" height="36" viewBox="0 0 68 36" fill="none" xmlns="http://www.w3.org/2000/svg">
<path d="M0 6.80762C0 3.49391 2.68629 0.807617 6 0.807617H62C65.3137 0.807617 68 3.49391 68 6.80762V22.8076C68 26.1213 65.3137 28.8076 62 28.8076H6C2.68629 28.8076 0 26.1213 0 22.8076V6.80762Z" fill="#717584"/>
<path d="M18 21.3076C15.8438 21.3076 13.875 20.1826 12.7969 18.3076C11.7188 16.4561 11.7188 14.1826 12.7969 12.3076C13.875 10.4561 15.8438 9.30762 18 9.30762C20.1328 9.30762 22.1016 10.4561 23.1797 12.3076C24.2578 14.1826 24.2578 16.4561 23.1797 18.3076C22.1016 20.1826 20.1328 21.3076 18 21.3076ZM17.0625 17.1826C16.7344 17.1826 16.5 17.4404 16.5 17.7451C16.5 18.0732 16.7344 18.3076 17.0625 18.3076H18.9375C19.2422 18.3076 19.5 18.0732 19.5 17.7451C19.5 17.4404 19.2422 17.1826 18.9375 17.1826H18.75V15.1201C18.75 14.8154 18.4922 14.5576 18.1875 14.5576H17.0625C16.7344 14.5576 16.5 14.8154 16.5 15.1201C16.5 15.4482 16.7344 15.6826 17.0625 15.6826H17.625V17.1826H17.0625ZM18 12.3076C17.5781 12.3076 17.25 12.6592 17.25 13.0576C17.25 13.4795 17.5781 13.8076 18 13.8076C18.3984 13.8076 18.75 13.4795 18.75 13.0576C18.75 12.6592 18.3984 12.3076 18 12.3076Z" fill="white"/>
<rect x="32" y="12.8076" width="24" height="4" rx="2" fill="white"/>
<rect x="24.8076" y="26" width="13" height="13" rx="2" transform="rotate(-45 24.8076 26)" fill="#717584"/>
</svg>
