<svg width="70" height="46" viewBox="0 0 70 46" fill="none" xmlns="http://www.w3.org/2000/svg">
<path d="M5.46094 10.0391L0.960938 5.53906C0.65625 5.25781 0.65625 4.76562 0.960938 4.48438C1.24219 4.17969 1.73438 4.17969 2.01562 4.48438L6 8.44531L9.96094 4.48438C10.2422 4.17969 10.7344 4.17969 11.0156 4.48438C11.3203 4.76562 11.3203 5.25781 11.0156 5.53906L6.51562 10.0391C6.23438 10.3438 5.74219 10.3438 5.46094 10.0391Z" fill="#717584"/>
<path d="M20.875 1.875H24H27.125C27.457 1.875 27.75 2.16797 27.75 2.5C27.75 2.85156 27.457 3.125 27.125 3.125H24.625V10C24.625 10.3516 24.332 10.625 24 10.625C23.6484 10.625 23.375 10.3516 23.375 10V3.125H20.875C20.5234 3.125 20.25 2.85156 20.25 2.5C20.25 2.16797 20.5234 1.875 20.875 1.875ZM31.75 1.875H33.9375C35.4805 1.875 36.75 3.14453 36.75 4.6875C36.75 5.87891 36.0078 6.89453 34.9922 7.30469L36.6328 9.64844C36.8281 9.94141 36.75 10.332 36.4766 10.5273C36.1836 10.7227 35.793 10.6445 35.5977 10.3711L33.6055 7.5H31.75V10C31.75 10.3516 31.457 10.625 31.125 10.625C30.7734 10.625 30.5 10.3516 30.5 10V6.875V3.125C30.5 2.44141 31.0469 1.875 31.75 1.875ZM33.9375 6.25C34.7969 6.25 35.5 5.56641 35.5 4.6875C35.5 3.82812 34.7969 3.125 33.9375 3.125H31.75V6.25H33.9375ZM40.75 1.875H45.125C45.457 1.875 45.75 2.16797 45.75 2.5C45.75 2.85156 45.457 3.125 45.125 3.125H40.75V5.625H43.875C44.207 5.625 44.5 5.91797 44.5 6.25C44.5 6.60156 44.207 6.875 43.875 6.875H40.75V9.375H45.125C45.457 9.375 45.75 9.66797 45.75 10C45.75 10.3516 45.457 10.625 45.125 10.625H40.75C40.0469 10.625 39.5 10.0781 39.5 9.375V6.25V3.125C39.5 2.44141 40.0469 1.875 40.75 1.875ZM49.75 1.875H54.125C54.457 1.875 54.75 2.16797 54.75 2.5C54.75 2.85156 54.457 3.125 54.125 3.125H49.75V5.625H52.875C53.207 5.625 53.5 5.91797 53.5 6.25C53.5 6.60156 53.207 6.875 52.875 6.875H49.75V9.375H54.125C54.457 9.375 54.75 9.66797 54.75 10C54.75 10.3516 54.457 10.625 54.125 10.625H49.75C49.0469 10.625 48.5 10.0781 48.5 9.375V6.25V3.125C48.5 2.44141 49.0469 1.875 49.75 1.875Z" fill="#717584"/>
<line x1="6.5" y1="14" x2="6.5" y2="46" stroke="#E4E5E9" stroke-width="2"/>
<path d="M26.0156 21.9844C26.3203 22.2656 26.3203 22.7578 26.0156 23.0391L21.5156 27.5391C21.2344 27.8438 20.7422 27.8438 20.4609 27.5391C20.1562 27.2578 20.1562 26.7656 20.4609 26.4844L24.4219 22.5L20.4609 18.5391C20.1562 18.2578 20.1562 17.7656 20.4609 17.4844C20.7422 17.1797 21.2344 17.1797 21.5156 17.4844L26.0156 21.9844Z" fill="#717584"/>
<path d="M36 17.875C36.332 17.875 36.625 18.168 36.625 18.5V25.375H40.375C40.707 25.375 41 25.668 41 26C41 26.3516 40.707 26.625 40.375 26.625H36C35.6484 26.625 35.375 26.3516 35.375 26V18.5C35.375 18.168 35.6484 17.875 36 17.875ZM45 17.875H49.375C49.707 17.875 50 18.168 50 18.5C50 18.8516 49.707 19.125 49.375 19.125H45V21.625H48.125C48.457 21.625 48.75 21.918 48.75 22.25C48.75 22.6016 48.457 22.875 48.125 22.875H45V25.375H49.375C49.707 25.375 50 25.668 50 26C50 26.3516 49.707 26.625 49.375 26.625H45C44.2969 26.625 43.75 26.0781 43.75 25.375V22.25V19.125C43.75 18.4414 44.2969 17.875 45 17.875ZM57.0664 18.2656L59.4102 23.8906L60.1914 25.7656C60.3281 26.0781 60.1719 26.4492 59.8594 26.5859C59.5469 26.7227 59.1758 26.5664 59.0391 26.2539L58.4141 24.75H54.5664L53.9414 26.2539C53.8047 26.5664 53.4531 26.7227 53.1211 26.5859C52.8086 26.4492 52.6523 26.0781 52.7891 25.7656L53.5703 23.8906L55.9141 18.2656C56.0117 18.0312 56.2461 17.875 56.5 17.875C56.7344 17.875 56.9688 18.0312 57.0664 18.2656ZM57.9062 23.5L56.5 20.1406L55.0938 23.5H57.9062ZM64.25 17.875H68.625C68.957 17.875 69.25 18.168 69.25 18.5C69.25 18.8516 68.957 19.125 68.625 19.125H64.25V21.625H67.375C67.707 21.625 68 21.918 68 22.25C68 22.6016 67.707 22.875 67.375 22.875H64.25V26C64.25 26.3516 63.957 26.625 63.625 26.625C63.2734 26.625 63 26.3516 63 26V22.25V19.125C63 18.4414 63.5469 17.875 64.25 17.875Z" fill="#717584"/>
<path d="M26.0156 37.9844C26.3203 38.2656 26.3203 38.7578 26.0156 39.0391L21.5156 43.5391C21.2344 43.8438 20.7422 43.8438 20.4609 43.5391C20.1562 43.2578 20.1562 42.7656 20.4609 42.4844L24.4219 38.5L20.4609 34.5391C20.1562 34.2578 20.1562 33.7656 20.4609 33.4844C20.7422 33.1797 21.2344 33.1797 21.5156 33.4844L26.0156 37.9844Z" fill="#717584"/>
<path d="M36 33.875C36.332 33.875 36.625 34.168 36.625 34.5V41.375H40.375C40.707 41.375 41 41.668 41 42C41 42.3516 40.707 42.625 40.375 42.625H36C35.6484 42.625 35.375 42.3516 35.375 42V34.5C35.375 34.168 35.6484 33.875 36 33.875ZM45 33.875H49.375C49.707 33.875 50 34.168 50 34.5C50 34.8516 49.707 35.125 49.375 35.125H45V37.625H48.125C48.457 37.625 48.75 37.918 48.75 38.25C48.75 38.6016 48.457 38.875 48.125 38.875H45V41.375H49.375C49.707 41.375 50 41.668 50 42C50 42.3516 49.707 42.625 49.375 42.625H45C44.2969 42.625 43.75 42.0781 43.75 41.375V38.25V35.125C43.75 34.4414 44.2969 33.875 45 33.875ZM57.0664 34.2656L59.4102 39.8906L60.1914 41.7656C60.3281 42.0781 60.1719 42.4492 59.8594 42.5859C59.5469 42.7227 59.1758 42.5664 59.0391 42.2539L58.4141 40.75H54.5664L53.9414 42.2539C53.8047 42.5664 53.4531 42.7227 53.1211 42.5859C52.8086 42.4492 52.6523 42.0781 52.7891 41.7656L53.5703 39.8906L55.9141 34.2656C56.0117 34.0312 56.2461 33.875 56.5 33.875C56.7344 33.875 56.9688 34.0312 57.0664 34.2656ZM57.9062 39.5L56.5 36.1406L55.0938 39.5H57.9062ZM64.25 33.875H68.625C68.957 33.875 69.25 34.168 69.25 34.5C69.25 34.8516 68.957 35.125 68.625 35.125H64.25V37.625H67.375C67.707 37.625 68 37.918 68 38.25C68 38.6016 67.707 38.875 67.375 38.875H64.25V42C64.25 42.3516 63.957 42.625 63.625 42.625C63.2734 42.625 63 42.3516 63 42V38.25V35.125C63 34.4414 63.5469 33.875 64.25 33.875Z" fill="#717584"/>
</svg>
