<svg width="48" height="48" viewBox="0 0 48 48" fill="none" xmlns="http://www.w3.org/2000/svg">
<path d="M6 47C5.3202 47 4.67448 46.8649 4.08633 46.621L3.70327 47.5447C2.23663 46.9365 1.06347 45.7634 0.455283 44.2967L1.37901 43.9137C1.13511 43.3255 1 42.6798 1 42V39H0V33H1V27H0V21H1V15H0V9H1V6C1 5.3202 1.13511 4.67448 1.37901 4.08633L0.455283 3.70327C1.06348 2.23663 2.23663 1.06348 3.70327 0.455283L4.08633 1.37901C4.67448 1.13511 5.3202 1 6 1H9V0H15V1H21V0H27V1H33V0H39V1H42C42.6798 1 43.3255 1.13511 43.9137 1.37901L44.2967 0.455283C45.7634 1.06348 46.9365 2.23663 47.5447 3.70327L46.621 4.08633C46.8649 4.67448 47 5.3202 47 6V9H48V15H47V21H48V27H47V33H48V39H47V42C47 42.6798 46.8649 43.3255 46.621 43.9137L47.5447 44.2967C46.9365 45.7634 45.7634 46.9365 44.2967 47.5447L43.9137 46.621C43.3255 46.8649 42.6798 47 42 47H39V48H33V47H27V48H21V47H15V48H9V47H6Z" stroke="#C7C9D0" stroke-width="2" stroke-linejoin="round" stroke-dasharray="6 6"/>
<path d="M15.1875 16.1875L18.6875 18.9062C20.0938 17.8438 21.8438 17 24 17C26.5 17 28.5312 18.1562 30 19.5312C31.4688 20.875 32.4375 22.5 32.9062 23.625C33 23.875 33 24.1562 32.9062 24.4062C32.5 25.4062 31.6562 26.8438 30.4062 28.0938L33.6875 30.6875C34.0312 30.9375 34.0938 31.4062 33.8125 31.7188C33.5625 32.0625 33.0938 32.125 32.7812 31.8438L14.2812 17.3438C13.9375 17.0938 13.875 16.625 14.1562 16.3125C14.4062 15.9688 14.875 15.9062 15.1875 16.1875ZM20.9688 20.6875L23.7812 22.9062C23.9062 22.625 24 22.3438 24 22.0312C24 21.7812 23.9375 21.5938 23.875 21.375C23.8438 21.2188 23.9375 21 24.125 21.0312C25.4062 21.0625 26.5312 21.9375 26.875 23.25C27.0625 23.9375 27 24.625 26.75 25.2188L27.9375 26.1562C28.2812 25.5312 28.5 24.7812 28.5 24C28.5 21.5312 26.4688 19.5 24 19.5C22.8125 19.5 21.75 19.9688 20.9688 20.6875ZM25.6562 28.1875L27.9375 30C26.7812 30.625 25.4688 31 24 31C21.4688 31 19.4375 29.875 17.9688 28.5C16.5 27.125 15.5312 25.5 15.0625 24.4062C14.9688 24.1562 14.9688 23.875 15.0625 23.625C15.375 22.9062 15.875 22 16.5938 21.0625L19.5312 23.375C19.5 23.5938 19.5 23.8125 19.5 24C19.5 26.5 21.5 28.5 24 28.5C24.5625 28.5 25.125 28.4062 25.6562 28.1875Z" fill="#C7C9D0"/>
</svg>
