<svg width="33" height="32" viewBox="0 0 33 32" fill="none" xmlns="http://www.w3.org/2000/svg">
<path d="M6.5 31C5.8202 31 5.17448 30.8649 4.58633 30.621L4.20327 31.5447C2.73663 30.9365 1.56347 29.7634 0.955282 28.2967L1.87901 27.9137C1.63511 27.3255 1.5 26.6798 1.5 26V23.5H0.5V18.5H1.5V13.5H0.5V8.5H1.5V6C1.5 5.3202 1.63511 4.67448 1.87901 4.08633L0.955283 3.70327C1.56348 2.23663 2.73663 1.06348 4.20327 0.455283L4.58633 1.37901C5.17448 1.13511 5.8202 1 6.5 1H9V0H14V1H19V0H24V1H26.5C27.1798 1 27.8255 1.13511 28.4137 1.37901L28.7967 0.455283C30.2634 1.06348 31.4365 2.23663 32.0447 3.70327L31.121 4.08633C31.3649 4.67448 31.5 5.3202 31.5 6V8.5H32.5V13.5H31.5V18.5H32.5V23.5H31.5V26C31.5 26.6798 31.3649 27.3255 31.121 27.9137L32.0447 28.2967C31.4365 29.7634 30.2634 30.9365 28.7967 31.5447L28.4137 30.621C27.8255 30.8649 27.1798 31 26.5 31H24V32H19V31H14V32H9V31H6.5Z" stroke="#E4E5E9" stroke-width="2" stroke-linejoin="round" stroke-dasharray="6 6"/>
<path d="M7.6875 8.1875L11.1875 10.9062C12.5938 9.84375 14.3438 9 16.5 9C19 9 21.0312 10.1562 22.5 11.5312C23.9688 12.875 24.9375 14.5 25.4062 15.625C25.5 15.875 25.5 16.1562 25.4062 16.4062C25 17.4062 24.1562 18.8438 22.9062 20.0938L26.1875 22.6875C26.5312 22.9375 26.5938 23.4062 26.3125 23.7188C26.0625 24.0625 25.5938 24.125 25.2812 23.8438L6.78125 9.34375C6.4375 9.09375 6.375 8.625 6.65625 8.3125C6.90625 7.96875 7.375 7.90625 7.6875 8.1875ZM13.4688 12.6875L16.2812 14.9062C16.4062 14.625 16.5 14.3438 16.5 14.0312C16.5 13.7812 16.4375 13.5938 16.375 13.375C16.3438 13.2188 16.4375 13 16.625 13.0312C17.9062 13.0625 19.0312 13.9375 19.375 15.25C19.5625 15.9375 19.5 16.625 19.25 17.2188L20.4375 18.1562C20.7812 17.5312 21 16.7812 21 16C21 13.5312 18.9688 11.5 16.5 11.5C15.3125 11.5 14.25 11.9688 13.4688 12.6875ZM18.1562 20.1875L20.4375 22C19.2812 22.625 17.9688 23 16.5 23C13.9688 23 11.9375 21.875 10.4688 20.5C9 19.125 8.03125 17.5 7.5625 16.4062C7.46875 16.1562 7.46875 15.875 7.5625 15.625C7.875 14.9062 8.375 14 9.09375 13.0625L12.0312 15.375C12 15.5938 12 15.8125 12 16C12 18.5 14 20.5 16.5 20.5C17.0625 20.5 17.625 20.4062 18.1562 20.1875Z" fill="#E4E5E9"/>
</svg>
