<svg width="32" height="32" viewBox="0 0 32 32" fill="none" xmlns="http://www.w3.org/2000/svg">
<path d="M6 31C5.3202 31 4.67448 30.8649 4.08633 30.621L3.70327 31.5447C2.23663 30.9365 1.06347 29.7634 0.455282 28.2967L1.37901 27.9137C1.13511 27.3255 1 26.6798 1 26V23.5H0V18.5H1V13.5H0V8.5H1V6C1 5.3202 1.13511 4.67448 1.37901 4.08633L0.455283 3.70327C1.06348 2.23663 2.23663 1.06348 3.70327 0.455283L4.08633 1.37901C4.67448 1.13511 5.3202 1 6 1H8.5V0H13.5V1H18.5V0H23.5V1H26C26.6798 1 27.3255 1.13511 27.9137 1.37901L28.2967 0.455283C29.7634 1.06348 30.9365 2.23663 31.5447 3.70327L30.621 4.08633C30.8649 4.67448 31 5.3202 31 6V8.5H32V13.5H31V18.5H32V23.5H31V26C31 26.6798 30.8649 27.3255 30.621 27.9137L31.5447 28.2967C30.9365 29.7634 29.7634 30.9365 28.2967 31.5447L27.9137 30.621C27.3255 30.8649 26.6798 31 26 31H23.5V32H18.5V31H13.5V32H8.5V31H6Z" stroke="#E4E5E9" stroke-width="2" stroke-linejoin="round" stroke-dasharray="6 6"/>
<path d="M7.1875 8.1875L10.6875 10.9062C12.0938 9.84375 13.8438 9 16 9C18.5 9 20.5312 10.1562 22 11.5312C23.4688 12.875 24.4375 14.5 24.9062 15.625C25 15.875 25 16.1562 24.9062 16.4062C24.5 17.4062 23.6562 18.8438 22.4062 20.0938L25.6875 22.6875C26.0312 22.9375 26.0938 23.4062 25.8125 23.7188C25.5625 24.0625 25.0938 24.125 24.7812 23.8438L6.28125 9.34375C5.9375 9.09375 5.875 8.625 6.15625 8.3125C6.40625 7.96875 6.875 7.90625 7.1875 8.1875ZM12.9688 12.6875L15.7812 14.9062C15.9062 14.625 16 14.3438 16 14.0312C16 13.7812 15.9375 13.5938 15.875 13.375C15.8438 13.2188 15.9375 13 16.125 13.0312C17.4062 13.0625 18.5312 13.9375 18.875 15.25C19.0625 15.9375 19 16.625 18.75 17.2188L19.9375 18.1562C20.2812 17.5312 20.5 16.7812 20.5 16C20.5 13.5312 18.4688 11.5 16 11.5C14.8125 11.5 13.75 11.9688 12.9688 12.6875ZM17.6562 20.1875L19.9375 22C18.7812 22.625 17.4688 23 16 23C13.4688 23 11.4375 21.875 9.96875 20.5C8.5 19.125 7.53125 17.5 7.0625 16.4062C6.96875 16.1562 6.96875 15.875 7.0625 15.625C7.375 14.9062 7.875 14 8.59375 13.0625L11.5312 15.375C11.5 15.5938 11.5 15.8125 11.5 16C11.5 18.5 13.5 20.5 16 20.5C16.5625 20.5 17.125 20.4062 17.6562 20.1875Z" fill="#E4E5E9"/>
</svg>
